{"glyphs":{"0":{"ha":853,"x_min":58,"x_max":794,"o":"m 794 407 q 746 190 794 285 q 615 40 697 94 q 426 -14 532 -14 q 239 40 322 -14 q 107 190 156 94 q 58 407 58 285 q 107 624 58 529 q 239 774 156 719 q 428 829 322 829 q 615 774 532 829 q 746 624 697 719 q 794 407 794 529 m 528 407 q 515 501 528 461 q 478 565 501 542 q 426 588 456 588 q 372 565 396 588 q 335 501 349 542 q 322 407 322 461 q 335 313 322 353 q 372 250 349 272 q 426 228 396 228 q 478 250 456 228 q 515 313 501 272 q 528 407 528 353 z "},"1":{"ha":760,"x_min":57,"x_max":726,"o":"m 726 236 l 726 0 l 83 0 l 83 236 l 281 236 l 281 513 q 242 480 268 496 q 183 450 215 464 q 117 428 150 436 q 57 419 83 419 l 57 661 q 110 675 76 661 q 181 710 144 689 q 244 754 217 732 q 281 793 272 776 l 550 793 l 550 236 l 726 236 z "},"2":{"ha":832,"x_min":43,"x_max":775,"o":"m 43 0 q 54 122 43 69 q 90 217 65 175 q 155 293 115 258 q 253 358 194 328 q 372 424 328 399 q 438 463 417 449 q 466 488 460 478 q 472 511 472 499 q 462 549 472 535 q 433 572 451 564 q 389 579 415 579 q 345 574 367 579 q 303 556 324 568 q 260 524 282 543 q 217 479 239 506 l 50 675 q 119 728 78 704 q 210 770 160 753 q 318 797 261 788 q 435 807 375 807 q 613 777 540 807 q 722 692 685 747 q 760 557 760 636 q 749 480 760 514 q 718 419 738 446 q 673 371 699 393 q 618 329 647 349 q 574 306 597 318 q 528 283 551 294 q 481 260 504 272 q 433 236 457 249 l 775 236 l 775 0 l 43 0 z "},"3":{"ha":807,"x_min":28,"x_max":761,"o":"m 567 329 q 667 284 624 319 q 736 196 711 249 q 761 79 761 143 q 713 -72 761 -8 q 576 -169 665 -135 q 365 -204 488 -204 q 176 -176 260 -204 q 28 -93 93 -149 l 163 99 q 248 53 203 68 q 351 38 293 38 q 455 59 422 38 q 488 128 488 81 q 446 203 488 181 q 310 226 404 226 l 267 226 l 267 410 l 315 410 q 422 436 382 410 q 463 506 463 463 q 452 544 463 528 q 422 568 442 560 q 372 576 401 576 q 282 552 325 576 q 207 479 239 528 l 40 675 q 130 740 74 713 q 257 784 186 768 q 403 800 328 800 q 583 769 506 800 q 703 684 660 739 q 746 556 746 629 q 722 453 746 501 q 658 372 699 404 q 567 329 618 339 z "},"4":{"ha":814,"x_min":21,"x_max":764,"o":"m 378 -176 l 378 -4 l 21 -4 l 21 232 l 461 793 l 642 793 l 642 232 l 764 232 l 764 -4 l 642 -4 l 642 -176 l 378 -176 m 281 232 l 408 232 l 408 399 l 281 232 z "},"5":{"ha":781,"x_min":33,"x_max":744,"o":"m 363 -207 q 167 -166 254 -207 q 33 -51 81 -125 l 178 115 q 267 48 218 72 q 364 24 317 24 q 423 36 399 24 q 460 72 447 49 q 474 126 474 96 q 462 180 474 157 q 428 215 450 203 q 378 228 407 228 q 324 215 349 228 q 288 179 300 201 l 61 179 l 178 793 l 672 793 l 672 553 l 368 553 l 353 446 q 368 449 353 446 q 417 453 383 453 q 587 412 513 453 q 703 299 661 371 q 744 132 744 226 q 696 -44 744 32 q 562 -164 647 -121 q 363 -207 476 -207 z "},"6":{"ha":846,"x_min":54,"x_max":794,"o":"m 794 333 q 749 499 794 426 q 626 615 704 572 q 447 657 547 657 q 388 652 415 657 q 338 637 360 647 q 297 610 315 626 q 318 694 300 660 q 369 748 336 729 q 447 767 403 767 q 539 747 494 767 q 619 692 583 728 l 765 861 q 621 960 700 926 q 451 994 542 994 q 239 932 328 994 q 102 752 150 869 q 54 472 54 635 q 98 210 54 318 q 224 44 142 101 q 425 -14 307 -14 q 614 33 531 -14 q 746 158 697 79 q 794 333 794 236 m 425 207 q 367 224 394 207 q 324 271 340 242 q 307 333 307 300 q 323 393 307 367 q 366 435 339 419 q 425 450 393 450 q 485 435 458 450 q 527 393 511 419 q 543 333 543 367 q 526 271 543 300 q 483 224 510 242 q 425 207 457 207 z "},"7":{"ha":824,"x_min":42,"x_max":833,"o":"m 418 571 l 42 571 l 42 811 l 833 811 l 351 -175 l 53 -175 l 418 571 z "},"8":{"ha":849,"x_min":51,"x_max":796,"o":"m 796 307 q 746 139 796 211 q 611 26 696 67 q 424 -14 526 -14 q 241 26 326 -14 q 103 141 156 67 q 51 315 51 215 q 70 406 51 365 q 117 476 89 446 q 171 526 144 507 q 124 569 144 543 q 91 628 103 596 q 79 693 79 661 q 111 819 79 764 q 194 911 143 874 q 306 967 246 949 q 424 986 367 986 q 542 967 481 986 q 654 912 603 949 q 738 821 706 875 q 769 696 769 767 q 757 631 769 664 q 724 569 744 597 q 676 526 703 542 q 732 474 704 506 q 778 401 760 443 q 796 307 796 360 m 528 322 q 520 363 528 346 q 498 393 513 381 q 465 412 483 406 q 424 418 446 418 q 369 406 393 418 q 333 373 346 394 q 319 322 319 351 q 328 284 319 301 q 350 253 336 267 q 383 233 364 240 q 424 226 401 226 q 478 240 454 226 q 515 274 501 253 q 528 322 528 296 m 347 688 q 358 647 347 663 q 388 622 369 631 q 424 614 406 614 q 460 622 443 614 q 490 647 478 631 q 501 688 501 663 q 492 721 501 706 q 465 745 482 736 q 424 754 447 754 q 384 745 401 754 q 357 721 367 736 q 347 688 347 706 z "},"9":{"ha":818,"x_min":38,"x_max":778,"o":"m 38 446 q 83 281 38 354 q 207 165 128 207 q 385 122 286 122 q 445 127 418 122 q 494 143 472 132 q 535 169 517 154 q 515 85 533 121 q 463 31 496 50 q 385 13 431 13 q 293 32 338 13 q 213 88 249 51 l 67 -82 q 212 -181 132 -147 q 381 -215 292 -215 q 593 -152 504 -215 q 730 28 682 -89 q 778 307 778 144 q 734 569 778 461 q 608 735 690 678 q 407 793 525 793 q 218 747 301 793 q 86 622 135 700 q 38 446 38 543 m 407 572 q 465 555 439 572 q 508 509 492 538 q 525 446 525 481 q 509 387 525 414 q 467 344 493 360 q 407 329 440 329 q 348 344 375 329 q 305 387 321 360 q 289 446 289 414 q 306 509 289 481 q 349 555 322 538 q 407 572 376 572 z "},"A":{"ha":926,"x_min":-3,"x_max":929,"o":"m 313 986 l 615 986 l 929 0 l 654 0 l 594 193 l 332 193 l 274 0 l -3 0 l 313 986 m 551 374 l 464 721 l 372 374 l 551 374 z "},"Á":{"ha":926,"x_min":-3,"x_max":929,"o":"m 313 986 l 615 986 l 929 0 l 654 0 l 594 193 l 332 193 l 274 0 l -3 0 l 313 986 m 551 374 l 464 721 l 372 374 l 551 374 m 547 1028 l 381 1072 l 450 1269 l 685 1269 l 547 1028 z "},"Ă":{"ha":926,"x_min":-3,"x_max":929,"o":"m 313 986 l 615 986 l 929 0 l 654 0 l 594 193 l 332 193 l 274 0 l -3 0 l 313 986 m 551 374 l 464 721 l 372 374 l 551 374 m 464 1157 q 520 1189 496 1157 q 549 1269 544 1221 l 685 1269 q 624 1108 685 1171 q 464 1044 563 1044 q 305 1108 367 1044 q 243 1269 243 1171 l 379 1269 q 404 1190 379 1224 q 464 1157 429 1157 z "},"Ắ":{"ha":926,"x_min":-3,"x_max":929,"o":"m 313 986 l 615 986 l 929 0 l 654 0 l 594 193 l 332 193 l 274 0 l -3 0 l 313 986 m 551 374 l 464 721 l 372 374 l 551 374 z "},"Ặ":{"ha":926,"x_min":-3,"x_max":929,"o":"m 313 986 l 615 986 l 929 0 l 654 0 l 594 193 l 332 193 l 274 0 l -3 0 l 313 986 m 551 374 l 464 721 l 372 374 l 551 374 m 361 -297 l 361 -89 l 597 -89 l 597 -297 l 361 -297 m 464 1157 q 520 1189 496 1157 q 549 1269 544 1221 l 685 1269 q 624 1108 685 1171 q 464 1044 563 1044 q 305 1108 367 1044 q 243 1269 243 1171 l 379 1269 q 404 1190 379 1224 q 464 1157 429 1157 z "},"Ằ":{"ha":926,"x_min":-3,"x_max":929,"o":"m 313 986 l 615 986 l 929 0 l 654 0 l 594 193 l 332 193 l 274 0 l -3 0 l 313 986 m 551 374 l 464 721 l 372 374 l 551 374 z "},"Ẳ":{"ha":926,"x_min":-3,"x_max":929,"o":"m 313 986 l 615 986 l 929 0 l 654 0 l 594 193 l 332 193 l 274 0 l -3 0 l 313 986 m 551 374 l 464 721 l 372 374 l 551 374 z "},"Ẵ":{"ha":926,"x_min":-3,"x_max":929,"o":"m 313 986 l 615 986 l 929 0 l 654 0 l 594 193 l 332 193 l 274 0 l -3 0 l 313 986 m 551 374 l 464 721 l 372 374 l 551 374 z "},"Â":{"ha":926,"x_min":-3,"x_max":929,"o":"m 313 986 l 615 986 l 929 0 l 654 0 l 594 193 l 332 193 l 274 0 l -3 0 l 313 986 m 551 374 l 464 721 l 372 374 l 551 374 m 213 1110 l 369 1269 l 558 1269 l 715 1110 l 582 1051 l 464 1139 l 346 1051 l 213 1110 z "},"Ấ":{"ha":926,"x_min":-3,"x_max":929,"o":"m 313 986 l 615 986 l 929 0 l 654 0 l 594 193 l 332 193 l 274 0 l -3 0 l 313 986 m 551 374 l 464 721 l 372 374 l 551 374 z "},"Ậ":{"ha":926,"x_min":-3,"x_max":929,"o":"m 313 986 l 615 986 l 929 0 l 654 0 l 594 193 l 332 193 l 274 0 l -3 0 l 313 986 m 551 374 l 464 721 l 372 374 l 551 374 m 361 -297 l 361 -89 l 597 -89 l 597 -297 l 361 -297 m 213 1110 l 369 1269 l 558 1269 l 715 1110 l 582 1051 l 464 1139 l 346 1051 l 213 1110 z "},"Ầ":{"ha":926,"x_min":-15,"x_max":929,"o":"m 313 986 l 615 986 l 929 0 l 654 0 l 594 193 l 332 193 l 274 0 l -3 0 l 313 986 m 551 374 l 464 721 l 372 374 l 551 374 z "},"Ẩ":{"ha":926,"x_min":-3,"x_max":929,"o":"m 313 986 l 615 986 l 929 0 l 654 0 l 594 193 l 332 193 l 274 0 l -3 0 l 313 986 m 551 374 l 464 721 l 372 374 l 551 374 z "},"Ẫ":{"ha":926,"x_min":-3,"x_max":929,"o":"m 313 986 l 615 986 l 929 0 l 654 0 l 594 193 l 332 193 l 274 0 l -3 0 l 313 986 m 551 374 l 464 721 l 372 374 l 551 374 z "},"Ȁ":{"ha":926,"x_min":-3,"x_max":929,"o":"m 313 986 l 615 986 l 929 0 l 654 0 l 594 193 l 332 193 l 274 0 l -3 0 l 313 986 m 551 374 l 464 721 l 372 374 l 551 374 m 426 1271 l 619 1271 l 675 1074 l 550 1029 l 426 1271 m 163 1271 l 356 1271 l 411 1074 l 286 1029 l 163 1271 z "},"Ä":{"ha":926,"x_min":-3,"x_max":929,"o":"m 313 986 l 615 986 l 929 0 l 654 0 l 594 193 l 332 193 l 274 0 l -3 0 l 313 986 m 551 374 l 464 721 l 372 374 l 551 374 m 196 1063 l 196 1257 l 413 1257 l 413 1063 l 196 1063 m 515 1063 l 515 1257 l 732 1257 l 732 1063 l 515 1063 z "},"Ạ":{"ha":926,"x_min":-3,"x_max":929,"o":"m 313 986 l 615 986 l 929 0 l 654 0 l 594 193 l 332 193 l 274 0 l -3 0 l 313 986 m 551 374 l 464 721 l 372 374 l 551 374 m 361 -297 l 361 -89 l 597 -89 l 597 -297 l 361 -297 z "},"À":{"ha":926,"x_min":-3,"x_max":929,"o":"m 313 986 l 615 986 l 929 0 l 654 0 l 594 193 l 332 193 l 274 0 l -3 0 l 313 986 m 551 374 l 464 721 l 372 374 l 551 374 m 256 1269 l 490 1269 l 560 1072 l 393 1028 l 256 1269 z "},"Ả":{"ha":926,"x_min":-3,"x_max":929,"o":"m 313 986 l 615 986 l 929 0 l 654 0 l 594 193 l 332 193 l 274 0 l -3 0 l 313 986 m 551 374 l 464 721 l 372 374 l 551 374 m 386 1194 l 315 1264 q 397 1327 358 1308 q 476 1346 436 1346 q 575 1314 538 1346 q 613 1229 613 1282 q 588 1138 613 1174 q 510 1058 563 1101 l 447 1124 q 484 1156 471 1139 q 497 1190 497 1172 q 486 1220 497 1208 q 456 1232 475 1232 q 422 1222 436 1232 q 386 1194 407 1213 z "},"Ȃ":{"ha":926,"x_min":-3,"x_max":929,"o":"m 313 986 l 615 986 l 929 0 l 654 0 l 594 193 l 332 193 l 274 0 l -3 0 l 313 986 m 551 374 l 464 721 l 372 374 l 551 374 m 464 1157 q 404 1124 429 1157 q 379 1044 379 1090 l 243 1044 q 305 1206 243 1143 q 464 1269 367 1269 q 624 1206 563 1269 q 685 1044 685 1143 l 549 1044 q 520 1125 544 1093 q 464 1157 496 1157 z "},"Ā":{"ha":926,"x_min":-3,"x_max":929,"o":"m 313 986 l 615 986 l 929 0 l 654 0 l 594 193 l 332 193 l 274 0 l -3 0 l 313 986 m 551 374 l 464 721 l 372 374 l 551 374 m 250 1099 l 250 1256 l 681 1256 l 681 1099 l 250 1099 z "},"Ą":{"ha":926,"x_min":-3,"x_max":929,"o":"m 313 986 l 615 986 l 929 0 l 654 0 l 594 193 l 332 193 l 274 0 l -3 0 l 313 986 m 551 374 l 464 721 l 372 374 l 551 374 m 667 -160 q 706 -58 667 -110 q 824 33 746 -6 l 911 33 l 929 0 q 856 -56 882 -28 q 829 -108 829 -85 q 853 -145 829 -131 q 926 -160 876 -160 l 878 -299 q 760 -270 807 -290 q 690 -221 713 -250 q 667 -160 667 -192 z "},"Å":{"ha":926,"x_min":-3,"x_max":929,"o":"m 313 986 l 615 986 l 929 0 l 654 0 l 594 193 l 332 193 l 274 0 l -3 0 l 313 986 m 551 374 l 464 721 l 372 374 l 551 374 m 301 1149 q 346 1244 301 1210 q 464 1279 390 1279 q 582 1244 538 1279 q 626 1149 626 1210 q 582 1053 626 1089 q 464 1018 538 1018 q 346 1053 390 1018 q 301 1149 301 1089 m 464 1201 q 424 1185 440 1201 q 408 1150 408 1169 q 424 1113 408 1129 q 464 1096 440 1096 q 503 1113 488 1096 q 519 1150 519 1129 q 503 1185 519 1169 q 464 1201 488 1201 z "},"Ǻ":{"ha":926,"x_min":-3,"x_max":929,"o":"m 517 1088 l 350 1126 l 419 1299 l 654 1299 l 517 1088 m 313 986 l 615 986 l 929 0 l 654 0 l 594 193 l 332 193 l 274 0 l -3 0 l 313 986 m 551 374 l 464 721 l 372 374 l 551 374 m 301 1043 q 346 1139 301 1104 q 464 1174 390 1174 q 582 1139 538 1174 q 626 1043 626 1104 q 582 948 626 983 q 464 913 538 913 q 346 948 390 913 q 301 1043 301 983 m 464 1096 q 424 1080 440 1096 q 408 1044 408 1064 q 424 1007 408 1024 q 464 990 440 990 q 503 1007 488 990 q 519 1044 519 1024 q 503 1080 519 1064 q 464 1096 488 1096 z "},"Ã":{"ha":926,"x_min":-3,"x_max":929,"o":"m 313 986 l 615 986 l 929 0 l 654 0 l 594 193 l 332 193 l 274 0 l -3 0 l 313 986 m 551 374 l 464 721 l 372 374 l 551 374 m 560 1050 q 488 1067 518 1050 q 431 1100 457 1083 q 374 1117 406 1117 q 329 1101 343 1117 q 313 1068 315 1085 q 310 1050 310 1051 l 169 1050 q 180 1104 169 1068 q 214 1178 190 1140 q 274 1243 238 1217 q 363 1269 311 1269 q 438 1251 408 1269 q 492 1216 467 1233 q 550 1199 518 1199 q 595 1215 581 1199 q 615 1250 610 1232 q 619 1269 619 1268 l 758 1269 q 747 1222 758 1257 q 713 1148 736 1188 q 651 1079 689 1108 q 560 1050 614 1050 z "},"Æ":{"ha":1349,"x_min":-36,"x_max":1307,"o":"m 563 986 l 1294 986 l 1294 750 l 903 750 l 903 619 l 1219 619 l 1219 383 l 903 383 l 903 236 l 1307 236 l 1307 0 l 633 0 l 633 193 l 354 193 l 250 0 l -36 0 l 563 986 m 613 429 l 613 688 l 468 429 l 613 429 z "},"Ǽ":{"ha":1349,"x_min":-36,"x_max":1307,"o":"m 563 986 l 1294 986 l 1294 750 l 903 750 l 903 619 l 1219 619 l 1219 383 l 903 383 l 903 236 l 1307 236 l 1307 0 l 633 0 l 633 193 l 354 193 l 250 0 l -36 0 l 563 986 m 613 429 l 613 688 l 468 429 l 613 429 m 951 1028 l 785 1072 l 854 1269 l 1089 1269 l 951 1028 z "},"B":{"ha":958,"x_min":85,"x_max":924,"o":"m 924 253 q 876 108 924 164 q 747 26 828 53 q 569 0 667 0 l 85 0 l 85 986 l 657 986 q 777 949 726 986 q 855 854 828 913 q 882 733 882 796 q 847 601 882 665 q 740 506 811 538 q 874 418 825 481 q 924 253 924 356 m 649 308 q 640 352 649 333 q 615 382 631 371 q 579 393 600 393 l 356 393 l 356 228 l 569 228 q 610 238 592 228 q 638 265 628 247 q 649 308 649 283 m 356 756 l 356 604 l 540 604 q 575 610 558 604 q 603 633 592 617 q 614 681 614 650 q 605 724 614 708 q 581 748 596 740 q 549 756 567 756 l 356 756 z "},"C":{"ha":960,"x_min":31,"x_max":949,"o":"m 31 501 q 65 678 31 592 q 164 836 99 765 q 323 949 229 907 q 535 992 417 992 q 782 933 676 992 q 939 776 888 874 l 732 629 q 680 704 714 678 q 606 741 646 731 q 529 751 567 751 q 428 728 471 751 q 359 668 386 706 q 319 585 332 631 q 306 493 306 539 q 321 394 306 442 q 365 310 336 347 q 437 253 394 274 q 532 232 479 232 q 608 244 569 232 q 679 282 647 256 q 728 353 711 308 l 949 221 q 851 97 919 149 q 697 19 783 46 q 526 -8 611 -8 q 326 35 417 -8 q 169 152 235 79 q 67 316 103 225 q 31 501 31 407 z "},"Ć":{"ha":960,"x_min":31,"x_max":949,"o":"m 31 501 q 65 678 31 592 q 164 836 99 765 q 323 949 229 907 q 535 992 417 992 q 782 933 676 992 q 939 776 888 874 l 732 629 q 680 704 714 678 q 606 741 646 731 q 529 751 567 751 q 428 728 471 751 q 359 668 386 706 q 319 585 332 631 q 306 493 306 539 q 321 394 306 442 q 365 310 336 347 q 437 253 394 274 q 532 232 479 232 q 608 244 569 232 q 679 282 647 256 q 728 353 711 308 l 949 221 q 851 97 919 149 q 697 19 783 46 q 526 -8 611 -8 q 326 35 417 -8 q 169 152 235 79 q 67 316 103 225 q 31 501 31 407 m 618 1028 l 451 1072 l 521 1269 l 756 1269 l 618 1028 z "},"Č":{"ha":960,"x_min":31,"x_max":949,"o":"m 31 501 q 65 678 31 592 q 164 836 99 765 q 323 949 229 907 q 535 992 417 992 q 782 933 676 992 q 939 776 888 874 l 732 629 q 680 704 714 678 q 606 741 646 731 q 529 751 567 751 q 428 728 471 751 q 359 668 386 706 q 319 585 332 631 q 306 493 306 539 q 321 394 306 442 q 365 310 336 347 q 437 253 394 274 q 532 232 479 232 q 608 244 569 232 q 679 282 647 256 q 728 353 711 308 l 949 221 q 851 97 919 149 q 697 19 783 46 q 526 -8 611 -8 q 326 35 417 -8 q 169 152 235 79 q 67 316 103 225 q 31 501 31 407 m 417 1269 l 535 1182 l 653 1269 l 786 1211 l 629 1051 l 440 1051 l 283 1211 l 417 1269 z "},"Ç":{"ha":960,"x_min":31,"x_max":949,"o":"m 31 501 q 65 678 31 592 q 164 836 99 765 q 323 949 229 907 q 535 992 417 992 q 782 933 676 992 q 939 776 888 874 l 732 629 q 680 704 714 678 q 606 741 646 731 q 529 751 567 751 q 428 728 471 751 q 359 668 386 706 q 319 585 332 631 q 306 493 306 539 q 321 394 306 442 q 365 310 336 347 q 437 253 394 274 q 532 232 479 232 q 608 244 569 232 q 679 282 647 256 q 728 353 711 308 l 949 221 q 851 97 919 149 q 697 19 783 46 q 526 -8 611 -8 q 326 35 417 -8 q 169 152 235 79 q 67 316 103 225 q 31 501 31 407 m 506 -306 q 422 -294 467 -306 q 333 -258 378 -282 l 394 -124 q 428 -144 410 -137 q 461 -150 446 -150 q 503 -136 486 -150 q 519 -96 519 -122 q 504 -48 519 -72 q 461 0 489 -24 l 544 50 q 635 -36 597 11 q 674 -149 674 -83 q 633 -258 674 -210 q 506 -306 592 -306 z "},"Ḉ":{"ha":960,"x_min":31,"x_max":949,"o":"m 31 501 q 65 678 31 592 q 164 836 99 765 q 323 949 229 907 q 535 992 417 992 q 782 933 676 992 q 939 776 888 874 l 732 629 q 680 704 714 678 q 606 741 646 731 q 529 751 567 751 q 428 728 471 751 q 359 668 386 706 q 319 585 332 631 q 306 493 306 539 q 321 394 306 442 q 365 310 336 347 q 437 253 394 274 q 532 232 479 232 q 608 244 569 232 q 679 282 647 256 q 728 353 711 308 l 949 221 q 851 97 919 149 q 697 19 783 46 q 526 -8 611 -8 q 326 35 417 -8 q 169 152 235 79 q 67 316 103 225 q 31 501 31 407 m 506 -306 q 422 -294 467 -306 q 333 -258 378 -282 l 394 -124 q 428 -144 410 -137 q 461 -150 446 -150 q 503 -136 486 -150 q 519 -96 519 -122 q 504 -48 519 -72 q 461 0 489 -24 l 544 50 q 635 -36 597 11 q 674 -149 674 -83 q 633 -258 674 -210 q 506 -306 592 -306 m 618 1028 l 451 1072 l 521 1269 l 756 1269 l 618 1028 z "},"Ĉ":{"ha":960,"x_min":31,"x_max":949,"o":"m 31 501 q 65 678 31 592 q 164 836 99 765 q 323 949 229 907 q 535 992 417 992 q 782 933 676 992 q 939 776 888 874 l 732 629 q 680 704 714 678 q 606 741 646 731 q 529 751 567 751 q 428 728 471 751 q 359 668 386 706 q 319 585 332 631 q 306 493 306 539 q 321 394 306 442 q 365 310 336 347 q 437 253 394 274 q 532 232 479 232 q 608 244 569 232 q 679 282 647 256 q 728 353 711 308 l 949 221 q 851 97 919 149 q 697 19 783 46 q 526 -8 611 -8 q 326 35 417 -8 q 169 152 235 79 q 67 316 103 225 q 31 501 31 407 m 283 1110 l 440 1269 l 629 1269 l 786 1110 l 653 1051 l 535 1139 l 417 1051 l 283 1110 z "},"Ċ":{"ha":960,"x_min":31,"x_max":949,"o":"m 31 501 q 65 678 31 592 q 164 836 99 765 q 323 949 229 907 q 535 992 417 992 q 782 933 676 992 q 939 776 888 874 l 732 629 q 680 704 714 678 q 606 741 646 731 q 529 751 567 751 q 428 728 471 751 q 359 668 386 706 q 319 585 332 631 q 306 493 306 539 q 321 394 306 442 q 365 310 336 347 q 437 253 394 274 q 532 232 479 232 q 608 244 569 232 q 679 282 647 256 q 728 353 711 308 l 949 221 q 851 97 919 149 q 697 19 783 46 q 526 -8 611 -8 q 326 35 417 -8 q 169 152 235 79 q 67 316 103 225 q 31 501 31 407 m 417 1061 l 417 1269 l 653 1269 l 653 1061 l 417 1061 z "},"D":{"ha":994,"x_min":85,"x_max":961,"o":"m 85 0 l 85 986 l 464 986 q 738 920 628 986 q 905 742 849 854 q 961 494 961 631 q 899 233 961 344 q 726 61 838 122 q 464 0 614 0 l 85 0 m 686 494 q 660 628 686 571 q 583 718 633 686 q 464 750 533 750 l 356 750 l 356 236 l 464 236 q 584 269 535 236 q 660 362 633 303 q 686 494 686 421 z "},"Ð":{"ha":1000,"x_min":39,"x_max":967,"o":"m 39 399 l 39 593 l 519 593 l 519 399 l 39 399 m 90 0 l 90 986 l 469 986 q 744 920 633 986 q 910 742 854 854 q 967 494 967 631 q 905 233 967 344 q 731 61 843 122 q 469 0 619 0 l 90 0 m 692 494 q 665 628 692 571 q 589 718 639 686 q 469 750 539 750 l 361 750 l 361 236 l 469 236 q 590 269 540 236 q 665 362 639 303 q 692 494 692 421 z "},"Ď":{"ha":994,"x_min":85,"x_max":961,"o":"m 85 0 l 85 986 l 464 986 q 738 920 628 986 q 905 742 849 854 q 961 494 961 631 q 899 233 961 344 q 726 61 838 122 q 464 0 614 0 l 85 0 m 686 494 q 660 628 686 571 q 583 718 633 686 q 464 750 533 750 l 356 750 l 356 236 l 464 236 q 584 269 535 236 q 660 362 633 303 q 686 494 686 421 m 322 1269 l 440 1182 l 558 1269 l 692 1211 l 535 1051 l 346 1051 l 189 1211 l 322 1269 z "},"Đ":{"ha":1000,"x_min":39,"x_max":967,"o":"m 39 399 l 39 593 l 519 593 l 519 399 l 39 399 m 90 0 l 90 986 l 469 986 q 744 920 633 986 q 910 742 854 854 q 967 494 967 631 q 905 233 967 344 q 731 61 843 122 q 469 0 619 0 l 90 0 m 692 494 q 665 628 692 571 q 589 718 639 686 q 469 750 539 750 l 361 750 l 361 236 l 469 236 q 590 269 540 236 q 665 362 639 303 q 692 494 692 421 z "},"Ḍ":{"ha":994,"x_min":85,"x_max":961,"o":"m 85 0 l 85 986 l 464 986 q 738 920 628 986 q 905 742 849 854 q 961 494 961 631 q 899 233 961 344 q 726 61 838 122 q 464 0 614 0 l 85 0 m 686 494 q 660 628 686 571 q 583 718 633 686 q 464 750 533 750 l 356 750 l 356 236 l 464 236 q 584 269 535 236 q 660 362 633 303 q 686 494 686 421 m 379 -297 l 379 -89 l 615 -89 l 615 -297 l 379 -297 z "},"Ḏ":{"ha":994,"x_min":85,"x_max":961,"o":"m 85 0 l 85 986 l 464 986 q 738 920 628 986 q 905 742 849 854 q 961 494 961 631 q 899 233 961 344 q 726 61 838 122 q 464 0 614 0 l 85 0 m 686 494 q 660 628 686 571 q 583 718 633 686 q 464 750 533 750 l 356 750 l 356 236 l 464 236 q 584 269 535 236 q 660 362 633 303 q 686 494 686 421 m 282 -260 l 282 -103 l 713 -103 l 713 -260 l 282 -260 z "},"E":{"ha":829,"x_min":85,"x_max":788,"o":"m 788 236 l 788 0 l 85 0 l 85 986 l 775 986 l 775 750 l 356 750 l 356 611 l 714 611 l 714 392 l 356 392 l 356 236 l 788 236 z "},"É":{"ha":829,"x_min":85,"x_max":788,"o":"m 788 236 l 788 0 l 85 0 l 85 986 l 775 986 l 775 750 l 356 750 l 356 611 l 714 611 l 714 392 l 356 392 l 356 236 l 788 236 m 522 1028 l 356 1072 l 425 1269 l 660 1269 l 522 1028 z "},"Ĕ":{"ha":829,"x_min":85,"x_max":788,"o":"m 788 236 l 788 0 l 85 0 l 85 986 l 775 986 l 775 750 l 356 750 l 356 611 l 714 611 l 714 392 l 356 392 l 356 236 l 788 236 m 439 1157 q 495 1189 471 1157 q 524 1269 519 1221 l 660 1269 q 599 1108 660 1171 q 439 1044 538 1044 q 280 1108 342 1044 q 218 1269 218 1171 l 354 1269 q 379 1190 354 1224 q 439 1157 404 1157 z "},"Ě":{"ha":829,"x_min":85,"x_max":788,"o":"m 788 236 l 788 0 l 85 0 l 85 986 l 775 986 l 775 750 l 356 750 l 356 611 l 714 611 l 714 392 l 356 392 l 356 236 l 788 236 m 321 1269 l 439 1182 l 557 1269 l 690 1211 l 533 1051 l 344 1051 l 188 1211 l 321 1269 z "},"Ḝ":{"ha":829,"x_min":85,"x_max":788,"o":"m 788 236 l 788 0 l 85 0 l 85 986 l 775 986 l 775 750 l 356 750 l 356 611 l 714 611 l 714 392 l 356 392 l 356 236 l 788 236 m 418 -306 q 335 -294 379 -306 q 246 -258 290 -282 l 307 -124 q 340 -144 322 -137 q 374 -150 358 -150 q 415 -136 399 -150 q 432 -96 432 -122 q 417 -48 432 -72 q 374 0 401 -24 l 457 50 q 548 -36 510 11 q 586 -149 586 -83 q 545 -258 586 -210 q 418 -306 504 -306 m 439 1157 q 495 1189 471 1157 q 524 1269 519 1221 l 660 1269 q 599 1108 660 1171 q 439 1044 538 1044 q 280 1108 342 1044 q 218 1269 218 1171 l 354 1269 q 379 1190 354 1224 q 439 1157 404 1157 z "},"Ê":{"ha":829,"x_min":85,"x_max":788,"o":"m 788 236 l 788 0 l 85 0 l 85 986 l 775 986 l 775 750 l 356 750 l 356 611 l 714 611 l 714 392 l 356 392 l 356 236 l 788 236 m 188 1110 l 344 1269 l 533 1269 l 690 1110 l 557 1051 l 439 1139 l 321 1051 l 188 1110 z "},"Ế":{"ha":829,"x_min":85,"x_max":896,"o":"m 788 236 l 788 0 l 85 0 l 85 986 l 775 986 l 775 750 l 356 750 l 356 611 l 714 611 l 714 392 l 356 392 l 356 236 l 788 236 z "},"Ệ":{"ha":829,"x_min":85,"x_max":788,"o":"m 788 236 l 788 0 l 85 0 l 85 986 l 775 986 l 775 750 l 356 750 l 356 611 l 714 611 l 714 392 l 356 392 l 356 236 l 788 236 m 321 -297 l 321 -89 l 557 -89 l 557 -297 l 321 -297 m 188 1110 l 344 1269 l 533 1269 l 690 1110 l 557 1051 l 439 1139 l 321 1051 l 188 1110 z "},"Ề":{"ha":829,"x_min":-40,"x_max":788,"o":"m 788 236 l 788 0 l 85 0 l 85 986 l 775 986 l 775 750 l 356 750 l 356 611 l 714 611 l 714 392 l 356 392 l 356 236 l 788 236 z "},"Ể":{"ha":829,"x_min":85,"x_max":814,"o":"m 788 236 l 788 0 l 85 0 l 85 986 l 775 986 l 775 750 l 356 750 l 356 611 l 714 611 l 714 392 l 356 392 l 356 236 l 788 236 z "},"Ễ":{"ha":829,"x_min":85,"x_max":788,"o":"m 788 236 l 788 0 l 85 0 l 85 986 l 775 986 l 775 750 l 356 750 l 356 611 l 714 611 l 714 392 l 356 392 l 356 236 l 788 236 z "},"Ȅ":{"ha":829,"x_min":85,"x_max":788,"o":"m 788 236 l 788 0 l 85 0 l 85 986 l 775 986 l 775 750 l 356 750 l 356 611 l 714 611 l 714 392 l 356 392 l 356 236 l 788 236 m 401 1271 l 594 1271 l 650 1074 l 525 1029 l 401 1271 m 138 1271 l 331 1271 l 386 1074 l 261 1029 l 138 1271 z "},"Ë":{"ha":829,"x_min":85,"x_max":788,"o":"m 788 236 l 788 0 l 85 0 l 85 986 l 775 986 l 775 750 l 356 750 l 356 611 l 714 611 l 714 392 l 356 392 l 356 236 l 788 236 m 171 1063 l 171 1257 l 388 1257 l 388 1063 l 171 1063 m 490 1063 l 490 1257 l 707 1257 l 707 1063 l 490 1063 z "},"Ė":{"ha":829,"x_min":85,"x_max":788,"o":"m 788 236 l 788 0 l 85 0 l 85 986 l 775 986 l 775 750 l 356 750 l 356 611 l 714 611 l 714 392 l 356 392 l 356 236 l 788 236 m 321 1061 l 321 1269 l 557 1269 l 557 1061 l 321 1061 z "},"Ẹ":{"ha":829,"x_min":85,"x_max":788,"o":"m 788 236 l 788 0 l 85 0 l 85 986 l 775 986 l 775 750 l 356 750 l 356 611 l 714 611 l 714 392 l 356 392 l 356 236 l 788 236 m 321 -297 l 321 -89 l 557 -89 l 557 -297 l 321 -297 z "},"È":{"ha":829,"x_min":85,"x_max":788,"o":"m 788 236 l 788 0 l 85 0 l 85 986 l 775 986 l 775 750 l 356 750 l 356 611 l 714 611 l 714 392 l 356 392 l 356 236 l 788 236 m 231 1269 l 465 1269 l 535 1072 l 368 1028 l 231 1269 z "},"Ẻ":{"ha":829,"x_min":85,"x_max":788,"o":"m 788 236 l 788 0 l 85 0 l 85 986 l 775 986 l 775 750 l 356 750 l 356 611 l 714 611 l 714 392 l 356 392 l 356 236 l 788 236 m 361 1194 l 290 1264 q 372 1327 333 1308 q 451 1346 411 1346 q 550 1314 513 1346 q 588 1229 588 1282 q 563 1138 588 1174 q 485 1058 538 1101 l 422 1124 q 459 1156 446 1139 q 472 1190 472 1172 q 461 1220 472 1208 q 431 1232 450 1232 q 397 1222 411 1232 q 361 1194 382 1213 z "},"Ȇ":{"ha":829,"x_min":85,"x_max":788,"o":"m 788 236 l 788 0 l 85 0 l 85 986 l 775 986 l 775 750 l 356 750 l 356 611 l 714 611 l 714 392 l 356 392 l 356 236 l 788 236 m 439 1157 q 379 1124 404 1157 q 354 1044 354 1090 l 218 1044 q 280 1206 218 1143 q 439 1269 342 1269 q 599 1206 538 1269 q 660 1044 660 1143 l 524 1044 q 495 1125 519 1093 q 439 1157 471 1157 z "},"Ē":{"ha":829,"x_min":85,"x_max":788,"o":"m 788 236 l 788 0 l 85 0 l 85 986 l 775 986 l 775 750 l 356 750 l 356 611 l 714 611 l 714 392 l 356 392 l 356 236 l 788 236 m 225 1099 l 225 1256 l 656 1256 l 656 1099 l 225 1099 z "},"Ḗ":{"ha":829,"x_min":85,"x_max":788,"o":"m 788 236 l 788 0 l 85 0 l 85 986 l 775 986 l 775 750 l 356 750 l 356 611 l 714 611 l 714 392 l 356 392 l 356 236 l 788 236 m 225 1099 l 225 1256 l 656 1256 l 656 1099 l 225 1099 m 524 1297 l 357 1342 l 426 1539 l 661 1539 l 524 1297 z "},"Ḕ":{"ha":829,"x_min":85,"x_max":788,"o":"m 788 236 l 788 0 l 85 0 l 85 986 l 775 986 l 775 750 l 356 750 l 356 611 l 714 611 l 714 392 l 356 392 l 356 236 l 788 236 m 225 1099 l 225 1256 l 656 1256 l 656 1099 l 225 1099 m 232 1539 l 467 1539 l 536 1342 l 369 1297 l 232 1539 z "},"Ę":{"ha":829,"x_min":85,"x_max":788,"o":"m 788 236 l 788 0 l 85 0 l 85 986 l 775 986 l 775 750 l 356 750 l 356 611 l 714 611 l 714 392 l 356 392 l 356 236 l 788 236 m 525 -160 q 565 -58 525 -110 q 682 33 604 -6 l 769 33 l 788 0 q 714 -56 740 -28 q 688 -108 688 -85 q 711 -145 688 -131 q 785 -160 735 -160 l 736 -299 q 618 -270 665 -290 q 548 -221 571 -250 q 525 -160 525 -192 z "},"Ẽ":{"ha":829,"x_min":85,"x_max":788,"o":"m 788 236 l 788 0 l 85 0 l 85 986 l 775 986 l 775 750 l 356 750 l 356 611 l 714 611 l 714 392 l 356 392 l 356 236 l 788 236 m 535 1050 q 463 1067 493 1050 q 406 1100 432 1083 q 349 1117 381 1117 q 304 1101 318 1117 q 288 1068 290 1085 q 285 1050 285 1051 l 144 1050 q 155 1104 144 1068 q 189 1178 165 1140 q 249 1243 213 1217 q 338 1269 286 1269 q 413 1251 383 1269 q 467 1216 442 1233 q 525 1199 493 1199 q 570 1215 556 1199 q 590 1250 585 1232 q 594 1269 594 1268 l 733 1269 q 722 1222 733 1257 q 688 1148 711 1188 q 626 1079 664 1108 q 535 1050 589 1050 z "},"F":{"ha":782,"x_min":85,"x_max":761,"o":"m 85 0 l 85 986 l 761 986 l 761 750 l 356 750 l 356 586 l 686 586 l 686 367 l 356 367 l 356 0 l 85 0 z "},"G":{"ha":1026,"x_min":32,"x_max":978,"o":"m 511 -7 q 328 27 415 -7 q 175 127 242 61 q 70 287 108 193 q 32 501 32 381 q 71 694 32 606 q 178 851 110 783 q 339 956 247 918 q 538 993 431 993 q 779 935 671 993 q 940 778 888 878 l 739 624 q 651 717 710 682 q 528 753 593 753 q 439 733 479 753 q 369 679 399 714 q 323 597 339 644 q 307 492 307 549 q 324 386 307 433 q 370 305 340 339 q 442 252 400 271 q 535 233 483 233 q 660 266 600 233 q 768 358 719 299 l 768 94 q 511 -7 657 -7 m 754 331 l 572 331 l 572 525 l 978 525 l 978 0 l 754 0 l 754 331 z "},"Ğ":{"ha":1026,"x_min":32,"x_max":978,"o":"m 511 -7 q 328 27 415 -7 q 175 127 242 61 q 70 287 108 193 q 32 501 32 381 q 71 694 32 606 q 178 851 110 783 q 339 956 247 918 q 538 993 431 993 q 779 935 671 993 q 940 778 888 878 l 739 624 q 651 717 710 682 q 528 753 593 753 q 439 733 479 753 q 369 679 399 714 q 323 597 339 644 q 307 492 307 549 q 324 386 307 433 q 370 305 340 339 q 442 252 400 271 q 535 233 483 233 q 660 266 600 233 q 768 358 719 299 l 768 94 q 511 -7 657 -7 m 754 331 l 572 331 l 572 525 l 978 525 l 978 0 l 754 0 l 754 331 m 538 1157 q 594 1189 569 1157 q 622 1269 618 1221 l 758 1269 q 697 1108 758 1171 q 538 1044 636 1044 q 378 1108 440 1044 q 317 1269 317 1171 l 453 1269 q 478 1190 453 1224 q 538 1157 503 1157 z "},"Ǧ":{"ha":1026,"x_min":32,"x_max":978,"o":"m 511 -7 q 328 27 415 -7 q 175 127 242 61 q 70 287 108 193 q 32 501 32 381 q 71 694 32 606 q 178 851 110 783 q 339 956 247 918 q 538 993 431 993 q 779 935 671 993 q 940 778 888 878 l 739 624 q 651 717 710 682 q 528 753 593 753 q 439 733 479 753 q 369 679 399 714 q 323 597 339 644 q 307 492 307 549 q 324 386 307 433 q 370 305 340 339 q 442 252 400 271 q 535 233 483 233 q 660 266 600 233 q 768 358 719 299 l 768 94 q 511 -7 657 -7 m 754 331 l 572 331 l 572 525 l 978 525 l 978 0 l 754 0 l 754 331 m 419 1269 l 538 1182 l 656 1269 l 789 1211 l 632 1051 l 443 1051 l 286 1211 l 419 1269 z "},"Ĝ":{"ha":1026,"x_min":32,"x_max":978,"o":"m 511 -7 q 328 27 415 -7 q 175 127 242 61 q 70 287 108 193 q 32 501 32 381 q 71 694 32 606 q 178 851 110 783 q 339 956 247 918 q 538 993 431 993 q 779 935 671 993 q 940 778 888 878 l 739 624 q 651 717 710 682 q 528 753 593 753 q 439 733 479 753 q 369 679 399 714 q 323 597 339 644 q 307 492 307 549 q 324 386 307 433 q 370 305 340 339 q 442 252 400 271 q 535 233 483 233 q 660 266 600 233 q 768 358 719 299 l 768 94 q 511 -7 657 -7 m 754 331 l 572 331 l 572 525 l 978 525 l 978 0 l 754 0 l 754 331 m 286 1110 l 443 1269 l 632 1269 l 789 1110 l 656 1051 l 538 1139 l 419 1051 l 286 1110 z "},"Ģ":{"ha":1026,"x_min":32,"x_max":978,"o":"m 511 -7 q 328 27 415 -7 q 175 127 242 61 q 70 287 108 193 q 32 501 32 381 q 71 694 32 606 q 178 851 110 783 q 339 956 247 918 q 538 993 431 993 q 779 935 671 993 q 940 778 888 878 l 739 624 q 651 717 710 682 q 528 753 593 753 q 439 733 479 753 q 369 679 399 714 q 323 597 339 644 q 307 492 307 549 q 324 386 307 433 q 370 305 340 339 q 442 252 400 271 q 535 233 483 233 q 660 266 600 233 q 768 358 719 299 l 768 94 q 511 -7 657 -7 m 754 331 l 572 331 l 572 525 l 978 525 l 978 0 l 754 0 l 754 331 m 426 -296 l 476 -211 l 397 -211 l 397 -64 l 615 -64 l 615 -211 l 540 -296 l 426 -296 z "},"Ġ":{"ha":1026,"x_min":32,"x_max":978,"o":"m 511 -7 q 328 27 415 -7 q 175 127 242 61 q 70 287 108 193 q 32 501 32 381 q 71 694 32 606 q 178 851 110 783 q 339 956 247 918 q 538 993 431 993 q 779 935 671 993 q 940 778 888 878 l 739 624 q 651 717 710 682 q 528 753 593 753 q 439 733 479 753 q 369 679 399 714 q 323 597 339 644 q 307 492 307 549 q 324 386 307 433 q 370 305 340 339 q 442 252 400 271 q 535 233 483 233 q 660 266 600 233 q 768 358 719 299 l 768 94 q 511 -7 657 -7 m 754 331 l 572 331 l 572 525 l 978 525 l 978 0 l 754 0 l 754 331 m 419 1061 l 419 1269 l 656 1269 l 656 1061 l 419 1061 z "},"Ḡ":{"ha":1026,"x_min":32,"x_max":978,"o":"m 511 -7 q 328 27 415 -7 q 175 127 242 61 q 70 287 108 193 q 32 501 32 381 q 71 694 32 606 q 178 851 110 783 q 339 956 247 918 q 538 993 431 993 q 779 935 671 993 q 940 778 888 878 l 739 624 q 651 717 710 682 q 528 753 593 753 q 439 733 479 753 q 369 679 399 714 q 323 597 339 644 q 307 492 307 549 q 324 386 307 433 q 370 305 340 339 q 442 252 400 271 q 535 233 483 233 q 660 266 600 233 q 768 358 719 299 l 768 94 q 511 -7 657 -7 m 754 331 l 572 331 l 572 525 l 978 525 l 978 0 l 754 0 l 754 331 m 324 1099 l 324 1256 l 754 1256 l 754 1099 l 324 1099 z "},"H":{"ha":1042,"x_min":85,"x_max":957,"o":"m 957 986 l 957 0 l 686 0 l 686 386 l 356 386 l 356 0 l 85 0 l 85 986 l 356 986 l 356 622 l 686 622 l 686 986 l 957 986 z "},"Ħ":{"ha":1050,"x_min":19,"x_max":1031,"o":"m 19 747 l 19 869 l 1031 869 l 1031 747 l 19 747 m 961 986 l 961 0 l 690 0 l 690 386 l 360 386 l 360 0 l 89 0 l 89 986 l 360 986 l 360 622 l 690 622 l 690 986 l 961 986 z "},"Ḫ":{"ha":1042,"x_min":85,"x_max":957,"o":"m 957 986 l 957 0 l 686 0 l 686 386 l 356 386 l 356 0 l 85 0 l 85 986 l 356 986 l 356 622 l 686 622 l 686 986 l 957 986 m 521 -183 q 577 -151 553 -183 q 606 -71 601 -119 l 742 -71 q 681 -233 742 -169 q 521 -296 619 -296 q 362 -233 424 -296 q 300 -71 300 -169 l 436 -71 q 461 -150 436 -117 q 521 -183 486 -183 z "},"Ĥ":{"ha":1042,"x_min":85,"x_max":957,"o":"m 957 986 l 957 0 l 686 0 l 686 386 l 356 386 l 356 0 l 85 0 l 85 986 l 356 986 l 356 622 l 686 622 l 686 986 l 957 986 m 274 1108 l 431 1268 l 619 1268 l 776 1108 l 643 1050 l 525 1138 l 407 1050 l 274 1108 z "},"Ḥ":{"ha":1042,"x_min":85,"x_max":957,"o":"m 957 986 l 957 0 l 686 0 l 686 386 l 356 386 l 356 0 l 85 0 l 85 986 l 356 986 l 356 622 l 686 622 l 686 986 l 957 986 m 403 -297 l 403 -89 l 639 -89 l 639 -297 l 403 -297 z "},"I":{"ha":440,"x_min":85,"x_max":356,"o":"m 85 0 l 85 986 l 356 986 l 356 0 l 85 0 z "},"Í":{"ha":440,"x_min":85,"x_max":440,"o":"m 85 0 l 85 986 l 356 986 l 356 0 l 85 0 m 303 1028 l 136 1072 l 206 1269 l 440 1269 l 303 1028 z "},"Ĭ":{"ha":440,"x_min":-1,"x_max":440,"o":"m 85 0 l 85 986 l 356 986 l 356 0 l 85 0 m 219 1157 q 276 1189 251 1157 q 304 1269 300 1221 l 440 1269 q 379 1108 440 1171 q 219 1044 318 1044 q 60 1108 122 1044 q -1 1269 -1 1171 l 135 1269 q 160 1190 135 1224 q 219 1157 185 1157 z "},"Î":{"ha":440,"x_min":-32,"x_max":471,"o":"m 85 0 l 85 986 l 356 986 l 356 0 l 85 0 m -32 1110 l 125 1269 l 314 1269 l 471 1110 l 338 1051 l 219 1139 l 101 1051 l -32 1110 z "},"Ȉ":{"ha":440,"x_min":-82,"x_max":431,"o":"m 85 0 l 85 986 l 356 986 l 356 0 l 85 0 m 182 1271 l 375 1271 l 431 1074 l 306 1029 l 182 1271 m -82 1271 l 111 1271 l 167 1074 l 42 1029 l -82 1271 z "},"Ï":{"ha":440,"x_min":-49,"x_max":488,"o":"m 85 0 l 85 986 l 356 986 l 356 0 l 85 0 m -49 1063 l -49 1257 l 168 1257 l 168 1063 l -49 1063 m 271 1063 l 271 1257 l 488 1257 l 488 1063 l 271 1063 z "},"Ḯ":{"ha":440,"x_min":-49,"x_max":488,"o":"m 85 0 l 85 986 l 356 986 l 356 0 l 85 0 m -49 1063 l -49 1257 l 168 1257 l 168 1063 l -49 1063 m 271 1063 l 271 1257 l 488 1257 l 488 1063 l 271 1063 m 303 1299 l 136 1343 l 206 1540 l 440 1540 l 303 1299 z "},"İ":{"ha":440,"x_min":85,"x_max":356,"o":"m 85 0 l 85 986 l 356 986 l 356 0 l 85 0 m 101 1061 l 101 1269 l 338 1269 l 338 1061 l 101 1061 z "},"Ị":{"ha":440,"x_min":85,"x_max":356,"o":"m 85 0 l 85 986 l 356 986 l 356 0 l 85 0 m 101 -297 l 101 -89 l 338 -89 l 338 -297 l 101 -297 z "},"Ì":{"ha":440,"x_min":11,"x_max":356,"o":"m 85 0 l 85 986 l 356 986 l 356 0 l 85 0 m 11 1269 l 246 1269 l 315 1072 l 149 1028 l 11 1269 z "},"Ỉ":{"ha":440,"x_min":71,"x_max":368,"o":"m 85 0 l 85 986 l 356 986 l 356 0 l 85 0 m 142 1194 l 71 1264 q 153 1327 114 1308 q 232 1346 192 1346 q 331 1314 293 1346 q 368 1229 368 1282 q 343 1138 368 1174 q 265 1058 318 1101 l 203 1124 q 240 1156 226 1139 q 253 1190 253 1172 q 242 1220 253 1208 q 211 1232 231 1232 q 177 1222 192 1232 q 142 1194 163 1213 z "},"Ȋ":{"ha":440,"x_min":-1,"x_max":440,"o":"m 85 0 l 85 986 l 356 986 l 356 0 l 85 0 m 219 1157 q 160 1124 185 1157 q 135 1044 135 1090 l -1 1044 q 60 1206 -1 1143 q 219 1269 122 1269 q 379 1206 318 1269 q 440 1044 440 1143 l 304 1044 q 276 1125 300 1093 q 219 1157 251 1157 z "},"Ī":{"ha":440,"x_min":6,"x_max":436,"o":"m 85 0 l 85 986 l 356 986 l 356 0 l 85 0 m 6 1099 l 6 1256 l 436 1256 l 436 1099 l 6 1099 z "},"Į":{"ha":440,"x_min":85,"x_max":356,"o":"m 85 0 l 85 986 l 356 986 l 356 0 l 85 0 m 93 -160 q 133 -58 93 -110 q 250 33 172 -6 l 338 33 l 356 0 q 282 -56 308 -28 q 256 -108 256 -85 q 279 -145 256 -131 q 353 -160 303 -160 l 304 -299 q 186 -270 233 -290 q 116 -221 139 -250 q 93 -160 93 -192 z "},"Ĩ":{"ha":440,"x_min":-75,"x_max":514,"o":"m 85 0 l 85 986 l 356 986 l 356 0 l 85 0 m 315 1050 q 243 1067 274 1050 q 187 1100 213 1083 q 129 1117 161 1117 q 85 1101 99 1117 q 68 1068 71 1085 q 65 1050 65 1051 l -75 1050 q -65 1104 -75 1068 q -31 1178 -54 1140 q 30 1243 -7 1217 q 118 1269 67 1269 q 193 1251 164 1269 q 248 1216 222 1233 q 306 1199 274 1199 q 351 1215 336 1199 q 370 1250 365 1232 q 375 1269 375 1268 l 514 1269 q 503 1222 514 1257 q 468 1148 492 1188 q 407 1079 444 1108 q 315 1050 369 1050 z "},"J":{"ha":692,"x_min":1,"x_max":618,"o":"m 58 267 q 111 243 67 261 q 215 225 156 225 q 285 240 258 225 q 324 285 311 254 q 342 365 338 315 q 347 485 347 414 l 347 986 l 618 986 l 618 485 q 605 281 618 372 q 551 122 592 189 q 431 20 511 56 q 215 -15 350 -15 q 99 0 151 -15 q 1 46 46 15 l 58 267 z "},"Ĵ":{"ha":692,"x_min":1,"x_max":738,"o":"m 58 267 q 111 243 67 261 q 215 225 156 225 q 285 240 258 225 q 324 285 311 254 q 342 365 338 315 q 347 485 347 414 l 347 986 l 618 986 l 618 485 q 605 281 618 372 q 551 122 592 189 q 431 20 511 56 q 215 -15 350 -15 q 99 0 151 -15 q 1 46 46 15 l 58 267 m 235 1110 l 392 1269 l 581 1269 l 738 1110 l 604 1051 l 486 1139 l 368 1051 l 235 1110 z "},"K":{"ha":958,"x_min":85,"x_max":986,"o":"m 85 0 l 85 986 l 356 986 l 356 611 l 656 986 l 961 986 l 603 544 l 986 0 l 675 0 l 431 363 l 356 285 l 356 0 l 85 0 z "},"Ķ":{"ha":958,"x_min":85,"x_max":986,"o":"m 85 0 l 85 986 l 356 986 l 356 611 l 656 986 l 961 986 l 603 544 l 986 0 l 675 0 l 431 363 l 356 285 l 356 0 l 85 0 m 429 -296 l 479 -211 l 400 -211 l 400 -64 l 618 -64 l 618 -211 l 543 -296 l 429 -296 z "},"L":{"ha":813,"x_min":85,"x_max":803,"o":"m 85 0 l 85 986 l 356 986 l 356 236 l 803 236 l 803 0 l 85 0 z "},"Ĺ":{"ha":813,"x_min":85,"x_max":803,"o":"m 85 0 l 85 986 l 356 986 l 356 236 l 803 236 l 803 0 l 85 0 m 307 1028 l 140 1072 l 210 1269 l 444 1269 l 307 1028 z "},"Ľ":{"ha":813,"x_min":85,"x_max":803,"o":"m 85 0 l 85 986 l 356 986 l 356 236 l 803 236 l 803 0 l 85 0 m 646 772 l 479 817 l 549 1014 l 783 1014 l 646 772 z "},"Ļ":{"ha":813,"x_min":85,"x_max":803,"o":"m 85 0 l 85 986 l 356 986 l 356 236 l 803 236 l 803 0 l 85 0 m 383 -296 l 433 -211 l 354 -211 l 354 -64 l 572 -64 l 572 -211 l 497 -296 l 383 -296 z "},"Ŀ":{"ha":813,"x_min":85,"x_max":803,"o":"m 85 0 l 85 986 l 356 986 l 356 236 l 803 236 l 803 0 l 85 0 m 506 440 l 506 696 l 719 696 l 719 440 l 506 440 z "},"Ḷ":{"ha":813,"x_min":85,"x_max":803,"o":"m 85 0 l 85 986 l 356 986 l 356 236 l 803 236 l 803 0 l 85 0 m 350 -297 l 350 -89 l 586 -89 l 586 -297 l 350 -297 z "},"Ḻ":{"ha":813,"x_min":85,"x_max":803,"o":"m 85 0 l 85 986 l 356 986 l 356 236 l 803 236 l 803 0 l 85 0 m 253 -260 l 253 -103 l 683 -103 l 683 -260 l 253 -260 z "},"Ł":{"ha":829,"x_min":-24,"x_max":819,"o":"m 36 350 l -24 490 l 471 732 l 531 592 l 36 350 m 101 0 l 101 986 l 372 986 l 372 236 l 819 236 l 819 0 l 101 0 z "},"M":{"ha":1186,"x_min":85,"x_max":1101,"o":"m 831 0 l 831 519 l 665 154 l 521 154 l 356 519 l 356 0 l 85 0 l 85 986 l 381 986 l 593 522 l 807 986 l 1101 986 l 1101 0 l 831 0 z "},"Ṃ":{"ha":1186,"x_min":85,"x_max":1101,"o":"m 831 0 l 831 519 l 665 154 l 521 154 l 356 519 l 356 0 l 85 0 l 85 986 l 381 986 l 593 522 l 807 986 l 1101 986 l 1101 0 l 831 0 m 475 -297 l 475 -89 l 711 -89 l 711 -297 l 475 -297 z "},"N":{"ha":1047,"x_min":85,"x_max":963,"o":"m 356 485 l 356 0 l 85 0 l 85 986 l 296 986 l 692 485 l 692 986 l 963 986 l 963 0 l 747 0 l 356 485 z "},"Ń":{"ha":1047,"x_min":85,"x_max":963,"o":"m 356 485 l 356 0 l 85 0 l 85 986 l 296 986 l 692 485 l 692 986 l 963 986 l 963 0 l 747 0 l 356 485 m 603 1026 l 436 1071 l 506 1268 l 740 1268 l 603 1026 z "},"Ň":{"ha":1047,"x_min":85,"x_max":963,"o":"m 356 485 l 356 0 l 85 0 l 85 986 l 296 986 l 692 485 l 692 986 l 963 986 l 963 0 l 747 0 l 356 485 m 401 1268 l 519 1181 l 638 1268 l 771 1210 l 614 1050 l 425 1050 l 268 1210 l 401 1268 z "},"Ņ":{"ha":1047,"x_min":85,"x_max":963,"o":"m 356 485 l 356 0 l 85 0 l 85 986 l 296 986 l 692 485 l 692 986 l 963 986 l 963 0 l 747 0 l 356 485 m 435 -296 l 485 -211 l 406 -211 l 406 -64 l 624 -64 l 624 -211 l 549 -296 l 435 -296 z "},"Ṅ":{"ha":1047,"x_min":85,"x_max":963,"o":"m 356 485 l 356 0 l 85 0 l 85 986 l 296 986 l 692 485 l 692 986 l 963 986 l 963 0 l 747 0 l 356 485 m 401 1060 l 401 1268 l 638 1268 l 638 1060 l 401 1060 z "},"Ṇ":{"ha":1047,"x_min":85,"x_max":963,"o":"m 356 485 l 356 0 l 85 0 l 85 986 l 296 986 l 692 485 l 692 986 l 963 986 l 963 0 l 747 0 l 356 485 m 401 -297 l 401 -89 l 638 -89 l 638 -297 l 401 -297 z "},"Ŋ":{"ha":1021,"x_min":85,"x_max":935,"o":"m 356 476 l 356 0 l 85 0 l 85 986 l 293 986 l 664 499 l 664 985 l 935 985 l 935 7 q 897 -150 935 -83 q 795 -253 860 -217 q 649 -290 731 -290 q 538 -271 592 -290 q 442 -215 485 -251 l 550 -36 q 579 -56 561 -49 q 615 -64 597 -64 q 645 -57 633 -64 q 664 -36 657 -50 q 671 -4 671 -22 l 671 61 l 356 476 z "},"Ṉ":{"ha":1047,"x_min":85,"x_max":963,"o":"m 356 485 l 356 0 l 85 0 l 85 986 l 296 986 l 692 485 l 692 986 l 963 986 l 963 0 l 747 0 l 356 485 m 304 -260 l 304 -103 l 735 -103 l 735 -260 l 304 -260 z "},"Ñ":{"ha":1047,"x_min":85,"x_max":963,"o":"m 356 485 l 356 0 l 85 0 l 85 986 l 296 986 l 692 485 l 692 986 l 963 986 l 963 0 l 747 0 l 356 485 m 615 1049 q 543 1065 574 1049 q 487 1099 513 1082 q 429 1115 461 1115 q 385 1099 399 1115 q 368 1067 371 1083 q 365 1049 365 1050 l 225 1049 q 235 1103 225 1067 q 269 1177 246 1139 q 330 1242 293 1215 q 418 1268 367 1268 q 493 1250 464 1268 q 548 1215 522 1232 q 606 1197 574 1197 q 651 1214 636 1197 q 670 1249 665 1231 q 675 1268 675 1267 l 814 1268 q 803 1221 814 1256 q 768 1147 792 1186 q 707 1078 744 1107 q 615 1049 669 1049 z "},"O":{"ha":1063,"x_min":31,"x_max":1032,"o":"m 529 -8 q 325 34 417 -8 q 167 148 233 76 q 66 309 101 219 q 31 494 31 399 q 68 682 31 593 q 173 841 106 771 q 333 951 240 911 q 535 992 425 992 q 739 949 647 992 q 896 835 831 907 q 997 673 961 763 q 1032 489 1032 583 q 995 303 1032 392 q 891 144 958 214 q 732 33 824 74 q 529 -8 640 -8 m 306 492 q 319 395 306 442 q 361 312 333 349 q 431 253 389 275 q 532 232 474 232 q 633 254 590 232 q 703 315 676 276 q 744 399 731 353 q 757 494 757 446 q 743 590 757 544 q 701 673 729 636 q 631 731 674 710 q 531 751 588 751 q 430 729 472 751 q 360 670 388 707 q 319 587 332 633 q 306 492 306 540 z "},"Ó":{"ha":1063,"x_min":31,"x_max":1032,"o":"m 529 -8 q 325 34 417 -8 q 167 148 233 76 q 66 309 101 219 q 31 494 31 399 q 68 682 31 593 q 173 841 106 771 q 333 951 240 911 q 535 992 425 992 q 739 949 647 992 q 896 835 831 907 q 997 673 961 763 q 1032 489 1032 583 q 995 303 1032 392 q 891 144 958 214 q 732 33 824 74 q 529 -8 640 -8 m 306 492 q 319 395 306 442 q 361 312 333 349 q 431 253 389 275 q 532 232 474 232 q 633 254 590 232 q 703 315 676 276 q 744 399 731 353 q 757 494 757 446 q 743 590 757 544 q 701 673 729 636 q 631 731 674 710 q 531 751 588 751 q 430 729 472 751 q 360 670 388 707 q 319 587 332 633 q 306 492 306 540 m 618 1028 l 451 1072 l 521 1269 l 756 1269 l 618 1028 z "},"Ŏ":{"ha":1063,"x_min":31,"x_max":1032,"o":"m 529 -8 q 325 34 417 -8 q 167 148 233 76 q 66 309 101 219 q 31 494 31 399 q 68 682 31 593 q 173 841 106 771 q 333 951 240 911 q 535 992 425 992 q 739 949 647 992 q 896 835 831 907 q 997 673 961 763 q 1032 489 1032 583 q 995 303 1032 392 q 891 144 958 214 q 732 33 824 74 q 529 -8 640 -8 m 306 492 q 319 395 306 442 q 361 312 333 349 q 431 253 389 275 q 532 232 474 232 q 633 254 590 232 q 703 315 676 276 q 744 399 731 353 q 757 494 757 446 q 743 590 757 544 q 701 673 729 636 q 631 731 674 710 q 531 751 588 751 q 430 729 472 751 q 360 670 388 707 q 319 587 332 633 q 306 492 306 540 m 535 1157 q 591 1189 567 1157 q 619 1269 615 1221 l 756 1269 q 694 1108 756 1171 q 535 1044 633 1044 q 376 1108 438 1044 q 314 1269 314 1171 l 450 1269 q 475 1190 450 1224 q 535 1157 500 1157 z "},"Ô":{"ha":1063,"x_min":31,"x_max":1032,"o":"m 529 -8 q 325 34 417 -8 q 167 148 233 76 q 66 309 101 219 q 31 494 31 399 q 68 682 31 593 q 173 841 106 771 q 333 951 240 911 q 535 992 425 992 q 739 949 647 992 q 896 835 831 907 q 997 673 961 763 q 1032 489 1032 583 q 995 303 1032 392 q 891 144 958 214 q 732 33 824 74 q 529 -8 640 -8 m 306 492 q 319 395 306 442 q 361 312 333 349 q 431 253 389 275 q 532 232 474 232 q 633 254 590 232 q 703 315 676 276 q 744 399 731 353 q 757 494 757 446 q 743 590 757 544 q 701 673 729 636 q 631 731 674 710 q 531 751 588 751 q 430 729 472 751 q 360 670 388 707 q 319 587 332 633 q 306 492 306 540 m 283 1110 l 440 1269 l 629 1269 l 786 1110 l 653 1051 l 535 1139 l 417 1051 l 283 1110 z "},"Ố":{"ha":1063,"x_min":31,"x_max":1032,"o":"m 529 -8 q 325 34 417 -8 q 167 148 233 76 q 66 309 101 219 q 31 494 31 399 q 68 682 31 593 q 173 841 106 771 q 333 951 240 911 q 535 992 425 992 q 739 949 647 992 q 896 835 831 907 q 997 673 961 763 q 1032 489 1032 583 q 995 303 1032 392 q 891 144 958 214 q 732 33 824 74 q 529 -8 640 -8 m 306 492 q 319 395 306 442 q 361 312 333 349 q 431 253 389 275 q 532 232 474 232 q 633 254 590 232 q 703 315 676 276 q 744 399 731 353 q 757 494 757 446 q 743 590 757 544 q 701 673 729 636 q 631 731 674 710 q 531 751 588 751 q 430 729 472 751 q 360 670 388 707 q 319 587 332 633 q 306 492 306 540 z "},"Ộ":{"ha":1063,"x_min":31,"x_max":1032,"o":"m 529 -8 q 325 34 417 -8 q 167 148 233 76 q 66 309 101 219 q 31 494 31 399 q 68 682 31 593 q 173 841 106 771 q 333 951 240 911 q 535 992 425 992 q 739 949 647 992 q 896 835 831 907 q 997 673 961 763 q 1032 489 1032 583 q 995 303 1032 392 q 891 144 958 214 q 732 33 824 74 q 529 -8 640 -8 m 306 492 q 319 395 306 442 q 361 312 333 349 q 431 253 389 275 q 532 232 474 232 q 633 254 590 232 q 703 315 676 276 q 744 399 731 353 q 757 494 757 446 q 743 590 757 544 q 701 673 729 636 q 631 731 674 710 q 531 751 588 751 q 430 729 472 751 q 360 670 388 707 q 319 587 332 633 q 306 492 306 540 m 411 -297 l 411 -89 l 647 -89 l 647 -297 l 411 -297 m 283 1110 l 440 1269 l 629 1269 l 786 1110 l 653 1051 l 535 1139 l 417 1051 l 283 1110 z "},"Ồ":{"ha":1063,"x_min":31,"x_max":1032,"o":"m 529 -8 q 325 34 417 -8 q 167 148 233 76 q 66 309 101 219 q 31 494 31 399 q 68 682 31 593 q 173 841 106 771 q 333 951 240 911 q 535 992 425 992 q 739 949 647 992 q 896 835 831 907 q 997 673 961 763 q 1032 489 1032 583 q 995 303 1032 392 q 891 144 958 214 q 732 33 824 74 q 529 -8 640 -8 m 306 492 q 319 395 306 442 q 361 312 333 349 q 431 253 389 275 q 532 232 474 232 q 633 254 590 232 q 703 315 676 276 q 744 399 731 353 q 757 494 757 446 q 743 590 757 544 q 701 673 729 636 q 631 731 674 710 q 531 751 588 751 q 430 729 472 751 q 360 670 388 707 q 319 587 332 633 q 306 492 306 540 z "},"Ổ":{"ha":1063,"x_min":31,"x_max":1032,"o":"m 529 -8 q 325 34 417 -8 q 167 148 233 76 q 66 309 101 219 q 31 494 31 399 q 68 682 31 593 q 173 841 106 771 q 333 951 240 911 q 535 992 425 992 q 739 949 647 992 q 896 835 831 907 q 997 673 961 763 q 1032 489 1032 583 q 995 303 1032 392 q 891 144 958 214 q 732 33 824 74 q 529 -8 640 -8 m 306 492 q 319 395 306 442 q 361 312 333 349 q 431 253 389 275 q 532 232 474 232 q 633 254 590 232 q 703 315 676 276 q 744 399 731 353 q 757 494 757 446 q 743 590 757 544 q 701 673 729 636 q 631 731 674 710 q 531 751 588 751 q 430 729 472 751 q 360 670 388 707 q 319 587 332 633 q 306 492 306 540 z "},"Ỗ":{"ha":1063,"x_min":31,"x_max":1032,"o":"m 529 -8 q 325 34 417 -8 q 167 148 233 76 q 66 309 101 219 q 31 494 31 399 q 68 682 31 593 q 173 841 106 771 q 333 951 240 911 q 535 992 425 992 q 739 949 647 992 q 896 835 831 907 q 997 673 961 763 q 1032 489 1032 583 q 995 303 1032 392 q 891 144 958 214 q 732 33 824 74 q 529 -8 640 -8 m 306 492 q 319 395 306 442 q 361 312 333 349 q 431 253 389 275 q 532 232 474 232 q 633 254 590 232 q 703 315 676 276 q 744 399 731 353 q 757 494 757 446 q 743 590 757 544 q 701 673 729 636 q 631 731 674 710 q 531 751 588 751 q 430 729 472 751 q 360 670 388 707 q 319 587 332 633 q 306 492 306 540 z "},"Ȍ":{"ha":1063,"x_min":31,"x_max":1032,"o":"m 529 -8 q 325 34 417 -8 q 167 148 233 76 q 66 309 101 219 q 31 494 31 399 q 68 682 31 593 q 173 841 106 771 q 333 951 240 911 q 535 992 425 992 q 739 949 647 992 q 896 835 831 907 q 997 673 961 763 q 1032 489 1032 583 q 995 303 1032 392 q 891 144 958 214 q 732 33 824 74 q 529 -8 640 -8 m 306 492 q 319 395 306 442 q 361 312 333 349 q 431 253 389 275 q 532 232 474 232 q 633 254 590 232 q 703 315 676 276 q 744 399 731 353 q 757 494 757 446 q 743 590 757 544 q 701 673 729 636 q 631 731 674 710 q 531 751 588 751 q 430 729 472 751 q 360 670 388 707 q 319 587 332 633 q 306 492 306 540 m 497 1271 l 690 1271 l 746 1074 l 621 1029 l 497 1271 m 233 1271 l 426 1271 l 482 1074 l 357 1029 l 233 1271 z "},"Ö":{"ha":1063,"x_min":31,"x_max":1032,"o":"m 529 -8 q 325 34 417 -8 q 167 148 233 76 q 66 309 101 219 q 31 494 31 399 q 68 682 31 593 q 173 841 106 771 q 333 951 240 911 q 535 992 425 992 q 739 949 647 992 q 896 835 831 907 q 997 673 961 763 q 1032 489 1032 583 q 995 303 1032 392 q 891 144 958 214 q 732 33 824 74 q 529 -8 640 -8 m 306 492 q 319 395 306 442 q 361 312 333 349 q 431 253 389 275 q 532 232 474 232 q 633 254 590 232 q 703 315 676 276 q 744 399 731 353 q 757 494 757 446 q 743 590 757 544 q 701 673 729 636 q 631 731 674 710 q 531 751 588 751 q 430 729 472 751 q 360 670 388 707 q 319 587 332 633 q 306 492 306 540 m 267 1063 l 267 1257 l 483 1257 l 483 1063 l 267 1063 m 586 1063 l 586 1257 l 803 1257 l 803 1063 l 586 1063 z "},"Ȫ":{"ha":1063,"x_min":31,"x_max":1032,"o":"m 529 -8 q 325 34 417 -8 q 167 148 233 76 q 66 309 101 219 q 31 494 31 399 q 68 682 31 593 q 173 841 106 771 q 333 951 240 911 q 535 992 425 992 q 739 949 647 992 q 896 835 831 907 q 997 673 961 763 q 1032 489 1032 583 q 995 303 1032 392 q 891 144 958 214 q 732 33 824 74 q 529 -8 640 -8 m 306 492 q 319 395 306 442 q 361 312 333 349 q 431 253 389 275 q 532 232 474 232 q 633 254 590 232 q 703 315 676 276 q 744 399 731 353 q 757 494 757 446 q 743 590 757 544 q 701 673 729 636 q 631 731 674 710 q 531 751 588 751 q 430 729 472 751 q 360 670 388 707 q 319 587 332 633 q 306 492 306 540 m 267 1063 l 267 1257 l 483 1257 l 483 1063 l 267 1063 m 586 1063 l 586 1257 l 803 1257 l 803 1063 l 586 1063 m 321 1369 l 321 1526 l 751 1526 l 751 1369 l 321 1369 z "},"Ȱ":{"ha":1063,"x_min":31,"x_max":1032,"o":"m 529 -8 q 325 34 417 -8 q 167 148 233 76 q 66 309 101 219 q 31 494 31 399 q 68 682 31 593 q 173 841 106 771 q 333 951 240 911 q 535 992 425 992 q 739 949 647 992 q 896 835 831 907 q 997 673 961 763 q 1032 489 1032 583 q 995 303 1032 392 q 891 144 958 214 q 732 33 824 74 q 529 -8 640 -8 m 306 492 q 319 395 306 442 q 361 312 333 349 q 431 253 389 275 q 532 232 474 232 q 633 254 590 232 q 703 315 676 276 q 744 399 731 353 q 757 494 757 446 q 743 590 757 544 q 701 673 729 636 q 631 731 674 710 q 531 751 588 751 q 430 729 472 751 q 360 670 388 707 q 319 587 332 633 q 306 492 306 540 m 417 1061 l 417 1269 l 653 1269 l 653 1061 l 417 1061 m 321 1382 l 321 1539 l 751 1539 l 751 1382 l 321 1382 z "},"Ọ":{"ha":1063,"x_min":31,"x_max":1032,"o":"m 529 -8 q 325 34 417 -8 q 167 148 233 76 q 66 309 101 219 q 31 494 31 399 q 68 682 31 593 q 173 841 106 771 q 333 951 240 911 q 535 992 425 992 q 739 949 647 992 q 896 835 831 907 q 997 673 961 763 q 1032 489 1032 583 q 995 303 1032 392 q 891 144 958 214 q 732 33 824 74 q 529 -8 640 -8 m 306 492 q 319 395 306 442 q 361 312 333 349 q 431 253 389 275 q 532 232 474 232 q 633 254 590 232 q 703 315 676 276 q 744 399 731 353 q 757 494 757 446 q 743 590 757 544 q 701 673 729 636 q 631 731 674 710 q 531 751 588 751 q 430 729 472 751 q 360 670 388 707 q 319 587 332 633 q 306 492 306 540 m 411 -297 l 411 -89 l 647 -89 l 647 -297 l 411 -297 z "},"Ò":{"ha":1063,"x_min":31,"x_max":1032,"o":"m 529 -8 q 325 34 417 -8 q 167 148 233 76 q 66 309 101 219 q 31 494 31 399 q 68 682 31 593 q 173 841 106 771 q 333 951 240 911 q 535 992 425 992 q 739 949 647 992 q 896 835 831 907 q 997 673 961 763 q 1032 489 1032 583 q 995 303 1032 392 q 891 144 958 214 q 732 33 824 74 q 529 -8 640 -8 m 306 492 q 319 395 306 442 q 361 312 333 349 q 431 253 389 275 q 532 232 474 232 q 633 254 590 232 q 703 315 676 276 q 744 399 731 353 q 757 494 757 446 q 743 590 757 544 q 701 673 729 636 q 631 731 674 710 q 531 751 588 751 q 430 729 472 751 q 360 670 388 707 q 319 587 332 633 q 306 492 306 540 m 326 1269 l 561 1269 l 631 1072 l 464 1028 l 326 1269 z "},"Ỏ":{"ha":1063,"x_min":31,"x_max":1032,"o":"m 529 -8 q 325 34 417 -8 q 167 148 233 76 q 66 309 101 219 q 31 494 31 399 q 68 682 31 593 q 173 841 106 771 q 333 951 240 911 q 535 992 425 992 q 739 949 647 992 q 896 835 831 907 q 997 673 961 763 q 1032 489 1032 583 q 995 303 1032 392 q 891 144 958 214 q 732 33 824 74 q 529 -8 640 -8 m 306 492 q 319 395 306 442 q 361 312 333 349 q 431 253 389 275 q 532 232 474 232 q 633 254 590 232 q 703 315 676 276 q 744 399 731 353 q 757 494 757 446 q 743 590 757 544 q 701 673 729 636 q 631 731 674 710 q 531 751 588 751 q 430 729 472 751 q 360 670 388 707 q 319 587 332 633 q 306 492 306 540 m 457 1194 l 386 1264 q 468 1327 429 1308 q 547 1346 507 1346 q 646 1314 608 1346 q 683 1229 683 1282 q 658 1138 683 1174 q 581 1058 633 1101 l 518 1124 q 555 1156 542 1139 q 568 1190 568 1172 q 557 1220 568 1208 q 526 1232 546 1232 q 492 1222 507 1232 q 457 1194 478 1213 z "},"Ơ":{"ha":1063,"x_min":31,"x_max":1032,"o":"m 529 -8 q 325 34 417 -8 q 167 148 233 76 q 66 309 101 219 q 31 494 31 399 q 68 682 31 593 q 173 841 106 771 q 333 951 240 911 q 535 992 425 992 q 739 949 647 992 q 896 835 831 907 q 997 673 961 763 q 1032 489 1032 583 q 995 303 1032 392 q 891 144 958 214 q 732 33 824 74 q 529 -8 640 -8 m 306 492 q 319 395 306 442 q 361 312 333 349 q 431 253 389 275 q 532 232 474 232 q 633 254 590 232 q 703 315 676 276 q 744 399 731 353 q 757 494 757 446 q 743 590 757 544 q 701 673 729 636 q 631 731 674 710 q 531 751 588 751 q 430 729 472 751 q 360 670 388 707 q 319 587 332 633 q 306 492 306 540 m 613 807 l 615 985 q 699 991 664 985 q 753 1017 733 997 q 774 1063 772 1036 q 776 1115 775 1089 l 956 1115 q 953 1039 956 1079 q 935 959 950 999 q 883 885 919 919 q 816 845 860 863 q 719 817 772 828 q 613 807 667 807 z "},"Ớ":{"ha":1063,"x_min":31,"x_max":1032,"o":"m 529 -8 q 325 34 417 -8 q 167 148 233 76 q 66 309 101 219 q 31 494 31 399 q 68 682 31 593 q 173 841 106 771 q 333 951 240 911 q 535 992 425 992 q 739 949 647 992 q 896 835 831 907 q 997 673 961 763 q 1032 489 1032 583 q 995 303 1032 392 q 891 144 958 214 q 732 33 824 74 q 529 -8 640 -8 m 306 492 q 319 395 306 442 q 361 312 333 349 q 431 253 389 275 q 532 232 474 232 q 633 254 590 232 q 703 315 676 276 q 744 399 731 353 q 757 494 757 446 q 743 590 757 544 q 701 673 729 636 q 631 731 674 710 q 531 751 588 751 q 430 729 472 751 q 360 670 388 707 q 319 587 332 633 q 306 492 306 540 m 613 807 l 615 985 q 699 991 664 985 q 753 1017 733 997 q 774 1063 772 1036 q 776 1115 775 1089 l 956 1115 q 953 1039 956 1079 q 935 959 950 999 q 883 885 919 919 q 816 845 860 863 q 719 817 772 828 q 613 807 667 807 m 618 1028 l 451 1072 l 521 1269 l 756 1269 l 618 1028 z "},"Ợ":{"ha":1063,"x_min":31,"x_max":1032,"o":"m 529 -8 q 325 34 417 -8 q 167 148 233 76 q 66 309 101 219 q 31 494 31 399 q 68 682 31 593 q 173 841 106 771 q 333 951 240 911 q 535 992 425 992 q 739 949 647 992 q 896 835 831 907 q 997 673 961 763 q 1032 489 1032 583 q 995 303 1032 392 q 891 144 958 214 q 732 33 824 74 q 529 -8 640 -8 m 306 492 q 319 395 306 442 q 361 312 333 349 q 431 253 389 275 q 532 232 474 232 q 633 254 590 232 q 703 315 676 276 q 744 399 731 353 q 757 494 757 446 q 743 590 757 544 q 701 673 729 636 q 631 731 674 710 q 531 751 588 751 q 430 729 472 751 q 360 670 388 707 q 319 587 332 633 q 306 492 306 540 m 613 807 l 615 985 q 699 991 664 985 q 753 1017 733 997 q 774 1063 772 1036 q 776 1115 775 1089 l 956 1115 q 953 1039 956 1079 q 935 959 950 999 q 883 885 919 919 q 816 845 860 863 q 719 817 772 828 q 613 807 667 807 m 411 -297 l 411 -89 l 647 -89 l 647 -297 l 411 -297 z "},"Ờ":{"ha":1063,"x_min":31,"x_max":1032,"o":"m 529 -8 q 325 34 417 -8 q 167 148 233 76 q 66 309 101 219 q 31 494 31 399 q 68 682 31 593 q 173 841 106 771 q 333 951 240 911 q 535 992 425 992 q 739 949 647 992 q 896 835 831 907 q 997 673 961 763 q 1032 489 1032 583 q 995 303 1032 392 q 891 144 958 214 q 732 33 824 74 q 529 -8 640 -8 m 306 492 q 319 395 306 442 q 361 312 333 349 q 431 253 389 275 q 532 232 474 232 q 633 254 590 232 q 703 315 676 276 q 744 399 731 353 q 757 494 757 446 q 743 590 757 544 q 701 673 729 636 q 631 731 674 710 q 531 751 588 751 q 430 729 472 751 q 360 670 388 707 q 319 587 332 633 q 306 492 306 540 m 613 807 l 615 985 q 699 991 664 985 q 753 1017 733 997 q 774 1063 772 1036 q 776 1115 775 1089 l 956 1115 q 953 1039 956 1079 q 935 959 950 999 q 883 885 919 919 q 816 845 860 863 q 719 817 772 828 q 613 807 667 807 m 326 1269 l 561 1269 l 631 1072 l 464 1028 l 326 1269 z "},"Ở":{"ha":1063,"x_min":31,"x_max":1032,"o":"m 529 -8 q 325 34 417 -8 q 167 148 233 76 q 66 309 101 219 q 31 494 31 399 q 68 682 31 593 q 173 841 106 771 q 333 951 240 911 q 535 992 425 992 q 739 949 647 992 q 896 835 831 907 q 997 673 961 763 q 1032 489 1032 583 q 995 303 1032 392 q 891 144 958 214 q 732 33 824 74 q 529 -8 640 -8 m 306 492 q 319 395 306 442 q 361 312 333 349 q 431 253 389 275 q 532 232 474 232 q 633 254 590 232 q 703 315 676 276 q 744 399 731 353 q 757 494 757 446 q 743 590 757 544 q 701 673 729 636 q 631 731 674 710 q 531 751 588 751 q 430 729 472 751 q 360 670 388 707 q 319 587 332 633 q 306 492 306 540 m 613 807 l 615 985 q 699 991 664 985 q 753 1017 733 997 q 774 1063 772 1036 q 776 1115 775 1089 l 956 1115 q 953 1039 956 1079 q 935 959 950 999 q 883 885 919 919 q 816 845 860 863 q 719 817 772 828 q 613 807 667 807 m 457 1194 l 386 1264 q 468 1327 429 1308 q 547 1346 507 1346 q 646 1314 608 1346 q 683 1229 683 1282 q 658 1138 683 1174 q 581 1058 633 1101 l 518 1124 q 555 1156 542 1139 q 568 1190 568 1172 q 557 1220 568 1208 q 526 1232 546 1232 q 492 1222 507 1232 q 457 1194 478 1213 z "},"Ỡ":{"ha":1063,"x_min":31,"x_max":1032,"o":"m 529 -8 q 325 34 417 -8 q 167 148 233 76 q 66 309 101 219 q 31 494 31 399 q 68 682 31 593 q 173 841 106 771 q 333 951 240 911 q 535 992 425 992 q 739 949 647 992 q 896 835 831 907 q 997 673 961 763 q 1032 489 1032 583 q 995 303 1032 392 q 891 144 958 214 q 732 33 824 74 q 529 -8 640 -8 m 306 492 q 319 395 306 442 q 361 312 333 349 q 431 253 389 275 q 532 232 474 232 q 633 254 590 232 q 703 315 676 276 q 744 399 731 353 q 757 494 757 446 q 743 590 757 544 q 701 673 729 636 q 631 731 674 710 q 531 751 588 751 q 430 729 472 751 q 360 670 388 707 q 319 587 332 633 q 306 492 306 540 m 613 807 l 615 985 q 699 991 664 985 q 753 1017 733 997 q 774 1063 772 1036 q 776 1115 775 1089 l 956 1115 q 953 1039 956 1079 q 935 959 950 999 q 883 885 919 919 q 816 845 860 863 q 719 817 772 828 q 613 807 667 807 m 631 1050 q 558 1067 589 1050 q 502 1100 528 1083 q 444 1117 476 1117 q 400 1101 414 1117 q 383 1068 386 1085 q 381 1050 381 1051 l 240 1050 q 251 1104 240 1068 q 285 1178 261 1140 q 345 1243 308 1217 q 433 1269 382 1269 q 508 1251 479 1269 q 563 1216 538 1233 q 621 1199 589 1199 q 666 1215 651 1199 q 685 1250 681 1232 q 690 1269 690 1268 l 829 1269 q 818 1222 829 1257 q 783 1148 807 1188 q 722 1079 760 1108 q 631 1050 685 1050 z "},"Ő":{"ha":1063,"x_min":31,"x_max":1032,"o":"m 529 -8 q 325 34 417 -8 q 167 148 233 76 q 66 309 101 219 q 31 494 31 399 q 68 682 31 593 q 173 841 106 771 q 333 951 240 911 q 535 992 425 992 q 739 949 647 992 q 896 835 831 907 q 997 673 961 763 q 1032 489 1032 583 q 995 303 1032 392 q 891 144 958 214 q 732 33 824 74 q 529 -8 640 -8 m 306 492 q 319 395 306 442 q 361 312 333 349 q 431 253 389 275 q 532 232 474 232 q 633 254 590 232 q 703 315 676 276 q 744 399 731 353 q 757 494 757 446 q 743 590 757 544 q 701 673 729 636 q 631 731 674 710 q 531 751 588 751 q 430 729 472 751 q 360 670 388 707 q 319 587 332 633 q 306 492 306 540 m 447 1029 l 322 1074 l 378 1271 l 571 1271 l 447 1029 m 711 1029 l 586 1074 l 642 1271 l 835 1271 l 711 1029 z "},"Ȏ":{"ha":1063,"x_min":31,"x_max":1032,"o":"m 529 -8 q 325 34 417 -8 q 167 148 233 76 q 66 309 101 219 q 31 494 31 399 q 68 682 31 593 q 173 841 106 771 q 333 951 240 911 q 535 992 425 992 q 739 949 647 992 q 896 835 831 907 q 997 673 961 763 q 1032 489 1032 583 q 995 303 1032 392 q 891 144 958 214 q 732 33 824 74 q 529 -8 640 -8 m 306 492 q 319 395 306 442 q 361 312 333 349 q 431 253 389 275 q 532 232 474 232 q 633 254 590 232 q 703 315 676 276 q 744 399 731 353 q 757 494 757 446 q 743 590 757 544 q 701 673 729 636 q 631 731 674 710 q 531 751 588 751 q 430 729 472 751 q 360 670 388 707 q 319 587 332 633 q 306 492 306 540 m 535 1157 q 475 1124 500 1157 q 450 1044 450 1090 l 314 1044 q 376 1206 314 1143 q 535 1269 438 1269 q 694 1206 633 1269 q 756 1044 756 1143 l 619 1044 q 591 1125 615 1093 q 535 1157 567 1157 z "},"Ō":{"ha":1063,"x_min":31,"x_max":1032,"o":"m 529 -8 q 325 34 417 -8 q 167 148 233 76 q 66 309 101 219 q 31 494 31 399 q 68 682 31 593 q 173 841 106 771 q 333 951 240 911 q 535 992 425 992 q 739 949 647 992 q 896 835 831 907 q 997 673 961 763 q 1032 489 1032 583 q 995 303 1032 392 q 891 144 958 214 q 732 33 824 74 q 529 -8 640 -8 m 306 492 q 319 395 306 442 q 361 312 333 349 q 431 253 389 275 q 532 232 474 232 q 633 254 590 232 q 703 315 676 276 q 744 399 731 353 q 757 494 757 446 q 743 590 757 544 q 701 673 729 636 q 631 731 674 710 q 531 751 588 751 q 430 729 472 751 q 360 670 388 707 q 319 587 332 633 q 306 492 306 540 m 321 1099 l 321 1256 l 751 1256 l 751 1099 l 321 1099 z "},"Ṓ":{"ha":1063,"x_min":31,"x_max":1032,"o":"m 529 -8 q 325 34 417 -8 q 167 148 233 76 q 66 309 101 219 q 31 494 31 399 q 68 682 31 593 q 173 841 106 771 q 333 951 240 911 q 535 992 425 992 q 739 949 647 992 q 896 835 831 907 q 997 673 961 763 q 1032 489 1032 583 q 995 303 1032 392 q 891 144 958 214 q 732 33 824 74 q 529 -8 640 -8 m 306 492 q 319 395 306 442 q 361 312 333 349 q 431 253 389 275 q 532 232 474 232 q 633 254 590 232 q 703 315 676 276 q 744 399 731 353 q 757 494 757 446 q 743 590 757 544 q 701 673 729 636 q 631 731 674 710 q 531 751 588 751 q 430 729 472 751 q 360 670 388 707 q 319 587 332 633 q 306 492 306 540 m 321 1099 l 321 1256 l 751 1256 l 751 1099 l 321 1099 m 619 1297 l 453 1342 l 522 1539 l 757 1539 l 619 1297 z "},"Ṑ":{"ha":1063,"x_min":31,"x_max":1032,"o":"m 529 -8 q 325 34 417 -8 q 167 148 233 76 q 66 309 101 219 q 31 494 31 399 q 68 682 31 593 q 173 841 106 771 q 333 951 240 911 q 535 992 425 992 q 739 949 647 992 q 896 835 831 907 q 997 673 961 763 q 1032 489 1032 583 q 995 303 1032 392 q 891 144 958 214 q 732 33 824 74 q 529 -8 640 -8 m 306 492 q 319 395 306 442 q 361 312 333 349 q 431 253 389 275 q 532 232 474 232 q 633 254 590 232 q 703 315 676 276 q 744 399 731 353 q 757 494 757 446 q 743 590 757 544 q 701 673 729 636 q 631 731 674 710 q 531 751 588 751 q 430 729 472 751 q 360 670 388 707 q 319 587 332 633 q 306 492 306 540 m 321 1099 l 321 1256 l 751 1256 l 751 1099 l 321 1099 m 328 1539 l 563 1539 l 632 1342 l 465 1297 l 328 1539 z "},"Ǫ":{"ha":1063,"x_min":31,"x_max":1032,"o":"m 529 -8 q 325 34 417 -8 q 167 148 233 76 q 66 309 101 219 q 31 494 31 399 q 68 682 31 593 q 173 841 106 771 q 333 951 240 911 q 535 992 425 992 q 739 949 647 992 q 896 835 831 907 q 997 673 961 763 q 1032 489 1032 583 q 995 303 1032 392 q 891 144 958 214 q 732 33 824 74 q 529 -8 640 -8 m 306 492 q 319 395 306 442 q 361 312 333 349 q 431 253 389 275 q 532 232 474 232 q 633 254 590 232 q 703 315 676 276 q 744 399 731 353 q 757 494 757 446 q 743 590 757 544 q 701 673 729 636 q 631 731 674 710 q 531 751 588 751 q 430 729 472 751 q 360 670 388 707 q 319 587 332 633 q 306 492 306 540 m 392 -151 q 431 -49 392 -101 q 549 42 471 3 l 636 42 l 654 8 q 581 -48 607 -19 q 554 -100 554 -76 q 578 -137 554 -122 q 651 -151 601 -151 l 603 -290 q 485 -262 532 -282 q 415 -212 438 -242 q 392 -151 392 -183 z "},"Ø":{"ha":1060,"x_min":28,"x_max":1035,"o":"m 529 -8 q 325 34 417 -8 q 167 148 233 76 q 66 309 101 219 q 31 494 31 399 q 68 682 31 593 q 173 841 106 771 q 333 951 240 911 q 535 992 425 992 q 739 949 647 992 q 896 835 831 907 q 997 673 961 763 q 1032 489 1032 583 q 995 303 1032 392 q 891 144 958 214 q 732 33 824 74 q 529 -8 640 -8 m 306 492 q 319 395 306 442 q 361 312 333 349 q 431 253 389 275 q 532 232 474 232 q 633 254 590 232 q 703 315 676 276 q 744 399 731 353 q 757 494 757 446 q 743 590 757 544 q 701 673 729 636 q 631 731 674 710 q 531 751 588 751 q 430 729 472 751 q 360 670 388 707 q 319 587 332 633 q 306 492 306 540 m 1035 986 l 318 0 l 28 0 l 743 986 l 1035 986 z "},"Ǿ":{"ha":1060,"x_min":28,"x_max":1035,"o":"m 529 -8 q 325 34 417 -8 q 167 148 233 76 q 66 309 101 219 q 31 494 31 399 q 68 682 31 593 q 173 841 106 771 q 333 951 240 911 q 535 992 425 992 q 739 949 647 992 q 896 835 831 907 q 997 673 961 763 q 1032 489 1032 583 q 995 303 1032 392 q 891 144 958 214 q 732 33 824 74 q 529 -8 640 -8 m 306 492 q 319 395 306 442 q 361 312 333 349 q 431 253 389 275 q 532 232 474 232 q 633 254 590 232 q 703 315 676 276 q 744 399 731 353 q 757 494 757 446 q 743 590 757 544 q 701 673 729 636 q 631 731 674 710 q 531 751 588 751 q 430 729 472 751 q 360 670 388 707 q 319 587 332 633 q 306 492 306 540 m 1035 986 l 318 0 l 28 0 l 743 986 l 1035 986 m 618 1028 l 451 1072 l 521 1269 l 756 1269 l 618 1028 z "},"Õ":{"ha":1063,"x_min":31,"x_max":1032,"o":"m 529 -8 q 325 34 417 -8 q 167 148 233 76 q 66 309 101 219 q 31 494 31 399 q 68 682 31 593 q 173 841 106 771 q 333 951 240 911 q 535 992 425 992 q 739 949 647 992 q 896 835 831 907 q 997 673 961 763 q 1032 489 1032 583 q 995 303 1032 392 q 891 144 958 214 q 732 33 824 74 q 529 -8 640 -8 m 306 492 q 319 395 306 442 q 361 312 333 349 q 431 253 389 275 q 532 232 474 232 q 633 254 590 232 q 703 315 676 276 q 744 399 731 353 q 757 494 757 446 q 743 590 757 544 q 701 673 729 636 q 631 731 674 710 q 531 751 588 751 q 430 729 472 751 q 360 670 388 707 q 319 587 332 633 q 306 492 306 540 m 631 1050 q 558 1067 589 1050 q 502 1100 528 1083 q 444 1117 476 1117 q 400 1101 414 1117 q 383 1068 386 1085 q 381 1050 381 1051 l 240 1050 q 251 1104 240 1068 q 285 1178 261 1140 q 345 1243 308 1217 q 433 1269 382 1269 q 508 1251 479 1269 q 563 1216 538 1233 q 621 1199 589 1199 q 666 1215 651 1199 q 685 1250 681 1232 q 690 1269 690 1268 l 829 1269 q 818 1222 829 1257 q 783 1148 807 1188 q 722 1079 760 1108 q 631 1050 685 1050 z "},"Ṍ":{"ha":1063,"x_min":31,"x_max":1032,"o":"m 529 -8 q 325 34 417 -8 q 167 148 233 76 q 66 309 101 219 q 31 494 31 399 q 68 682 31 593 q 173 841 106 771 q 333 951 240 911 q 535 992 425 992 q 739 949 647 992 q 896 835 831 907 q 997 673 961 763 q 1032 489 1032 583 q 995 303 1032 392 q 891 144 958 214 q 732 33 824 74 q 529 -8 640 -8 m 306 492 q 319 395 306 442 q 361 312 333 349 q 431 253 389 275 q 532 232 474 232 q 633 254 590 232 q 703 315 676 276 q 744 399 731 353 q 757 494 757 446 q 743 590 757 544 q 701 673 729 636 q 631 731 674 710 q 531 751 588 751 q 430 729 472 751 q 360 670 388 707 q 319 587 332 633 q 306 492 306 540 m 631 1050 q 558 1067 589 1050 q 502 1100 528 1083 q 444 1117 476 1117 q 400 1101 414 1117 q 383 1068 386 1085 q 381 1050 381 1051 l 240 1050 q 251 1104 240 1068 q 285 1178 261 1140 q 345 1243 308 1217 q 433 1269 382 1269 q 508 1251 479 1269 q 563 1216 538 1233 q 621 1199 589 1199 q 666 1215 651 1199 q 685 1250 681 1232 q 690 1269 690 1268 l 829 1269 q 818 1222 829 1257 q 783 1148 807 1188 q 722 1079 760 1108 q 631 1050 685 1050 m 618 1311 l 451 1356 l 521 1553 l 756 1553 l 618 1311 z "},"Ṏ":{"ha":1063,"x_min":31,"x_max":1032,"o":"m 529 -8 q 325 34 417 -8 q 167 148 233 76 q 66 309 101 219 q 31 494 31 399 q 68 682 31 593 q 173 841 106 771 q 333 951 240 911 q 535 992 425 992 q 739 949 647 992 q 896 835 831 907 q 997 673 961 763 q 1032 489 1032 583 q 995 303 1032 392 q 891 144 958 214 q 732 33 824 74 q 529 -8 640 -8 m 306 492 q 319 395 306 442 q 361 312 333 349 q 431 253 389 275 q 532 232 474 232 q 633 254 590 232 q 703 315 676 276 q 744 399 731 353 q 757 494 757 446 q 743 590 757 544 q 701 673 729 636 q 631 731 674 710 q 531 751 588 751 q 430 729 472 751 q 360 670 388 707 q 319 587 332 633 q 306 492 306 540 m 631 1050 q 558 1067 589 1050 q 502 1100 528 1083 q 444 1117 476 1117 q 400 1101 414 1117 q 383 1068 386 1085 q 381 1050 381 1051 l 240 1050 q 251 1104 240 1068 q 285 1178 261 1140 q 345 1243 308 1217 q 433 1269 382 1269 q 508 1251 479 1269 q 563 1216 538 1233 q 621 1199 589 1199 q 666 1215 651 1199 q 685 1250 681 1232 q 690 1269 690 1268 l 829 1269 q 818 1222 829 1257 q 783 1148 807 1188 q 722 1079 760 1108 q 631 1050 685 1050 m 267 1346 l 267 1540 l 483 1540 l 483 1346 l 267 1346 m 586 1346 l 586 1540 l 803 1540 l 803 1346 l 586 1346 z "},"Ȭ":{"ha":1063,"x_min":31,"x_max":1032,"o":"m 529 -8 q 325 34 417 -8 q 167 148 233 76 q 66 309 101 219 q 31 494 31 399 q 68 682 31 593 q 173 841 106 771 q 333 951 240 911 q 535 992 425 992 q 739 949 647 992 q 896 835 831 907 q 997 673 961 763 q 1032 489 1032 583 q 995 303 1032 392 q 891 144 958 214 q 732 33 824 74 q 529 -8 640 -8 m 306 492 q 319 395 306 442 q 361 312 333 349 q 431 253 389 275 q 532 232 474 232 q 633 254 590 232 q 703 315 676 276 q 744 399 731 353 q 757 494 757 446 q 743 590 757 544 q 701 673 729 636 q 631 731 674 710 q 531 751 588 751 q 430 729 472 751 q 360 670 388 707 q 319 587 332 633 q 306 492 306 540 m 631 1050 q 558 1067 589 1050 q 502 1100 528 1083 q 444 1117 476 1117 q 400 1101 414 1117 q 383 1068 386 1085 q 381 1050 381 1051 l 240 1050 q 251 1104 240 1068 q 285 1178 261 1140 q 345 1243 308 1217 q 433 1269 382 1269 q 508 1251 479 1269 q 563 1216 538 1233 q 621 1199 589 1199 q 666 1215 651 1199 q 685 1250 681 1232 q 690 1269 690 1268 l 829 1269 q 818 1222 829 1257 q 783 1148 807 1188 q 722 1079 760 1108 q 631 1050 685 1050 m 321 1382 l 321 1539 l 751 1539 l 751 1382 l 321 1382 z "},"Œ":{"ha":1431,"x_min":31,"x_max":1389,"o":"m 1389 236 l 1389 0 l 714 0 l 714 57 q 649 23 683 38 q 577 1 614 8 q 501 -7 540 -7 q 309 35 396 -7 q 160 148 222 76 q 64 309 97 219 q 31 494 31 399 q 66 683 31 593 q 165 842 101 772 q 316 952 229 911 q 507 993 403 993 q 581 985 546 993 q 650 964 617 978 q 714 931 683 950 l 714 986 l 1376 986 l 1376 750 l 985 750 l 985 619 l 1301 619 l 1301 383 l 985 383 l 985 236 l 1389 236 m 504 233 q 593 256 556 233 q 654 315 631 278 q 690 399 678 353 q 701 494 701 446 q 689 591 701 544 q 652 674 676 638 q 590 731 628 710 q 503 753 553 753 q 415 731 451 753 q 353 671 378 708 q 317 587 329 633 q 306 492 306 540 q 317 396 306 442 q 354 313 329 350 q 417 255 379 276 q 504 233 454 233 z "},"P":{"ha":865,"x_min":85,"x_max":842,"o":"m 85 0 l 85 986 l 510 986 q 643 957 582 986 q 749 878 704 928 q 817 768 793 829 q 842 644 842 707 q 801 479 842 557 q 687 352 760 401 q 517 303 614 303 l 356 303 l 356 0 l 85 0 m 356 539 l 499 539 q 531 549 515 539 q 556 582 546 558 q 567 644 567 606 q 555 709 567 686 q 526 741 543 732 q 492 750 508 750 l 356 750 l 356 539 z "},"Þ":{"ha":840,"x_min":85,"x_max":821,"o":"m 489 822 q 622 793 561 822 q 728 715 683 764 q 797 606 772 667 q 821 482 821 544 q 780 316 821 394 q 666 189 739 238 q 496 140 593 140 l 356 140 l 356 0 l 85 0 l 85 986 l 356 986 l 356 822 l 489 822 m 482 376 q 515 389 500 376 q 540 426 531 401 q 550 482 550 450 q 538 540 550 517 q 510 574 526 563 q 475 586 493 586 l 356 586 l 356 376 l 482 376 z "},"Q":{"ha":1063,"x_min":31,"x_max":1057,"o":"m 529 -7 q 325 35 417 -7 q 167 148 233 76 q 66 309 101 219 q 31 494 31 399 q 68 683 31 593 q 173 842 106 772 q 333 952 240 911 q 535 993 425 993 q 739 950 647 993 q 896 835 831 907 q 997 673 961 763 q 1032 489 1032 583 q 995 303 1032 392 q 891 144 958 214 q 732 33 824 74 q 529 -7 640 -7 m 532 233 q 633 256 590 233 q 703 315 676 278 q 744 399 731 353 q 757 494 757 446 q 743 591 757 544 q 701 674 729 638 q 631 731 674 710 q 531 753 588 753 q 430 731 472 753 q 360 671 388 708 q 319 587 332 633 q 306 492 306 540 q 319 396 306 442 q 361 313 333 350 q 431 255 389 276 q 532 233 474 233 m 421 417 l 674 417 l 1057 0 l 804 0 l 421 417 z "},"R":{"ha":938,"x_min":85,"x_max":936,"o":"m 85 0 l 85 986 l 538 986 q 671 957 610 986 q 776 878 732 928 q 845 768 821 829 q 869 644 869 707 q 853 535 869 588 q 804 438 836 482 q 728 363 772 394 l 936 0 l 639 0 l 465 303 l 356 303 l 356 0 l 85 0 m 356 539 l 526 539 q 558 551 543 539 q 584 588 574 564 q 594 644 594 611 q 583 702 594 679 q 553 738 571 725 q 519 750 536 750 l 356 750 l 356 539 z "},"Ŕ":{"ha":938,"x_min":85,"x_max":936,"o":"m 85 0 l 85 986 l 538 986 q 671 957 610 986 q 776 878 732 928 q 845 768 821 829 q 869 644 869 707 q 853 535 869 588 q 804 438 836 482 q 728 363 772 394 l 936 0 l 639 0 l 465 303 l 356 303 l 356 0 l 85 0 m 356 539 l 526 539 q 558 551 543 539 q 584 588 574 564 q 594 644 594 611 q 583 702 594 679 q 553 738 571 725 q 519 750 536 750 l 356 750 l 356 539 m 526 1026 l 360 1071 l 429 1268 l 664 1268 l 526 1026 z "},"Ř":{"ha":938,"x_min":85,"x_max":936,"o":"m 85 0 l 85 986 l 538 986 q 671 957 610 986 q 776 878 732 928 q 845 768 821 829 q 869 644 869 707 q 853 535 869 588 q 804 438 836 482 q 728 363 772 394 l 936 0 l 639 0 l 465 303 l 356 303 l 356 0 l 85 0 m 356 539 l 526 539 q 558 551 543 539 q 584 588 574 564 q 594 644 594 611 q 583 702 594 679 q 553 738 571 725 q 519 750 536 750 l 356 750 l 356 539 m 325 1268 l 443 1181 l 561 1268 l 694 1210 l 538 1050 l 349 1050 l 192 1210 l 325 1268 z "},"Ŗ":{"ha":938,"x_min":85,"x_max":936,"o":"m 85 0 l 85 986 l 538 986 q 671 957 610 986 q 776 878 732 928 q 845 768 821 829 q 869 644 869 707 q 853 535 869 588 q 804 438 836 482 q 728 363 772 394 l 936 0 l 639 0 l 465 303 l 356 303 l 356 0 l 85 0 m 356 539 l 526 539 q 558 551 543 539 q 584 588 574 564 q 594 644 594 611 q 583 702 594 679 q 553 738 571 725 q 519 750 536 750 l 356 750 l 356 539 m 407 -296 l 457 -211 l 378 -211 l 378 -64 l 596 -64 l 596 -211 l 521 -296 l 407 -296 z "},"Ȑ":{"ha":938,"x_min":85,"x_max":936,"o":"m 85 0 l 85 986 l 538 986 q 671 957 610 986 q 776 878 732 928 q 845 768 821 829 q 869 644 869 707 q 853 535 869 588 q 804 438 836 482 q 728 363 772 394 l 936 0 l 639 0 l 465 303 l 356 303 l 356 0 l 85 0 m 356 539 l 526 539 q 558 551 543 539 q 584 588 574 564 q 594 644 594 611 q 583 702 594 679 q 553 738 571 725 q 519 750 536 750 l 356 750 l 356 539 m 406 1269 l 599 1269 l 654 1072 l 529 1028 l 406 1269 m 142 1269 l 335 1269 l 390 1072 l 265 1028 l 142 1269 z "},"Ṛ":{"ha":938,"x_min":85,"x_max":936,"o":"m 85 0 l 85 986 l 538 986 q 671 957 610 986 q 776 878 732 928 q 845 768 821 829 q 869 644 869 707 q 853 535 869 588 q 804 438 836 482 q 728 363 772 394 l 936 0 l 639 0 l 465 303 l 356 303 l 356 0 l 85 0 m 356 539 l 526 539 q 558 551 543 539 q 584 588 574 564 q 594 644 594 611 q 583 702 594 679 q 553 738 571 725 q 519 750 536 750 l 356 750 l 356 539 m 374 -297 l 374 -89 l 610 -89 l 610 -297 l 374 -297 z "},"Ȓ":{"ha":938,"x_min":85,"x_max":936,"o":"m 85 0 l 85 986 l 538 986 q 671 957 610 986 q 776 878 732 928 q 845 768 821 829 q 869 644 869 707 q 853 535 869 588 q 804 438 836 482 q 728 363 772 394 l 936 0 l 639 0 l 465 303 l 356 303 l 356 0 l 85 0 m 356 539 l 526 539 q 558 551 543 539 q 584 588 574 564 q 594 644 594 611 q 583 702 594 679 q 553 738 571 725 q 519 750 536 750 l 356 750 l 356 539 m 443 1156 q 383 1122 408 1156 q 358 1043 358 1089 l 222 1043 q 284 1205 222 1142 q 443 1268 346 1268 q 603 1205 542 1268 q 664 1043 664 1142 l 528 1043 q 499 1124 524 1092 q 443 1156 475 1156 z "},"Ṟ":{"ha":938,"x_min":85,"x_max":936,"o":"m 85 0 l 85 986 l 538 986 q 671 957 610 986 q 776 878 732 928 q 845 768 821 829 q 869 644 869 707 q 853 535 869 588 q 804 438 836 482 q 728 363 772 394 l 936 0 l 639 0 l 465 303 l 356 303 l 356 0 l 85 0 m 356 539 l 526 539 q 558 551 543 539 q 584 588 574 564 q 594 644 594 611 q 583 702 594 679 q 553 738 571 725 q 519 750 536 750 l 356 750 l 356 539 m 276 -260 l 276 -103 l 707 -103 l 707 -260 l 276 -260 z "},"S":{"ha":857,"x_min":18,"x_max":822,"o":"m 682 664 q 658 678 682 664 q 596 709 635 692 q 511 740 557 726 q 421 754 465 754 q 364 743 386 754 q 342 706 342 732 q 364 665 342 681 q 427 638 386 650 q 525 607 468 625 q 683 543 617 579 q 786 451 750 507 q 822 301 822 394 q 790 152 822 213 q 704 56 758 92 q 583 3 650 19 q 447 -12 517 -12 q 299 2 376 -12 q 150 42 222 17 q 18 103 78 68 l 135 340 q 163 324 135 340 q 236 286 190 307 q 338 249 282 265 q 451 232 394 232 q 513 244 496 232 q 531 275 531 256 q 500 320 531 304 q 420 351 469 336 q 311 385 371 365 q 169 451 225 414 q 88 538 114 488 q 61 661 61 589 q 113 844 61 771 q 248 956 164 918 q 429 994 332 994 q 569 977 501 994 q 695 935 636 960 q 799 888 754 910 l 682 664 z "},"Ś":{"ha":857,"x_min":18,"x_max":822,"o":"m 682 664 q 658 678 682 664 q 596 709 635 692 q 511 740 557 726 q 421 754 465 754 q 364 743 386 754 q 342 706 342 732 q 364 665 342 681 q 427 638 386 650 q 525 607 468 625 q 683 543 617 579 q 786 451 750 507 q 822 301 822 394 q 790 152 822 213 q 704 56 758 92 q 583 3 650 19 q 447 -12 517 -12 q 299 2 376 -12 q 150 42 222 17 q 18 103 78 68 l 135 340 q 163 324 135 340 q 236 286 190 307 q 338 249 282 265 q 451 232 394 232 q 513 244 496 232 q 531 275 531 256 q 500 320 531 304 q 420 351 469 336 q 311 385 371 365 q 169 451 225 414 q 88 538 114 488 q 61 661 61 589 q 113 844 61 771 q 248 956 164 918 q 429 994 332 994 q 569 977 501 994 q 695 935 636 960 q 799 888 754 910 l 682 664 m 519 1028 l 353 1072 l 422 1269 l 657 1269 l 519 1028 z "},"Ṥ":{"ha":857,"x_min":18,"x_max":822,"o":"m 682 664 q 658 678 682 664 q 596 709 635 692 q 511 740 557 726 q 421 754 465 754 q 364 743 386 754 q 342 706 342 732 q 364 665 342 681 q 427 638 386 650 q 525 607 468 625 q 683 543 617 579 q 786 451 750 507 q 822 301 822 394 q 790 152 822 213 q 704 56 758 92 q 583 3 650 19 q 447 -12 517 -12 q 299 2 376 -12 q 150 42 222 17 q 18 103 78 68 l 135 340 q 163 324 135 340 q 236 286 190 307 q 338 249 282 265 q 451 232 394 232 q 513 244 496 232 q 531 275 531 256 q 500 320 531 304 q 420 351 469 336 q 311 385 371 365 q 169 451 225 414 q 88 538 114 488 q 61 661 61 589 q 113 844 61 771 q 248 956 164 918 q 429 994 332 994 q 569 977 501 994 q 695 935 636 960 q 799 888 754 910 l 682 664 m 519 1028 l 353 1072 l 422 1269 l 657 1269 l 519 1028 m 388 1344 l 388 1553 l 624 1553 l 624 1344 l 388 1344 z "},"Š":{"ha":857,"x_min":18,"x_max":822,"o":"m 682 664 q 658 678 682 664 q 596 709 635 692 q 511 740 557 726 q 421 754 465 754 q 364 743 386 754 q 342 706 342 732 q 364 665 342 681 q 427 638 386 650 q 525 607 468 625 q 683 543 617 579 q 786 451 750 507 q 822 301 822 394 q 790 152 822 213 q 704 56 758 92 q 583 3 650 19 q 447 -12 517 -12 q 299 2 376 -12 q 150 42 222 17 q 18 103 78 68 l 135 340 q 163 324 135 340 q 236 286 190 307 q 338 249 282 265 q 451 232 394 232 q 513 244 496 232 q 531 275 531 256 q 500 320 531 304 q 420 351 469 336 q 311 385 371 365 q 169 451 225 414 q 88 538 114 488 q 61 661 61 589 q 113 844 61 771 q 248 956 164 918 q 429 994 332 994 q 569 977 501 994 q 695 935 636 960 q 799 888 754 910 l 682 664 m 318 1269 l 436 1182 l 554 1269 l 688 1211 l 531 1051 l 342 1051 l 185 1211 l 318 1269 z "},"Ṧ":{"ha":857,"x_min":18,"x_max":822,"o":"m 682 664 q 658 678 682 664 q 596 709 635 692 q 511 740 557 726 q 421 754 465 754 q 364 743 386 754 q 342 706 342 732 q 364 665 342 681 q 427 638 386 650 q 525 607 468 625 q 683 543 617 579 q 786 451 750 507 q 822 301 822 394 q 790 152 822 213 q 704 56 758 92 q 583 3 650 19 q 447 -12 517 -12 q 299 2 376 -12 q 150 42 222 17 q 18 103 78 68 l 135 340 q 163 324 135 340 q 236 286 190 307 q 338 249 282 265 q 451 232 394 232 q 513 244 496 232 q 531 275 531 256 q 500 320 531 304 q 420 351 469 336 q 311 385 371 365 q 169 451 225 414 q 88 538 114 488 q 61 661 61 589 q 113 844 61 771 q 248 956 164 918 q 429 994 332 994 q 569 977 501 994 q 695 935 636 960 q 799 888 754 910 l 682 664 m 318 1269 l 436 1182 l 554 1269 l 688 1211 l 531 1051 l 342 1051 l 185 1211 l 318 1269 m 318 1344 l 318 1553 l 554 1553 l 554 1344 l 318 1344 z "},"Ş":{"ha":857,"x_min":18,"x_max":822,"o":"m 682 664 q 658 678 682 664 q 596 709 635 692 q 511 740 557 726 q 421 754 465 754 q 364 743 386 754 q 342 706 342 732 q 364 665 342 681 q 427 638 386 650 q 525 607 468 625 q 683 543 617 579 q 786 451 750 507 q 822 301 822 394 q 790 152 822 213 q 704 56 758 92 q 583 3 650 19 q 447 -12 517 -12 q 299 2 376 -12 q 150 42 222 17 q 18 103 78 68 l 135 340 q 163 324 135 340 q 236 286 190 307 q 338 249 282 265 q 451 232 394 232 q 513 244 496 232 q 531 275 531 256 q 500 320 531 304 q 420 351 469 336 q 311 385 371 365 q 169 451 225 414 q 88 538 114 488 q 61 661 61 589 q 113 844 61 771 q 248 956 164 918 q 429 994 332 994 q 569 977 501 994 q 695 935 636 960 q 799 888 754 910 l 682 664 m 429 -306 q 346 -294 390 -306 q 257 -258 301 -282 l 318 -124 q 351 -144 333 -137 q 385 -150 369 -150 q 426 -136 410 -150 q 443 -96 443 -122 q 428 -48 443 -72 q 385 0 413 -24 l 468 50 q 559 -36 521 11 q 597 -149 597 -83 q 556 -258 597 -210 q 429 -306 515 -306 z "},"Ŝ":{"ha":857,"x_min":18,"x_max":822,"o":"m 682 664 q 658 678 682 664 q 596 709 635 692 q 511 740 557 726 q 421 754 465 754 q 364 743 386 754 q 342 706 342 732 q 364 665 342 681 q 427 638 386 650 q 525 607 468 625 q 683 543 617 579 q 786 451 750 507 q 822 301 822 394 q 790 152 822 213 q 704 56 758 92 q 583 3 650 19 q 447 -12 517 -12 q 299 2 376 -12 q 150 42 222 17 q 18 103 78 68 l 135 340 q 163 324 135 340 q 236 286 190 307 q 338 249 282 265 q 451 232 394 232 q 513 244 496 232 q 531 275 531 256 q 500 320 531 304 q 420 351 469 336 q 311 385 371 365 q 169 451 225 414 q 88 538 114 488 q 61 661 61 589 q 113 844 61 771 q 248 956 164 918 q 429 994 332 994 q 569 977 501 994 q 695 935 636 960 q 799 888 754 910 l 682 664 m 185 1110 l 342 1269 l 531 1269 l 688 1110 l 554 1051 l 436 1139 l 318 1051 l 185 1110 z "},"Ș":{"ha":857,"x_min":18,"x_max":822,"o":"m 682 664 q 658 678 682 664 q 596 709 635 692 q 511 740 557 726 q 421 754 465 754 q 364 743 386 754 q 342 706 342 732 q 364 665 342 681 q 427 638 386 650 q 525 607 468 625 q 683 543 617 579 q 786 451 750 507 q 822 301 822 394 q 790 152 822 213 q 704 56 758 92 q 583 3 650 19 q 447 -12 517 -12 q 299 2 376 -12 q 150 42 222 17 q 18 103 78 68 l 135 340 q 163 324 135 340 q 236 286 190 307 q 338 249 282 265 q 451 232 394 232 q 513 244 496 232 q 531 275 531 256 q 500 320 531 304 q 420 351 469 336 q 311 385 371 365 q 169 451 225 414 q 88 538 114 488 q 61 661 61 589 q 113 844 61 771 q 248 956 164 918 q 429 994 332 994 q 569 977 501 994 q 695 935 636 960 q 799 888 754 910 l 682 664 m 365 -296 l 415 -211 l 336 -211 l 336 -64 l 554 -64 l 554 -211 l 479 -296 l 365 -296 z "},"Ṡ":{"ha":857,"x_min":18,"x_max":822,"o":"m 682 664 q 658 678 682 664 q 596 709 635 692 q 511 740 557 726 q 421 754 465 754 q 364 743 386 754 q 342 706 342 732 q 364 665 342 681 q 427 638 386 650 q 525 607 468 625 q 683 543 617 579 q 786 451 750 507 q 822 301 822 394 q 790 152 822 213 q 704 56 758 92 q 583 3 650 19 q 447 -12 517 -12 q 299 2 376 -12 q 150 42 222 17 q 18 103 78 68 l 135 340 q 163 324 135 340 q 236 286 190 307 q 338 249 282 265 q 451 232 394 232 q 513 244 496 232 q 531 275 531 256 q 500 320 531 304 q 420 351 469 336 q 311 385 371 365 q 169 451 225 414 q 88 538 114 488 q 61 661 61 589 q 113 844 61 771 q 248 956 164 918 q 429 994 332 994 q 569 977 501 994 q 695 935 636 960 q 799 888 754 910 l 682 664 m 318 1061 l 318 1269 l 554 1269 l 554 1061 l 318 1061 z "},"Ṣ":{"ha":857,"x_min":18,"x_max":822,"o":"m 682 664 q 658 678 682 664 q 596 709 635 692 q 511 740 557 726 q 421 754 465 754 q 364 743 386 754 q 342 706 342 732 q 364 665 342 681 q 427 638 386 650 q 525 607 468 625 q 683 543 617 579 q 786 451 750 507 q 822 301 822 394 q 790 152 822 213 q 704 56 758 92 q 583 3 650 19 q 447 -12 517 -12 q 299 2 376 -12 q 150 42 222 17 q 18 103 78 68 l 135 340 q 163 324 135 340 q 236 286 190 307 q 338 249 282 265 q 451 232 394 232 q 513 244 496 232 q 531 275 531 256 q 500 320 531 304 q 420 351 469 336 q 311 385 371 365 q 169 451 225 414 q 88 538 114 488 q 61 661 61 589 q 113 844 61 771 q 248 956 164 918 q 429 994 332 994 q 569 977 501 994 q 695 935 636 960 q 799 888 754 910 l 682 664 m 332 -297 l 332 -89 l 568 -89 l 568 -297 l 332 -297 z "},"Ṩ":{"ha":857,"x_min":18,"x_max":822,"o":"m 682 664 q 658 678 682 664 q 596 709 635 692 q 511 740 557 726 q 421 754 465 754 q 364 743 386 754 q 342 706 342 732 q 364 665 342 681 q 427 638 386 650 q 525 607 468 625 q 683 543 617 579 q 786 451 750 507 q 822 301 822 394 q 790 152 822 213 q 704 56 758 92 q 583 3 650 19 q 447 -12 517 -12 q 299 2 376 -12 q 150 42 222 17 q 18 103 78 68 l 135 340 q 163 324 135 340 q 236 286 190 307 q 338 249 282 265 q 451 232 394 232 q 513 244 496 232 q 531 275 531 256 q 500 320 531 304 q 420 351 469 336 q 311 385 371 365 q 169 451 225 414 q 88 538 114 488 q 61 661 61 589 q 113 844 61 771 q 248 956 164 918 q 429 994 332 994 q 569 977 501 994 q 695 935 636 960 q 799 888 754 910 l 682 664 m 332 -297 l 332 -89 l 568 -89 l 568 -297 l 332 -297 m 318 1061 l 318 1269 l 554 1269 l 554 1061 l 318 1061 z "},"ẞ":{"ha":1001,"x_min":67,"x_max":968,"o":"m 689 -14 q 505 17 597 -14 q 349 108 413 49 l 439 271 q 556 201 500 226 q 660 176 611 176 q 700 185 686 176 q 714 211 714 193 q 708 230 714 221 q 688 247 703 239 q 646 265 674 256 q 502 322 560 296 q 416 387 444 349 q 388 490 388 425 q 410 597 388 550 q 478 677 433 643 q 588 732 522 711 q 742 761 654 753 l 665 638 q 633 727 654 696 q 582 771 613 758 q 507 783 551 783 q 395 758 438 783 q 335 685 353 733 q 317 568 317 638 l 317 0 l 67 0 l 67 617 q 101 788 67 717 q 196 904 136 860 q 333 970 256 949 q 496 992 411 992 q 689 959 603 992 q 832 860 775 926 q 907 689 889 793 l 919 617 q 817 599 868 608 q 724 576 767 589 q 657 549 682 564 q 632 515 632 535 q 645 491 632 501 q 679 472 658 481 q 725 454 700 463 q 866 401 813 425 q 944 340 919 376 q 968 238 968 304 q 895 52 968 118 q 689 -14 822 -14 z "},"Ə":{"ha":1053,"x_min":17,"x_max":1022,"o":"m 521 -7 q 303 38 397 -7 q 146 153 210 82 q 49 308 82 225 q 17 469 17 392 q 19 523 17 496 q 25 571 22 550 l 726 571 q 703 654 722 619 q 657 711 685 689 q 594 744 629 733 q 524 754 560 754 q 447 741 485 754 q 383 703 410 728 q 344 644 356 679 l 63 724 q 165 865 100 804 q 319 958 229 925 q 521 992 410 992 q 735 948 642 992 q 892 832 828 904 q 990 675 957 760 q 1022 508 1022 590 q 990 324 1022 415 q 894 158 958 232 q 738 38 831 83 q 521 -7 644 -7 m 525 229 q 619 246 578 229 q 686 295 660 263 q 719 372 713 328 l 317 372 q 353 295 325 328 q 426 246 382 263 q 525 229 469 229 z "},"T":{"ha":867,"x_min":14,"x_max":853,"o":"m 853 750 l 569 750 l 569 0 l 299 0 l 299 750 l 14 750 l 14 986 l 853 986 l 853 750 z "},"Ŧ":{"ha":897,"x_min":29,"x_max":868,"o":"m 99 372 l 99 494 l 799 494 l 799 372 l 99 372 m 868 750 l 585 750 l 585 0 l 314 0 l 314 750 l 29 750 l 29 986 l 868 986 l 868 750 z "},"Ť":{"ha":867,"x_min":14,"x_max":853,"o":"m 853 750 l 569 750 l 569 0 l 299 0 l 299 750 l 14 750 l 14 986 l 853 986 l 853 750 m 326 1269 l 444 1182 l 563 1269 l 696 1211 l 539 1051 l 350 1051 l 193 1211 l 326 1269 z "},"Ţ":{"ha":867,"x_min":14,"x_max":853,"o":"m 853 750 l 569 750 l 569 0 l 299 0 l 299 750 l 14 750 l 14 986 l 853 986 l 853 750 m 411 -306 q 328 -294 372 -306 q 239 -258 283 -282 l 300 -124 q 333 -144 315 -137 q 367 -150 351 -150 q 408 -136 392 -150 q 425 -96 425 -122 q 410 -48 425 -72 q 367 0 394 -24 l 450 50 q 541 -36 503 11 q 579 -149 579 -83 q 538 -258 579 -210 q 411 -306 497 -306 z "},"Ț":{"ha":867,"x_min":14,"x_max":853,"o":"m 853 750 l 569 750 l 569 0 l 299 0 l 299 750 l 14 750 l 14 986 l 853 986 l 853 750 m 347 -296 l 397 -211 l 318 -211 l 318 -64 l 536 -64 l 536 -211 l 461 -296 l 347 -296 z "},"Ṭ":{"ha":867,"x_min":14,"x_max":853,"o":"m 853 750 l 569 750 l 569 0 l 299 0 l 299 750 l 14 750 l 14 986 l 853 986 l 853 750 m 314 -297 l 314 -89 l 550 -89 l 550 -297 l 314 -297 z "},"Ṯ":{"ha":867,"x_min":14,"x_max":853,"o":"m 853 750 l 569 750 l 569 0 l 299 0 l 299 750 l 14 750 l 14 986 l 853 986 l 853 750 m 217 -260 l 217 -103 l 647 -103 l 647 -260 l 217 -260 z "},"U":{"ha":1032,"x_min":71,"x_max":961,"o":"m 515 -8 q 313 31 397 -8 q 174 138 228 69 q 96 294 121 206 q 71 479 71 382 l 71 986 l 342 986 l 342 479 q 351 386 342 431 q 382 307 361 342 q 435 252 403 272 q 515 232 468 232 q 597 252 564 232 q 651 308 631 272 q 681 388 671 343 q 690 479 690 432 l 690 986 l 961 986 l 961 479 q 934 288 961 376 q 853 132 907 199 q 715 28 799 65 q 515 -8 631 -8 z "},"Ú":{"ha":1032,"x_min":71,"x_max":961,"o":"m 515 -8 q 313 31 397 -8 q 174 138 228 69 q 96 294 121 206 q 71 479 71 382 l 71 986 l 342 986 l 342 479 q 351 386 342 431 q 382 307 361 342 q 435 252 403 272 q 515 232 468 232 q 597 252 564 232 q 651 308 631 272 q 681 388 671 343 q 690 479 690 432 l 690 986 l 961 986 l 961 479 q 934 288 961 376 q 853 132 907 199 q 715 28 799 65 q 515 -8 631 -8 m 599 1028 l 432 1072 l 501 1269 l 736 1269 l 599 1028 z "},"Ŭ":{"ha":1032,"x_min":71,"x_max":961,"o":"m 515 -8 q 313 31 397 -8 q 174 138 228 69 q 96 294 121 206 q 71 479 71 382 l 71 986 l 342 986 l 342 479 q 351 386 342 431 q 382 307 361 342 q 435 252 403 272 q 515 232 468 232 q 597 252 564 232 q 651 308 631 272 q 681 388 671 343 q 690 479 690 432 l 690 986 l 961 986 l 961 479 q 934 288 961 376 q 853 132 907 199 q 715 28 799 65 q 515 -8 631 -8 m 515 1157 q 572 1189 547 1157 q 600 1269 596 1221 l 736 1269 q 675 1108 736 1171 q 515 1044 614 1044 q 356 1108 418 1044 q 294 1269 294 1171 l 431 1269 q 456 1190 431 1224 q 515 1157 481 1157 z "},"Û":{"ha":1032,"x_min":71,"x_max":961,"o":"m 515 -8 q 313 31 397 -8 q 174 138 228 69 q 96 294 121 206 q 71 479 71 382 l 71 986 l 342 986 l 342 479 q 351 386 342 431 q 382 307 361 342 q 435 252 403 272 q 515 232 468 232 q 597 252 564 232 q 651 308 631 272 q 681 388 671 343 q 690 479 690 432 l 690 986 l 961 986 l 961 479 q 934 288 961 376 q 853 132 907 199 q 715 28 799 65 q 515 -8 631 -8 m 264 1110 l 421 1269 l 610 1269 l 767 1110 l 633 1051 l 515 1139 l 397 1051 l 264 1110 z "},"Ȕ":{"ha":1032,"x_min":71,"x_max":961,"o":"m 515 -8 q 313 31 397 -8 q 174 138 228 69 q 96 294 121 206 q 71 479 71 382 l 71 986 l 342 986 l 342 479 q 351 386 342 431 q 382 307 361 342 q 435 252 403 272 q 515 232 468 232 q 597 252 564 232 q 651 308 631 272 q 681 388 671 343 q 690 479 690 432 l 690 986 l 961 986 l 961 479 q 934 288 961 376 q 853 132 907 199 q 715 28 799 65 q 515 -8 631 -8 m 478 1271 l 671 1271 l 726 1074 l 601 1029 l 478 1271 m 214 1271 l 407 1271 l 463 1074 l 338 1029 l 214 1271 z "},"Ü":{"ha":1032,"x_min":71,"x_max":961,"o":"m 515 -8 q 313 31 397 -8 q 174 138 228 69 q 96 294 121 206 q 71 479 71 382 l 71 986 l 342 986 l 342 479 q 351 386 342 431 q 382 307 361 342 q 435 252 403 272 q 515 232 468 232 q 597 252 564 232 q 651 308 631 272 q 681 388 671 343 q 690 479 690 432 l 690 986 l 961 986 l 961 479 q 934 288 961 376 q 853 132 907 199 q 715 28 799 65 q 515 -8 631 -8 m 247 1063 l 247 1257 l 464 1257 l 464 1063 l 247 1063 m 567 1063 l 567 1257 l 783 1257 l 783 1063 l 567 1063 z "},"Ụ":{"ha":1032,"x_min":71,"x_max":961,"o":"m 515 -8 q 313 31 397 -8 q 174 138 228 69 q 96 294 121 206 q 71 479 71 382 l 71 986 l 342 986 l 342 479 q 351 386 342 431 q 382 307 361 342 q 435 252 403 272 q 515 232 468 232 q 597 252 564 232 q 651 308 631 272 q 681 388 671 343 q 690 479 690 432 l 690 986 l 961 986 l 961 479 q 934 288 961 376 q 853 132 907 199 q 715 28 799 65 q 515 -8 631 -8 m 397 -297 l 397 -89 l 633 -89 l 633 -297 l 397 -297 z "},"Ù":{"ha":1032,"x_min":71,"x_max":961,"o":"m 515 -8 q 313 31 397 -8 q 174 138 228 69 q 96 294 121 206 q 71 479 71 382 l 71 986 l 342 986 l 342 479 q 351 386 342 431 q 382 307 361 342 q 435 252 403 272 q 515 232 468 232 q 597 252 564 232 q 651 308 631 272 q 681 388 671 343 q 690 479 690 432 l 690 986 l 961 986 l 961 479 q 934 288 961 376 q 853 132 907 199 q 715 28 799 65 q 515 -8 631 -8 m 307 1269 l 542 1269 l 611 1072 l 444 1028 l 307 1269 z "},"Ủ":{"ha":1032,"x_min":71,"x_max":961,"o":"m 515 -8 q 313 31 397 -8 q 174 138 228 69 q 96 294 121 206 q 71 479 71 382 l 71 986 l 342 986 l 342 479 q 351 386 342 431 q 382 307 361 342 q 435 252 403 272 q 515 232 468 232 q 597 252 564 232 q 651 308 631 272 q 681 388 671 343 q 690 479 690 432 l 690 986 l 961 986 l 961 479 q 934 288 961 376 q 853 132 907 199 q 715 28 799 65 q 515 -8 631 -8 m 438 1194 l 367 1264 q 449 1327 410 1308 q 528 1346 488 1346 q 626 1314 589 1346 q 664 1229 664 1282 q 639 1138 664 1174 q 561 1058 614 1101 l 499 1124 q 535 1156 522 1139 q 549 1190 549 1172 q 538 1220 549 1208 q 507 1232 526 1232 q 473 1222 488 1232 q 438 1194 458 1213 z "},"Ư":{"ha":1032,"x_min":71,"x_max":1128,"o":"m 515 -8 q 313 31 397 -8 q 174 138 228 69 q 96 294 121 206 q 71 479 71 382 l 71 986 l 342 986 l 342 479 q 351 386 342 431 q 382 307 361 342 q 435 252 403 272 q 515 232 468 232 q 597 252 564 232 q 651 308 631 272 q 681 388 671 343 q 690 479 690 432 l 690 986 l 961 986 l 961 479 q 934 288 961 376 q 853 132 907 199 q 715 28 799 65 q 515 -8 631 -8 m 785 808 l 788 986 q 871 992 836 986 q 925 1018 906 999 q 946 1064 944 1038 q 949 1117 947 1090 l 1128 1117 q 1125 1040 1128 1081 q 1107 960 1122 1000 q 1056 886 1092 921 q 988 847 1032 864 q 892 819 944 829 q 785 808 839 808 z "},"Ứ":{"ha":1032,"x_min":71,"x_max":1128,"o":"m 515 -8 q 313 31 397 -8 q 174 138 228 69 q 96 294 121 206 q 71 479 71 382 l 71 986 l 342 986 l 342 479 q 351 386 342 431 q 382 307 361 342 q 435 252 403 272 q 515 232 468 232 q 597 252 564 232 q 651 308 631 272 q 681 388 671 343 q 690 479 690 432 l 690 986 l 961 986 l 961 479 q 934 288 961 376 q 853 132 907 199 q 715 28 799 65 q 515 -8 631 -8 m 785 808 l 788 986 q 871 992 836 986 q 925 1018 906 999 q 946 1064 944 1038 q 949 1117 947 1090 l 1128 1117 q 1125 1040 1128 1081 q 1107 960 1122 1000 q 1056 886 1092 921 q 988 847 1032 864 q 892 819 944 829 q 785 808 839 808 m 599 1028 l 432 1072 l 501 1269 l 736 1269 l 599 1028 z "},"Ự":{"ha":1032,"x_min":71,"x_max":1128,"o":"m 515 -8 q 313 31 397 -8 q 174 138 228 69 q 96 294 121 206 q 71 479 71 382 l 71 986 l 342 986 l 342 479 q 351 386 342 431 q 382 307 361 342 q 435 252 403 272 q 515 232 468 232 q 597 252 564 232 q 651 308 631 272 q 681 388 671 343 q 690 479 690 432 l 690 986 l 961 986 l 961 479 q 934 288 961 376 q 853 132 907 199 q 715 28 799 65 q 515 -8 631 -8 m 785 808 l 788 986 q 871 992 836 986 q 925 1018 906 999 q 946 1064 944 1038 q 949 1117 947 1090 l 1128 1117 q 1125 1040 1128 1081 q 1107 960 1122 1000 q 1056 886 1092 921 q 988 847 1032 864 q 892 819 944 829 q 785 808 839 808 m 397 -297 l 397 -89 l 633 -89 l 633 -297 l 397 -297 z "},"Ừ":{"ha":1032,"x_min":71,"x_max":1128,"o":"m 515 -8 q 313 31 397 -8 q 174 138 228 69 q 96 294 121 206 q 71 479 71 382 l 71 986 l 342 986 l 342 479 q 351 386 342 431 q 382 307 361 342 q 435 252 403 272 q 515 232 468 232 q 597 252 564 232 q 651 308 631 272 q 681 388 671 343 q 690 479 690 432 l 690 986 l 961 986 l 961 479 q 934 288 961 376 q 853 132 907 199 q 715 28 799 65 q 515 -8 631 -8 m 785 808 l 788 986 q 871 992 836 986 q 925 1018 906 999 q 946 1064 944 1038 q 949 1117 947 1090 l 1128 1117 q 1125 1040 1128 1081 q 1107 960 1122 1000 q 1056 886 1092 921 q 988 847 1032 864 q 892 819 944 829 q 785 808 839 808 m 307 1269 l 542 1269 l 611 1072 l 444 1028 l 307 1269 z "},"Ử":{"ha":1032,"x_min":71,"x_max":1128,"o":"m 515 -8 q 313 31 397 -8 q 174 138 228 69 q 96 294 121 206 q 71 479 71 382 l 71 986 l 342 986 l 342 479 q 351 386 342 431 q 382 307 361 342 q 435 252 403 272 q 515 232 468 232 q 597 252 564 232 q 651 308 631 272 q 681 388 671 343 q 690 479 690 432 l 690 986 l 961 986 l 961 479 q 934 288 961 376 q 853 132 907 199 q 715 28 799 65 q 515 -8 631 -8 m 785 808 l 788 986 q 871 992 836 986 q 925 1018 906 999 q 946 1064 944 1038 q 949 1117 947 1090 l 1128 1117 q 1125 1040 1128 1081 q 1107 960 1122 1000 q 1056 886 1092 921 q 988 847 1032 864 q 892 819 944 829 q 785 808 839 808 m 438 1194 l 367 1264 q 449 1327 410 1308 q 528 1346 488 1346 q 626 1314 589 1346 q 664 1229 664 1282 q 639 1138 664 1174 q 561 1058 614 1101 l 499 1124 q 535 1156 522 1139 q 549 1190 549 1172 q 538 1220 549 1208 q 507 1232 526 1232 q 473 1222 488 1232 q 438 1194 458 1213 z "},"Ữ":{"ha":1032,"x_min":71,"x_max":1128,"o":"m 515 -8 q 313 31 397 -8 q 174 138 228 69 q 96 294 121 206 q 71 479 71 382 l 71 986 l 342 986 l 342 479 q 351 386 342 431 q 382 307 361 342 q 435 252 403 272 q 515 232 468 232 q 597 252 564 232 q 651 308 631 272 q 681 388 671 343 q 690 479 690 432 l 690 986 l 961 986 l 961 479 q 934 288 961 376 q 853 132 907 199 q 715 28 799 65 q 515 -8 631 -8 m 785 808 l 788 986 q 871 992 836 986 q 925 1018 906 999 q 946 1064 944 1038 q 949 1117 947 1090 l 1128 1117 q 1125 1040 1128 1081 q 1107 960 1122 1000 q 1056 886 1092 921 q 988 847 1032 864 q 892 819 944 829 q 785 808 839 808 m 611 1050 q 539 1067 569 1050 q 483 1100 508 1083 q 425 1117 457 1117 q 381 1101 394 1117 q 364 1068 367 1085 q 361 1050 361 1051 l 221 1050 q 231 1104 221 1068 q 265 1178 242 1140 q 326 1243 289 1217 q 414 1269 363 1269 q 489 1251 460 1269 q 544 1216 518 1233 q 601 1199 569 1199 q 647 1215 632 1199 q 666 1250 661 1232 q 671 1269 671 1268 l 810 1269 q 799 1222 810 1257 q 764 1148 788 1188 q 703 1079 740 1108 q 611 1050 665 1050 z "},"Ű":{"ha":1032,"x_min":71,"x_max":961,"o":"m 515 -8 q 313 31 397 -8 q 174 138 228 69 q 96 294 121 206 q 71 479 71 382 l 71 986 l 342 986 l 342 479 q 351 386 342 431 q 382 307 361 342 q 435 252 403 272 q 515 232 468 232 q 597 252 564 232 q 651 308 631 272 q 681 388 671 343 q 690 479 690 432 l 690 986 l 961 986 l 961 479 q 934 288 961 376 q 853 132 907 199 q 715 28 799 65 q 515 -8 631 -8 m 428 1029 l 303 1074 l 358 1271 l 551 1271 l 428 1029 m 692 1029 l 567 1074 l 622 1271 l 815 1271 l 692 1029 z "},"Ȗ":{"ha":1032,"x_min":71,"x_max":961,"o":"m 515 -8 q 313 31 397 -8 q 174 138 228 69 q 96 294 121 206 q 71 479 71 382 l 71 986 l 342 986 l 342 479 q 351 386 342 431 q 382 307 361 342 q 435 252 403 272 q 515 232 468 232 q 597 252 564 232 q 651 308 631 272 q 681 388 671 343 q 690 479 690 432 l 690 986 l 961 986 l 961 479 q 934 288 961 376 q 853 132 907 199 q 715 28 799 65 q 515 -8 631 -8 m 515 1157 q 456 1124 481 1157 q 431 1044 431 1090 l 294 1044 q 356 1206 294 1143 q 515 1269 418 1269 q 675 1206 614 1269 q 736 1044 736 1143 l 600 1044 q 572 1125 596 1093 q 515 1157 547 1157 z "},"Ū":{"ha":1032,"x_min":71,"x_max":961,"o":"m 515 -8 q 313 31 397 -8 q 174 138 228 69 q 96 294 121 206 q 71 479 71 382 l 71 986 l 342 986 l 342 479 q 351 386 342 431 q 382 307 361 342 q 435 252 403 272 q 515 232 468 232 q 597 252 564 232 q 651 308 631 272 q 681 388 671 343 q 690 479 690 432 l 690 986 l 961 986 l 961 479 q 934 288 961 376 q 853 132 907 199 q 715 28 799 65 q 515 -8 631 -8 m 301 1099 l 301 1256 l 732 1256 l 732 1099 l 301 1099 z "},"Ṻ":{"ha":1032,"x_min":71,"x_max":961,"o":"m 515 -8 q 313 31 397 -8 q 174 138 228 69 q 96 294 121 206 q 71 479 71 382 l 71 986 l 342 986 l 342 479 q 351 386 342 431 q 382 307 361 342 q 435 252 403 272 q 515 232 468 232 q 597 252 564 232 q 651 308 631 272 q 681 388 671 343 q 690 479 690 432 l 690 986 l 961 986 l 961 479 q 934 288 961 376 q 853 132 907 199 q 715 28 799 65 q 515 -8 631 -8 m 301 1099 l 301 1256 l 732 1256 l 732 1099 l 301 1099 m 249 1332 l 249 1526 l 465 1526 l 465 1332 l 249 1332 m 568 1332 l 568 1526 l 785 1526 l 785 1332 l 568 1332 z "},"Ų":{"ha":1032,"x_min":71,"x_max":961,"o":"m 515 -8 q 313 31 397 -8 q 174 138 228 69 q 96 294 121 206 q 71 479 71 382 l 71 986 l 342 986 l 342 479 q 351 386 342 431 q 382 307 361 342 q 435 252 403 272 q 515 232 468 232 q 597 252 564 232 q 651 308 631 272 q 681 388 671 343 q 690 479 690 432 l 690 986 l 961 986 l 961 479 q 934 288 961 376 q 853 132 907 199 q 715 28 799 65 q 515 -8 631 -8 m 385 -151 q 424 -49 385 -101 q 542 42 464 3 l 629 42 l 647 8 q 574 -48 600 -19 q 547 -100 547 -76 q 571 -137 547 -122 q 644 -151 594 -151 l 596 -290 q 478 -262 525 -282 q 408 -212 431 -242 q 385 -151 385 -183 z "},"Ů":{"ha":1032,"x_min":71,"x_max":961,"o":"m 515 -8 q 313 31 397 -8 q 174 138 228 69 q 96 294 121 206 q 71 479 71 382 l 71 986 l 342 986 l 342 479 q 351 386 342 431 q 382 307 361 342 q 435 252 403 272 q 515 232 468 232 q 597 252 564 232 q 651 308 631 272 q 681 388 671 343 q 690 479 690 432 l 690 986 l 961 986 l 961 479 q 934 288 961 376 q 853 132 907 199 q 715 28 799 65 q 515 -8 631 -8 m 353 1149 q 397 1244 353 1210 q 515 1279 442 1279 q 633 1244 589 1279 q 678 1149 678 1210 q 633 1053 678 1089 q 515 1018 589 1018 q 397 1053 442 1018 q 353 1149 353 1089 m 515 1201 q 476 1185 492 1201 q 460 1150 460 1169 q 476 1113 460 1129 q 515 1096 492 1096 q 555 1113 539 1096 q 571 1150 571 1129 q 555 1185 571 1169 q 515 1201 539 1201 z "},"Ũ":{"ha":1032,"x_min":71,"x_max":961,"o":"m 515 -8 q 313 31 397 -8 q 174 138 228 69 q 96 294 121 206 q 71 479 71 382 l 71 986 l 342 986 l 342 479 q 351 386 342 431 q 382 307 361 342 q 435 252 403 272 q 515 232 468 232 q 597 252 564 232 q 651 308 631 272 q 681 388 671 343 q 690 479 690 432 l 690 986 l 961 986 l 961 479 q 934 288 961 376 q 853 132 907 199 q 715 28 799 65 q 515 -8 631 -8 m 611 1050 q 539 1067 569 1050 q 483 1100 508 1083 q 425 1117 457 1117 q 381 1101 394 1117 q 364 1068 367 1085 q 361 1050 361 1051 l 221 1050 q 231 1104 221 1068 q 265 1178 242 1140 q 326 1243 289 1217 q 414 1269 363 1269 q 489 1251 460 1269 q 544 1216 518 1233 q 601 1199 569 1199 q 647 1215 632 1199 q 666 1250 661 1232 q 671 1269 671 1268 l 810 1269 q 799 1222 810 1257 q 764 1148 788 1188 q 703 1079 740 1108 q 611 1050 665 1050 z "},"Ṹ":{"ha":1032,"x_min":71,"x_max":961,"o":"m 515 -8 q 313 31 397 -8 q 174 138 228 69 q 96 294 121 206 q 71 479 71 382 l 71 986 l 342 986 l 342 479 q 351 386 342 431 q 382 307 361 342 q 435 252 403 272 q 515 232 468 232 q 597 252 564 232 q 651 308 631 272 q 681 388 671 343 q 690 479 690 432 l 690 986 l 961 986 l 961 479 q 934 288 961 376 q 853 132 907 199 q 715 28 799 65 q 515 -8 631 -8 m 611 1050 q 539 1067 569 1050 q 483 1100 508 1083 q 425 1117 457 1117 q 381 1101 394 1117 q 364 1068 367 1085 q 361 1050 361 1051 l 221 1050 q 231 1104 221 1068 q 265 1178 242 1140 q 326 1243 289 1217 q 414 1269 363 1269 q 489 1251 460 1269 q 544 1216 518 1233 q 601 1199 569 1199 q 647 1215 632 1199 q 666 1250 661 1232 q 671 1269 671 1268 l 810 1269 q 799 1222 810 1257 q 764 1148 788 1188 q 703 1079 740 1108 q 611 1050 665 1050 m 599 1311 l 432 1356 l 501 1553 l 736 1553 l 599 1311 z "},"V":{"ha":933,"x_min":-11,"x_max":943,"o":"m 275 986 l 468 313 l 658 986 l 943 986 l 603 0 l 333 0 l -11 986 l 275 986 z "},"W":{"ha":1468,"x_min":-17,"x_max":1485,"o":"m 394 986 l 643 986 l 733 682 l 825 986 l 1074 986 l 907 515 l 978 314 l 1190 986 l 1485 986 l 1113 0 l 878 0 l 733 353 l 590 0 l 356 0 l -17 986 l 276 986 l 490 314 l 558 515 l 394 986 z "},"Ẃ":{"ha":1468,"x_min":-17,"x_max":1485,"o":"m 394 986 l 643 986 l 733 682 l 825 986 l 1074 986 l 907 515 l 978 314 l 1190 986 l 1485 986 l 1113 0 l 878 0 l 733 353 l 590 0 l 356 0 l -17 986 l 276 986 l 490 314 l 558 515 l 394 986 m 817 1028 l 650 1072 l 719 1269 l 954 1269 l 817 1028 z "},"Ŵ":{"ha":1468,"x_min":-17,"x_max":1485,"o":"m 394 986 l 643 986 l 733 682 l 825 986 l 1074 986 l 907 515 l 978 314 l 1190 986 l 1485 986 l 1113 0 l 878 0 l 733 353 l 590 0 l 356 0 l -17 986 l 276 986 l 490 314 l 558 515 l 394 986 m 482 1110 l 639 1269 l 828 1269 l 985 1110 l 851 1051 l 733 1139 l 615 1051 l 482 1110 z "},"Ẅ":{"ha":1468,"x_min":-17,"x_max":1485,"o":"m 394 986 l 643 986 l 733 682 l 825 986 l 1074 986 l 907 515 l 978 314 l 1190 986 l 1485 986 l 1113 0 l 878 0 l 733 353 l 590 0 l 356 0 l -17 986 l 276 986 l 490 314 l 558 515 l 394 986 m 465 1063 l 465 1257 l 682 1257 l 682 1063 l 465 1063 m 785 1063 l 785 1257 l 1001 1257 l 1001 1063 l 785 1063 z "},"Ẁ":{"ha":1468,"x_min":-17,"x_max":1485,"o":"m 394 986 l 643 986 l 733 682 l 825 986 l 1074 986 l 907 515 l 978 314 l 1190 986 l 1485 986 l 1113 0 l 878 0 l 733 353 l 590 0 l 356 0 l -17 986 l 276 986 l 490 314 l 558 515 l 394 986 m 525 1269 l 760 1269 l 829 1072 l 663 1028 l 525 1269 z "},"X":{"ha":913,"x_min":-15,"x_max":928,"o":"m 278 986 l 457 675 l 636 986 l 928 986 l 618 486 l 917 0 l 625 0 l 457 297 l 289 0 l -4 0 l 294 486 l -15 986 l 278 986 z "},"Y":{"ha":925,"x_min":-8,"x_max":936,"o":"m 285 986 l 461 583 l 642 986 l 936 986 l 596 326 l 596 0 l 326 0 l 326 329 l -8 986 l 285 986 z "},"Ý":{"ha":925,"x_min":-8,"x_max":936,"o":"m 285 986 l 461 583 l 642 986 l 936 986 l 596 326 l 596 0 l 326 0 l 326 329 l -8 986 l 285 986 m 544 1028 l 378 1072 l 447 1269 l 682 1269 l 544 1028 z "},"Ŷ":{"ha":925,"x_min":-8,"x_max":936,"o":"m 285 986 l 461 583 l 642 986 l 936 986 l 596 326 l 596 0 l 326 0 l 326 329 l -8 986 l 285 986 m 210 1110 l 367 1269 l 556 1269 l 713 1110 l 579 1051 l 461 1139 l 343 1051 l 210 1110 z "},"Ÿ":{"ha":925,"x_min":-8,"x_max":936,"o":"m 285 986 l 461 583 l 642 986 l 936 986 l 596 326 l 596 0 l 326 0 l 326 329 l -8 986 l 285 986 m 193 1063 l 193 1257 l 410 1257 l 410 1063 l 193 1063 m 513 1063 l 513 1257 l 729 1257 l 729 1063 l 513 1063 z "},"Ẏ":{"ha":925,"x_min":-8,"x_max":936,"o":"m 285 986 l 461 583 l 642 986 l 936 986 l 596 326 l 596 0 l 326 0 l 326 329 l -8 986 l 285 986 m 343 1061 l 343 1269 l 579 1269 l 579 1061 l 343 1061 z "},"Ỵ":{"ha":925,"x_min":-8,"x_max":936,"o":"m 285 986 l 461 583 l 642 986 l 936 986 l 596 326 l 596 0 l 326 0 l 326 329 l -8 986 l 285 986 m 344 -297 l 344 -89 l 581 -89 l 581 -297 l 344 -297 z "},"Ỳ":{"ha":925,"x_min":-8,"x_max":936,"o":"m 285 986 l 461 583 l 642 986 l 936 986 l 596 326 l 596 0 l 326 0 l 326 329 l -8 986 l 285 986 m 253 1269 l 488 1269 l 557 1072 l 390 1028 l 253 1269 z "},"Ỷ":{"ha":925,"x_min":-8,"x_max":936,"o":"m 285 986 l 461 583 l 642 986 l 936 986 l 596 326 l 596 0 l 326 0 l 326 329 l -8 986 l 285 986 m 383 1194 l 313 1264 q 394 1327 356 1308 q 474 1346 433 1346 q 572 1314 535 1346 q 610 1229 610 1282 q 585 1138 610 1174 q 507 1058 560 1101 l 444 1124 q 481 1156 468 1139 q 494 1190 494 1172 q 483 1220 494 1208 q 453 1232 472 1232 q 419 1222 433 1232 q 383 1194 404 1213 z "},"Ȳ":{"ha":925,"x_min":-8,"x_max":936,"o":"m 285 986 l 461 583 l 642 986 l 936 986 l 596 326 l 596 0 l 326 0 l 326 329 l -8 986 l 285 986 m 247 1099 l 247 1256 l 678 1256 l 678 1099 l 247 1099 z "},"Ỹ":{"ha":925,"x_min":-8,"x_max":936,"o":"m 285 986 l 461 583 l 642 986 l 936 986 l 596 326 l 596 0 l 326 0 l 326 329 l -8 986 l 285 986 m 557 1050 q 485 1067 515 1050 q 428 1100 454 1083 q 371 1117 403 1117 q 326 1101 340 1117 q 310 1068 313 1085 q 307 1050 307 1051 l 167 1050 q 177 1104 167 1068 q 211 1178 188 1140 q 272 1243 235 1217 q 360 1269 308 1269 q 435 1251 406 1269 q 490 1216 464 1233 q 547 1199 515 1199 q 592 1215 578 1199 q 612 1250 607 1232 q 617 1269 617 1268 l 756 1269 q 744 1222 756 1257 q 710 1148 733 1188 q 649 1079 686 1108 q 557 1050 611 1050 z "},"Z":{"ha":864,"x_min":38,"x_max":819,"o":"m 38 201 l 485 750 l 58 750 l 58 986 l 811 986 l 811 785 l 392 236 l 819 236 l 819 0 l 38 0 l 38 201 z "},"Ź":{"ha":864,"x_min":38,"x_max":819,"o":"m 38 201 l 485 750 l 58 750 l 58 986 l 811 986 l 811 785 l 392 236 l 819 236 l 819 0 l 38 0 l 38 201 m 528 1028 l 361 1072 l 431 1269 l 665 1269 l 528 1028 z "},"Ž":{"ha":864,"x_min":38,"x_max":819,"o":"m 38 201 l 485 750 l 58 750 l 58 986 l 811 986 l 811 785 l 392 236 l 819 236 l 819 0 l 38 0 l 38 201 m 326 1269 l 444 1182 l 563 1269 l 696 1211 l 539 1051 l 350 1051 l 193 1211 l 326 1269 z "},"Ż":{"ha":864,"x_min":38,"x_max":819,"o":"m 38 201 l 485 750 l 58 750 l 58 986 l 811 986 l 811 785 l 392 236 l 819 236 l 819 0 l 38 0 l 38 201 m 326 1061 l 326 1269 l 563 1269 l 563 1061 l 326 1061 z "},"Ẓ":{"ha":864,"x_min":38,"x_max":819,"o":"m 38 201 l 485 750 l 58 750 l 58 986 l 811 986 l 811 785 l 392 236 l 819 236 l 819 0 l 38 0 l 38 201 m 314 -297 l 314 -89 l 550 -89 l 550 -297 l 314 -297 z "},"a":{"ha":832,"x_min":26,"x_max":803,"o":"m 26 221 q 67 351 26 294 q 178 439 107 407 q 342 471 250 471 q 423 464 385 471 q 489 443 461 457 l 489 465 q 459 542 489 517 q 363 567 429 567 q 248 547 301 567 q 136 488 194 526 l 60 651 q 215 722 133 699 q 389 744 296 744 q 658 666 563 744 q 753 433 753 588 l 753 292 q 764 240 753 254 q 803 222 775 225 l 803 0 q 742 -10 771 -7 q 692 -14 714 -14 q 584 12 621 -14 q 536 88 547 38 l 531 114 q 418 19 482 51 q 282 -14 354 -14 q 151 17 210 -14 q 60 101 93 47 q 26 221 26 154 m 454 203 q 479 227 469 214 q 489 254 489 240 l 489 308 q 438 322 467 317 q 388 328 410 328 q 308 304 340 328 q 275 244 275 281 q 286 209 275 225 q 317 184 297 193 q 361 175 336 175 q 410 183 385 175 q 454 203 436 190 z "},"á":{"ha":832,"x_min":26,"x_max":803,"o":"m 26 221 q 67 351 26 294 q 178 439 107 407 q 342 471 250 471 q 423 464 385 471 q 489 443 461 457 l 489 465 q 459 542 489 517 q 363 567 429 567 q 248 547 301 567 q 136 488 194 526 l 60 651 q 215 722 133 699 q 389 744 296 744 q 658 666 563 744 q 753 433 753 588 l 753 292 q 764 240 753 254 q 803 222 775 225 l 803 0 q 742 -10 771 -7 q 692 -14 714 -14 q 584 12 621 -14 q 536 88 547 38 l 531 114 q 418 19 482 51 q 282 -14 354 -14 q 151 17 210 -14 q 60 101 93 47 q 26 221 26 154 m 454 203 q 479 227 469 214 q 489 254 489 240 l 489 308 q 438 322 467 317 q 388 328 410 328 q 308 304 340 328 q 275 244 275 281 q 286 209 275 225 q 317 184 297 193 q 361 175 336 175 q 410 183 385 175 q 454 203 436 190 m 472 772 l 306 817 l 375 1014 l 610 1014 l 472 772 z "},"ă":{"ha":832,"x_min":26,"x_max":803,"o":"m 26 221 q 67 351 26 294 q 178 439 107 407 q 342 471 250 471 q 423 464 385 471 q 489 443 461 457 l 489 465 q 459 542 489 517 q 363 567 429 567 q 248 547 301 567 q 136 488 194 526 l 60 651 q 215 722 133 699 q 389 744 296 744 q 658 666 563 744 q 753 433 753 588 l 753 292 q 764 240 753 254 q 803 222 775 225 l 803 0 q 742 -10 771 -7 q 692 -14 714 -14 q 584 12 621 -14 q 536 88 547 38 l 531 114 q 418 19 482 51 q 282 -14 354 -14 q 151 17 210 -14 q 60 101 93 47 q 26 221 26 154 m 454 203 q 479 227 469 214 q 489 254 489 240 l 489 308 q 438 322 467 317 q 388 328 410 328 q 308 304 340 328 q 275 244 275 281 q 286 209 275 225 q 317 184 297 193 q 361 175 336 175 q 410 183 385 175 q 454 203 436 190 m 389 901 q 445 933 421 901 q 474 1014 469 965 l 610 1014 q 549 852 610 915 q 389 789 488 789 q 230 852 292 789 q 168 1014 168 915 l 304 1014 q 329 935 304 968 q 389 901 354 901 z "},"ắ":{"ha":832,"x_min":26,"x_max":803,"o":"m 26 221 q 67 351 26 294 q 178 439 107 407 q 342 471 250 471 q 423 464 385 471 q 489 443 461 457 l 489 465 q 459 542 489 517 q 363 567 429 567 q 248 547 301 567 q 136 488 194 526 l 60 651 q 215 722 133 699 q 389 744 296 744 q 658 666 563 744 q 753 433 753 588 l 753 292 q 764 240 753 254 q 803 222 775 225 l 803 0 q 742 -10 771 -7 q 692 -14 714 -14 q 584 12 621 -14 q 536 88 547 38 l 531 114 q 418 19 482 51 q 282 -14 354 -14 q 151 17 210 -14 q 60 101 93 47 q 26 221 26 154 m 454 203 q 479 227 469 214 q 489 254 489 240 l 489 308 q 438 322 467 317 q 388 328 410 328 q 308 304 340 328 q 275 244 275 281 q 286 209 275 225 q 317 184 297 193 q 361 175 336 175 q 410 183 385 175 q 454 203 436 190 z "},"ặ":{"ha":832,"x_min":26,"x_max":803,"o":"m 26 221 q 67 351 26 294 q 178 439 107 407 q 342 471 250 471 q 423 464 385 471 q 489 443 461 457 l 489 465 q 459 542 489 517 q 363 567 429 567 q 248 547 301 567 q 136 488 194 526 l 60 651 q 215 722 133 699 q 389 744 296 744 q 658 666 563 744 q 753 433 753 588 l 753 292 q 764 240 753 254 q 803 222 775 225 l 803 0 q 742 -10 771 -7 q 692 -14 714 -14 q 584 12 621 -14 q 536 88 547 38 l 531 114 q 418 19 482 51 q 282 -14 354 -14 q 151 17 210 -14 q 60 101 93 47 q 26 221 26 154 m 454 203 q 479 227 469 214 q 489 254 489 240 l 489 308 q 438 322 467 317 q 388 328 410 328 q 308 304 340 328 q 275 244 275 281 q 286 209 275 225 q 317 184 297 193 q 361 175 336 175 q 410 183 385 175 q 454 203 436 190 m 297 -297 l 297 -89 l 533 -89 l 533 -297 l 297 -297 m 389 901 q 445 933 421 901 q 474 1014 469 965 l 610 1014 q 549 852 610 915 q 389 789 488 789 q 230 852 292 789 q 168 1014 168 915 l 304 1014 q 329 935 304 968 q 389 901 354 901 z "},"ằ":{"ha":832,"x_min":26,"x_max":803,"o":"m 26 221 q 67 351 26 294 q 178 439 107 407 q 342 471 250 471 q 423 464 385 471 q 489 443 461 457 l 489 465 q 459 542 489 517 q 363 567 429 567 q 248 547 301 567 q 136 488 194 526 l 60 651 q 215 722 133 699 q 389 744 296 744 q 658 666 563 744 q 753 433 753 588 l 753 292 q 764 240 753 254 q 803 222 775 225 l 803 0 q 742 -10 771 -7 q 692 -14 714 -14 q 584 12 621 -14 q 536 88 547 38 l 531 114 q 418 19 482 51 q 282 -14 354 -14 q 151 17 210 -14 q 60 101 93 47 q 26 221 26 154 m 454 203 q 479 227 469 214 q 489 254 489 240 l 489 308 q 438 322 467 317 q 388 328 410 328 q 308 304 340 328 q 275 244 275 281 q 286 209 275 225 q 317 184 297 193 q 361 175 336 175 q 410 183 385 175 q 454 203 436 190 z "},"ẳ":{"ha":832,"x_min":26,"x_max":803,"o":"m 26 221 q 67 351 26 294 q 178 439 107 407 q 342 471 250 471 q 423 464 385 471 q 489 443 461 457 l 489 465 q 459 542 489 517 q 363 567 429 567 q 248 547 301 567 q 136 488 194 526 l 60 651 q 215 722 133 699 q 389 744 296 744 q 658 666 563 744 q 753 433 753 588 l 753 292 q 764 240 753 254 q 803 222 775 225 l 803 0 q 742 -10 771 -7 q 692 -14 714 -14 q 584 12 621 -14 q 536 88 547 38 l 531 114 q 418 19 482 51 q 282 -14 354 -14 q 151 17 210 -14 q 60 101 93 47 q 26 221 26 154 m 454 203 q 479 227 469 214 q 489 254 489 240 l 489 308 q 438 322 467 317 q 388 328 410 328 q 308 304 340 328 q 275 244 275 281 q 286 209 275 225 q 317 184 297 193 q 361 175 336 175 q 410 183 385 175 q 454 203 436 190 z "},"ẵ":{"ha":832,"x_min":26,"x_max":803,"o":"m 26 221 q 67 351 26 294 q 178 439 107 407 q 342 471 250 471 q 423 464 385 471 q 489 443 461 457 l 489 465 q 459 542 489 517 q 363 567 429 567 q 248 547 301 567 q 136 488 194 526 l 60 651 q 215 722 133 699 q 389 744 296 744 q 658 666 563 744 q 753 433 753 588 l 753 292 q 764 240 753 254 q 803 222 775 225 l 803 0 q 742 -10 771 -7 q 692 -14 714 -14 q 584 12 621 -14 q 536 88 547 38 l 531 114 q 418 19 482 51 q 282 -14 354 -14 q 151 17 210 -14 q 60 101 93 47 q 26 221 26 154 m 454 203 q 479 227 469 214 q 489 254 489 240 l 489 308 q 438 322 467 317 q 388 328 410 328 q 308 304 340 328 q 275 244 275 281 q 286 209 275 225 q 317 184 297 193 q 361 175 336 175 q 410 183 385 175 q 454 203 436 190 z "},"â":{"ha":832,"x_min":26,"x_max":803,"o":"m 26 221 q 67 351 26 294 q 178 439 107 407 q 342 471 250 471 q 423 464 385 471 q 489 443 461 457 l 489 465 q 459 542 489 517 q 363 567 429 567 q 248 547 301 567 q 136 488 194 526 l 60 651 q 215 722 133 699 q 389 744 296 744 q 658 666 563 744 q 753 433 753 588 l 753 292 q 764 240 753 254 q 803 222 775 225 l 803 0 q 742 -10 771 -7 q 692 -14 714 -14 q 584 12 621 -14 q 536 88 547 38 l 531 114 q 418 19 482 51 q 282 -14 354 -14 q 151 17 210 -14 q 60 101 93 47 q 26 221 26 154 m 454 203 q 479 227 469 214 q 489 254 489 240 l 489 308 q 438 322 467 317 q 388 328 410 328 q 308 304 340 328 q 275 244 275 281 q 286 209 275 225 q 317 184 297 193 q 361 175 336 175 q 410 183 385 175 q 454 203 436 190 m 138 854 l 294 1014 l 483 1014 l 640 854 l 507 796 l 389 883 l 271 796 l 138 854 z "},"ấ":{"ha":832,"x_min":26,"x_max":846,"o":"m 26 221 q 67 351 26 294 q 178 439 107 407 q 342 471 250 471 q 423 464 385 471 q 489 443 461 457 l 489 465 q 459 542 489 517 q 363 567 429 567 q 248 547 301 567 q 136 488 194 526 l 60 651 q 215 722 133 699 q 389 744 296 744 q 658 666 563 744 q 753 433 753 588 l 753 292 q 764 240 753 254 q 803 222 775 225 l 803 0 q 742 -10 771 -7 q 692 -14 714 -14 q 584 12 621 -14 q 536 88 547 38 l 531 114 q 418 19 482 51 q 282 -14 354 -14 q 151 17 210 -14 q 60 101 93 47 q 26 221 26 154 m 454 203 q 479 227 469 214 q 489 254 489 240 l 489 308 q 438 322 467 317 q 388 328 410 328 q 308 304 340 328 q 275 244 275 281 q 286 209 275 225 q 317 184 297 193 q 361 175 336 175 q 410 183 385 175 q 454 203 436 190 z "},"ậ":{"ha":832,"x_min":26,"x_max":803,"o":"m 26 221 q 67 351 26 294 q 178 439 107 407 q 342 471 250 471 q 423 464 385 471 q 489 443 461 457 l 489 465 q 459 542 489 517 q 363 567 429 567 q 248 547 301 567 q 136 488 194 526 l 60 651 q 215 722 133 699 q 389 744 296 744 q 658 666 563 744 q 753 433 753 588 l 753 292 q 764 240 753 254 q 803 222 775 225 l 803 0 q 742 -10 771 -7 q 692 -14 714 -14 q 584 12 621 -14 q 536 88 547 38 l 531 114 q 418 19 482 51 q 282 -14 354 -14 q 151 17 210 -14 q 60 101 93 47 q 26 221 26 154 m 454 203 q 479 227 469 214 q 489 254 489 240 l 489 308 q 438 322 467 317 q 388 328 410 328 q 308 304 340 328 q 275 244 275 281 q 286 209 275 225 q 317 184 297 193 q 361 175 336 175 q 410 183 385 175 q 454 203 436 190 m 297 -297 l 297 -89 l 533 -89 l 533 -297 l 297 -297 m 138 854 l 294 1014 l 483 1014 l 640 854 l 507 796 l 389 883 l 271 796 l 138 854 z "},"ầ":{"ha":832,"x_min":-90,"x_max":803,"o":"m 26 221 q 67 351 26 294 q 178 439 107 407 q 342 471 250 471 q 423 464 385 471 q 489 443 461 457 l 489 465 q 459 542 489 517 q 363 567 429 567 q 248 547 301 567 q 136 488 194 526 l 60 651 q 215 722 133 699 q 389 744 296 744 q 658 666 563 744 q 753 433 753 588 l 753 292 q 764 240 753 254 q 803 222 775 225 l 803 0 q 742 -10 771 -7 q 692 -14 714 -14 q 584 12 621 -14 q 536 88 547 38 l 531 114 q 418 19 482 51 q 282 -14 354 -14 q 151 17 210 -14 q 60 101 93 47 q 26 221 26 154 m 454 203 q 479 227 469 214 q 489 254 489 240 l 489 308 q 438 322 467 317 q 388 328 410 328 q 308 304 340 328 q 275 244 275 281 q 286 209 275 225 q 317 184 297 193 q 361 175 336 175 q 410 183 385 175 q 454 203 436 190 z "},"ẩ":{"ha":832,"x_min":26,"x_max":803,"o":"m 26 221 q 67 351 26 294 q 178 439 107 407 q 342 471 250 471 q 423 464 385 471 q 489 443 461 457 l 489 465 q 459 542 489 517 q 363 567 429 567 q 248 547 301 567 q 136 488 194 526 l 60 651 q 215 722 133 699 q 389 744 296 744 q 658 666 563 744 q 753 433 753 588 l 753 292 q 764 240 753 254 q 803 222 775 225 l 803 0 q 742 -10 771 -7 q 692 -14 714 -14 q 584 12 621 -14 q 536 88 547 38 l 531 114 q 418 19 482 51 q 282 -14 354 -14 q 151 17 210 -14 q 60 101 93 47 q 26 221 26 154 m 454 203 q 479 227 469 214 q 489 254 489 240 l 489 308 q 438 322 467 317 q 388 328 410 328 q 308 304 340 328 q 275 244 275 281 q 286 209 275 225 q 317 184 297 193 q 361 175 336 175 q 410 183 385 175 q 454 203 436 190 z "},"ẫ":{"ha":832,"x_min":26,"x_max":803,"o":"m 26 221 q 67 351 26 294 q 178 439 107 407 q 342 471 250 471 q 423 464 385 471 q 489 443 461 457 l 489 465 q 459 542 489 517 q 363 567 429 567 q 248 547 301 567 q 136 488 194 526 l 60 651 q 215 722 133 699 q 389 744 296 744 q 658 666 563 744 q 753 433 753 588 l 753 292 q 764 240 753 254 q 803 222 775 225 l 803 0 q 742 -10 771 -7 q 692 -14 714 -14 q 584 12 621 -14 q 536 88 547 38 l 531 114 q 418 19 482 51 q 282 -14 354 -14 q 151 17 210 -14 q 60 101 93 47 q 26 221 26 154 m 454 203 q 479 227 469 214 q 489 254 489 240 l 489 308 q 438 322 467 317 q 388 328 410 328 q 308 304 340 328 q 275 244 275 281 q 286 209 275 225 q 317 184 297 193 q 361 175 336 175 q 410 183 385 175 q 454 203 436 190 z "},"ȁ":{"ha":832,"x_min":26,"x_max":803,"o":"m 26 221 q 67 351 26 294 q 178 439 107 407 q 342 471 250 471 q 423 464 385 471 q 489 443 461 457 l 489 465 q 459 542 489 517 q 363 567 429 567 q 248 547 301 567 q 136 488 194 526 l 60 651 q 215 722 133 699 q 389 744 296 744 q 658 666 563 744 q 753 433 753 588 l 753 292 q 764 240 753 254 q 803 222 775 225 l 803 0 q 742 -10 771 -7 q 692 -14 714 -14 q 584 12 621 -14 q 536 88 547 38 l 531 114 q 418 19 482 51 q 282 -14 354 -14 q 151 17 210 -14 q 60 101 93 47 q 26 221 26 154 m 454 203 q 479 227 469 214 q 489 254 489 240 l 489 308 q 438 322 467 317 q 388 328 410 328 q 308 304 340 328 q 275 244 275 281 q 286 209 275 225 q 317 184 297 193 q 361 175 336 175 q 410 183 385 175 q 454 203 436 190 m 351 1015 l 544 1015 l 600 818 l 475 774 l 351 1015 m 88 1015 l 281 1015 l 336 818 l 211 774 l 88 1015 z "},"ä":{"ha":832,"x_min":26,"x_max":803,"o":"m 26 221 q 67 351 26 294 q 178 439 107 407 q 342 471 250 471 q 423 464 385 471 q 489 443 461 457 l 489 465 q 459 542 489 517 q 363 567 429 567 q 248 547 301 567 q 136 488 194 526 l 60 651 q 215 722 133 699 q 389 744 296 744 q 658 666 563 744 q 753 433 753 588 l 753 292 q 764 240 753 254 q 803 222 775 225 l 803 0 q 742 -10 771 -7 q 692 -14 714 -14 q 584 12 621 -14 q 536 88 547 38 l 531 114 q 418 19 482 51 q 282 -14 354 -14 q 151 17 210 -14 q 60 101 93 47 q 26 221 26 154 m 454 203 q 479 227 469 214 q 489 254 489 240 l 489 308 q 438 322 467 317 q 388 328 410 328 q 308 304 340 328 q 275 244 275 281 q 286 209 275 225 q 317 184 297 193 q 361 175 336 175 q 410 183 385 175 q 454 203 436 190 m 121 807 l 121 1001 l 338 1001 l 338 807 l 121 807 m 440 807 l 440 1001 l 657 1001 l 657 807 l 440 807 z "},"ạ":{"ha":832,"x_min":26,"x_max":803,"o":"m 26 221 q 67 351 26 294 q 178 439 107 407 q 342 471 250 471 q 423 464 385 471 q 489 443 461 457 l 489 465 q 459 542 489 517 q 363 567 429 567 q 248 547 301 567 q 136 488 194 526 l 60 651 q 215 722 133 699 q 389 744 296 744 q 658 666 563 744 q 753 433 753 588 l 753 292 q 764 240 753 254 q 803 222 775 225 l 803 0 q 742 -10 771 -7 q 692 -14 714 -14 q 584 12 621 -14 q 536 88 547 38 l 531 114 q 418 19 482 51 q 282 -14 354 -14 q 151 17 210 -14 q 60 101 93 47 q 26 221 26 154 m 454 203 q 479 227 469 214 q 489 254 489 240 l 489 308 q 438 322 467 317 q 388 328 410 328 q 308 304 340 328 q 275 244 275 281 q 286 209 275 225 q 317 184 297 193 q 361 175 336 175 q 410 183 385 175 q 454 203 436 190 m 297 -297 l 297 -89 l 533 -89 l 533 -297 l 297 -297 z "},"à":{"ha":832,"x_min":26,"x_max":803,"o":"m 26 221 q 67 351 26 294 q 178 439 107 407 q 342 471 250 471 q 423 464 385 471 q 489 443 461 457 l 489 465 q 459 542 489 517 q 363 567 429 567 q 248 547 301 567 q 136 488 194 526 l 60 651 q 215 722 133 699 q 389 744 296 744 q 658 666 563 744 q 753 433 753 588 l 753 292 q 764 240 753 254 q 803 222 775 225 l 803 0 q 742 -10 771 -7 q 692 -14 714 -14 q 584 12 621 -14 q 536 88 547 38 l 531 114 q 418 19 482 51 q 282 -14 354 -14 q 151 17 210 -14 q 60 101 93 47 q 26 221 26 154 m 454 203 q 479 227 469 214 q 489 254 489 240 l 489 308 q 438 322 467 317 q 388 328 410 328 q 308 304 340 328 q 275 244 275 281 q 286 209 275 225 q 317 184 297 193 q 361 175 336 175 q 410 183 385 175 q 454 203 436 190 m 181 1014 l 415 1014 l 485 817 l 318 772 l 181 1014 z "},"ả":{"ha":832,"x_min":26,"x_max":803,"o":"m 26 221 q 67 351 26 294 q 178 439 107 407 q 342 471 250 471 q 423 464 385 471 q 489 443 461 457 l 489 465 q 459 542 489 517 q 363 567 429 567 q 248 547 301 567 q 136 488 194 526 l 60 651 q 215 722 133 699 q 389 744 296 744 q 658 666 563 744 q 753 433 753 588 l 753 292 q 764 240 753 254 q 803 222 775 225 l 803 0 q 742 -10 771 -7 q 692 -14 714 -14 q 584 12 621 -14 q 536 88 547 38 l 531 114 q 418 19 482 51 q 282 -14 354 -14 q 151 17 210 -14 q 60 101 93 47 q 26 221 26 154 m 454 203 q 479 227 469 214 q 489 254 489 240 l 489 308 q 438 322 467 317 q 388 328 410 328 q 308 304 340 328 q 275 244 275 281 q 286 209 275 225 q 317 184 297 193 q 361 175 336 175 q 410 183 385 175 q 454 203 436 190 m 311 939 l 240 1008 q 322 1072 283 1053 q 401 1090 361 1090 q 500 1058 463 1090 q 538 974 538 1026 q 513 882 538 918 q 435 803 488 846 l 372 868 q 409 900 396 883 q 422 935 422 917 q 411 965 422 953 q 381 976 400 976 q 347 967 361 976 q 311 939 332 957 z "},"ȃ":{"ha":832,"x_min":26,"x_max":803,"o":"m 26 221 q 67 351 26 294 q 178 439 107 407 q 342 471 250 471 q 423 464 385 471 q 489 443 461 457 l 489 465 q 459 542 489 517 q 363 567 429 567 q 248 547 301 567 q 136 488 194 526 l 60 651 q 215 722 133 699 q 389 744 296 744 q 658 666 563 744 q 753 433 753 588 l 753 292 q 764 240 753 254 q 803 222 775 225 l 803 0 q 742 -10 771 -7 q 692 -14 714 -14 q 584 12 621 -14 q 536 88 547 38 l 531 114 q 418 19 482 51 q 282 -14 354 -14 q 151 17 210 -14 q 60 101 93 47 q 26 221 26 154 m 454 203 q 479 227 469 214 q 489 254 489 240 l 489 308 q 438 322 467 317 q 388 328 410 328 q 308 304 340 328 q 275 244 275 281 q 286 209 275 225 q 317 184 297 193 q 361 175 336 175 q 410 183 385 175 q 454 203 436 190 m 389 901 q 329 868 354 901 q 304 789 304 835 l 168 789 q 230 951 168 888 q 389 1014 292 1014 q 549 951 488 1014 q 610 789 610 888 l 474 789 q 445 869 469 838 q 389 901 421 901 z "},"ā":{"ha":832,"x_min":26,"x_max":803,"o":"m 26 221 q 67 351 26 294 q 178 439 107 407 q 342 471 250 471 q 423 464 385 471 q 489 443 461 457 l 489 465 q 459 542 489 517 q 363 567 429 567 q 248 547 301 567 q 136 488 194 526 l 60 651 q 215 722 133 699 q 389 744 296 744 q 658 666 563 744 q 753 433 753 588 l 753 292 q 764 240 753 254 q 803 222 775 225 l 803 0 q 742 -10 771 -7 q 692 -14 714 -14 q 584 12 621 -14 q 536 88 547 38 l 531 114 q 418 19 482 51 q 282 -14 354 -14 q 151 17 210 -14 q 60 101 93 47 q 26 221 26 154 m 454 203 q 479 227 469 214 q 489 254 489 240 l 489 308 q 438 322 467 317 q 388 328 410 328 q 308 304 340 328 q 275 244 275 281 q 286 209 275 225 q 317 184 297 193 q 361 175 336 175 q 410 183 385 175 q 454 203 436 190 m 175 843 l 175 1000 l 606 1000 l 606 843 l 175 843 z "},"ą":{"ha":832,"x_min":26,"x_max":803,"o":"m 26 221 q 67 351 26 294 q 178 439 107 407 q 342 471 250 471 q 423 464 385 471 q 489 443 461 457 l 489 465 q 459 542 489 517 q 363 567 429 567 q 248 547 301 567 q 136 488 194 526 l 60 651 q 215 722 133 699 q 389 744 296 744 q 658 666 563 744 q 753 433 753 588 l 753 292 q 764 240 753 254 q 803 222 775 225 l 803 0 q 742 -10 771 -7 q 692 -14 714 -14 q 584 12 621 -14 q 536 88 547 38 l 531 114 q 418 19 482 51 q 282 -14 354 -14 q 151 17 210 -14 q 60 101 93 47 q 26 221 26 154 m 454 203 q 479 227 469 214 q 489 254 489 240 l 489 308 q 438 322 467 317 q 388 328 410 328 q 308 304 340 328 q 275 244 275 281 q 286 209 275 225 q 317 184 297 193 q 361 175 336 175 q 410 183 385 175 q 454 203 436 190 m 540 -160 q 580 -58 540 -110 q 697 33 619 -6 l 785 33 l 803 0 q 729 -56 756 -28 q 703 -108 703 -85 q 726 -145 703 -131 q 800 -160 750 -160 l 751 -299 q 633 -270 681 -290 q 563 -221 586 -250 q 540 -160 540 -192 z "},"å":{"ha":832,"x_min":26,"x_max":803,"o":"m 26 221 q 67 351 26 294 q 178 439 107 407 q 342 471 250 471 q 423 464 385 471 q 489 443 461 457 l 489 465 q 459 542 489 517 q 363 567 429 567 q 248 547 301 567 q 136 488 194 526 l 60 651 q 215 722 133 699 q 389 744 296 744 q 658 666 563 744 q 753 433 753 588 l 753 292 q 764 240 753 254 q 803 222 775 225 l 803 0 q 742 -10 771 -7 q 692 -14 714 -14 q 584 12 621 -14 q 536 88 547 38 l 531 114 q 418 19 482 51 q 282 -14 354 -14 q 151 17 210 -14 q 60 101 93 47 q 26 221 26 154 m 454 203 q 479 227 469 214 q 489 254 489 240 l 489 308 q 438 322 467 317 q 388 328 410 328 q 308 304 340 328 q 275 244 275 281 q 286 209 275 225 q 317 184 297 193 q 361 175 336 175 q 410 183 385 175 q 454 203 436 190 m 226 893 q 271 989 226 954 q 389 1024 315 1024 q 507 989 463 1024 q 551 893 551 954 q 507 798 551 833 q 389 763 463 763 q 271 798 315 763 q 226 893 226 833 m 389 946 q 349 930 365 946 q 333 894 333 914 q 349 857 333 874 q 389 840 365 840 q 428 857 413 840 q 444 894 444 874 q 428 930 444 914 q 389 946 413 946 z "},"ǻ":{"ha":832,"x_min":26,"x_max":803,"o":"m 26 221 q 67 351 26 294 q 178 439 107 407 q 342 471 250 471 q 423 464 385 471 q 489 443 461 457 l 489 465 q 459 542 489 517 q 363 567 429 567 q 248 547 301 567 q 136 488 194 526 l 60 651 q 215 722 133 699 q 389 744 296 744 q 658 666 563 744 q 753 433 753 588 l 753 292 q 764 240 753 254 q 803 222 775 225 l 803 0 q 742 -10 771 -7 q 692 -14 714 -14 q 584 12 621 -14 q 536 88 547 38 l 531 114 q 418 19 482 51 q 282 -14 354 -14 q 151 17 210 -14 q 60 101 93 47 q 26 221 26 154 m 454 203 q 479 227 469 214 q 489 254 489 240 l 489 308 q 438 322 467 317 q 388 328 410 328 q 308 304 340 328 q 275 244 275 281 q 286 209 275 225 q 317 184 297 193 q 361 175 336 175 q 410 183 385 175 q 454 203 436 190 m 226 893 q 271 989 226 954 q 389 1024 315 1024 q 507 989 463 1024 q 551 893 551 954 q 507 798 551 833 q 389 763 463 763 q 271 798 315 763 q 226 893 226 833 m 389 946 q 349 930 365 946 q 333 894 333 914 q 349 857 333 874 q 389 840 365 840 q 428 857 413 840 q 444 894 444 874 q 428 930 444 914 q 389 946 413 946 m 513 1028 l 346 1072 l 415 1269 l 650 1269 l 513 1028 z "},"ã":{"ha":832,"x_min":26,"x_max":803,"o":"m 26 221 q 67 351 26 294 q 178 439 107 407 q 342 471 250 471 q 423 464 385 471 q 489 443 461 457 l 489 465 q 459 542 489 517 q 363 567 429 567 q 248 547 301 567 q 136 488 194 526 l 60 651 q 215 722 133 699 q 389 744 296 744 q 658 666 563 744 q 753 433 753 588 l 753 292 q 764 240 753 254 q 803 222 775 225 l 803 0 q 742 -10 771 -7 q 692 -14 714 -14 q 584 12 621 -14 q 536 88 547 38 l 531 114 q 418 19 482 51 q 282 -14 354 -14 q 151 17 210 -14 q 60 101 93 47 q 26 221 26 154 m 454 203 q 479 227 469 214 q 489 254 489 240 l 489 308 q 438 322 467 317 q 388 328 410 328 q 308 304 340 328 q 275 244 275 281 q 286 209 275 225 q 317 184 297 193 q 361 175 336 175 q 410 183 385 175 q 454 203 436 190 m 485 794 q 413 811 443 794 q 356 844 382 828 q 299 861 331 861 q 254 845 268 861 q 238 813 240 829 q 235 794 235 796 l 94 794 q 105 849 94 813 q 139 923 115 885 q 199 988 163 961 q 288 1014 236 1014 q 363 996 333 1014 q 417 960 392 978 q 475 943 443 943 q 520 960 506 943 q 540 994 535 976 q 544 1014 544 1013 l 683 1014 q 672 967 683 1001 q 638 892 661 932 q 576 824 614 853 q 485 794 539 794 z "},"æ":{"ha":1308,"x_min":26,"x_max":1289,"o":"m 282 -14 q 151 17 210 -14 q 60 101 93 47 q 26 221 26 154 q 67 351 26 294 q 178 439 107 407 q 342 471 250 471 q 423 464 385 471 q 489 443 461 457 q 489 454 489 449 q 489 465 489 460 q 458 542 488 517 q 363 567 429 567 q 248 547 301 567 q 136 488 194 526 l 60 651 q 389 744 204 744 q 535 727 471 744 q 646 675 599 710 q 753 726 693 707 q 889 744 814 744 q 1108 692 1019 744 q 1243 553 1197 639 q 1289 365 1289 467 q 1287 323 1289 344 q 1282 285 1285 301 l 769 285 q 791 222 772 246 q 838 186 810 197 q 897 175 867 175 q 978 194 940 175 q 1029 249 1017 214 l 1253 185 q 1172 82 1224 126 q 1049 12 1119 38 q 889 -14 978 -14 q 697 25 779 -14 q 565 128 615 64 q 482 47 531 78 q 381 1 433 15 q 282 -14 329 -14 m 361 175 q 410 183 385 175 q 454 203 436 190 q 489 254 489 226 q 489 281 489 268 q 489 308 489 294 q 438 322 467 317 q 388 328 410 328 q 308 304 340 328 q 275 244 275 281 q 286 209 275 225 q 317 184 297 193 q 361 175 336 175 m 1006 443 q 985 504 1001 479 q 944 543 969 529 q 885 557 918 557 q 826 543 851 557 q 784 504 800 529 q 764 443 768 479 l 1006 443 z "},"ǽ":{"ha":1308,"x_min":26,"x_max":1289,"o":"m 282 -14 q 151 17 210 -14 q 60 101 93 47 q 26 221 26 154 q 67 351 26 294 q 178 439 107 407 q 342 471 250 471 q 423 464 385 471 q 489 443 461 457 q 489 454 489 449 q 489 465 489 460 q 458 542 488 517 q 363 567 429 567 q 248 547 301 567 q 136 488 194 526 l 60 651 q 389 744 204 744 q 535 727 471 744 q 646 675 599 710 q 753 726 693 707 q 889 744 814 744 q 1108 692 1019 744 q 1243 553 1197 639 q 1289 365 1289 467 q 1287 323 1289 344 q 1282 285 1285 301 l 769 285 q 791 222 772 246 q 838 186 810 197 q 897 175 867 175 q 978 194 940 175 q 1029 249 1017 214 l 1253 185 q 1172 82 1224 126 q 1049 12 1119 38 q 889 -14 978 -14 q 697 25 779 -14 q 565 128 615 64 q 482 47 531 78 q 381 1 433 15 q 282 -14 329 -14 m 361 175 q 410 183 385 175 q 454 203 436 190 q 489 254 489 226 q 489 281 489 268 q 489 308 489 294 q 438 322 467 317 q 388 328 410 328 q 308 304 340 328 q 275 244 275 281 q 286 209 275 225 q 317 184 297 193 q 361 175 336 175 m 1006 443 q 985 504 1001 479 q 944 543 969 529 q 885 557 918 557 q 826 543 851 557 q 784 504 800 529 q 764 443 768 479 l 1006 443 m 729 772 l 563 817 l 632 1014 l 867 1014 l 729 772 z "},"b":{"ha":899,"x_min":67,"x_max":871,"o":"m 532 -14 q 390 19 450 -14 q 296 114 331 51 l 296 0 l 67 0 l 67 1014 l 331 1014 l 331 622 q 421 713 363 682 q 558 744 479 744 q 682 716 625 744 q 781 636 739 688 q 847 515 824 585 q 871 363 871 444 q 845 213 871 282 q 774 93 819 144 q 667 14 729 42 q 532 -14 606 -14 m 456 208 q 514 219 488 208 q 560 251 540 231 q 590 299 579 271 q 600 361 600 326 q 583 442 600 406 q 535 501 565 479 q 467 522 506 522 q 413 508 439 522 q 365 470 386 494 q 331 414 343 446 l 331 283 q 358 251 343 265 q 388 227 372 236 q 420 213 403 218 q 456 208 438 208 z "},"c":{"ha":801,"x_min":26,"x_max":785,"o":"m 428 -14 q 256 17 331 -14 q 131 101 182 47 q 53 222 79 154 q 26 365 26 290 q 73 552 26 465 q 209 692 119 639 q 428 744 299 744 q 650 689 560 744 q 785 546 740 633 l 528 468 q 484 508 510 494 q 426 522 458 522 q 361 503 390 522 q 315 450 332 485 q 297 365 297 415 q 315 281 297 317 q 361 227 332 246 q 426 208 390 208 q 467 215 449 208 q 501 233 485 221 q 528 263 517 246 l 785 185 q 705 82 756 126 q 585 12 654 38 q 428 -14 517 -14 z "},"ć":{"ha":801,"x_min":26,"x_max":785,"o":"m 428 -14 q 256 17 331 -14 q 131 101 182 47 q 53 222 79 154 q 26 365 26 290 q 73 552 26 465 q 209 692 119 639 q 428 744 299 744 q 650 689 560 744 q 785 546 740 633 l 528 468 q 484 508 510 494 q 426 522 458 522 q 361 503 390 522 q 315 450 332 485 q 297 365 297 415 q 315 281 297 317 q 361 227 332 246 q 426 208 390 208 q 467 215 449 208 q 501 233 485 221 q 528 263 517 246 l 785 185 q 705 82 756 126 q 585 12 654 38 q 428 -14 517 -14 m 511 772 l 344 817 l 414 1014 l 649 1014 l 511 772 z "},"č":{"ha":801,"x_min":26,"x_max":785,"o":"m 428 -14 q 256 17 331 -14 q 131 101 182 47 q 53 222 79 154 q 26 365 26 290 q 73 552 26 465 q 209 692 119 639 q 428 744 299 744 q 650 689 560 744 q 785 546 740 633 l 528 468 q 484 508 510 494 q 426 522 458 522 q 361 503 390 522 q 315 450 332 485 q 297 365 297 415 q 315 281 297 317 q 361 227 332 246 q 426 208 390 208 q 467 215 449 208 q 501 233 485 221 q 528 263 517 246 l 785 185 q 705 82 756 126 q 585 12 654 38 q 428 -14 517 -14 m 310 1014 l 428 926 l 546 1014 l 679 956 l 522 796 l 333 796 l 176 956 l 310 1014 z "},"ç":{"ha":801,"x_min":26,"x_max":785,"o":"m 428 -14 q 256 17 331 -14 q 131 101 182 47 q 53 222 79 154 q 26 365 26 290 q 73 552 26 465 q 209 692 119 639 q 428 744 299 744 q 650 689 560 744 q 785 546 740 633 l 528 468 q 484 508 510 494 q 426 522 458 522 q 361 503 390 522 q 315 450 332 485 q 297 365 297 415 q 315 281 297 317 q 361 227 332 246 q 426 208 390 208 q 467 215 449 208 q 501 233 485 221 q 528 263 517 246 l 785 185 q 705 82 756 126 q 585 12 654 38 q 428 -14 517 -14 m 407 -306 q 324 -294 368 -306 q 235 -258 279 -282 l 296 -124 q 329 -144 311 -137 q 363 -150 347 -150 q 404 -136 388 -150 q 421 -96 421 -122 q 406 -48 421 -72 q 363 0 390 -24 l 446 50 q 537 -36 499 11 q 575 -149 575 -83 q 534 -258 575 -210 q 407 -306 493 -306 z "},"ḉ":{"ha":801,"x_min":26,"x_max":785,"o":"m 428 -14 q 256 17 331 -14 q 131 101 182 47 q 53 222 79 154 q 26 365 26 290 q 73 552 26 465 q 209 692 119 639 q 428 744 299 744 q 650 689 560 744 q 785 546 740 633 l 528 468 q 484 508 510 494 q 426 522 458 522 q 361 503 390 522 q 315 450 332 485 q 297 365 297 415 q 315 281 297 317 q 361 227 332 246 q 426 208 390 208 q 467 215 449 208 q 501 233 485 221 q 528 263 517 246 l 785 185 q 705 82 756 126 q 585 12 654 38 q 428 -14 517 -14 m 407 -306 q 324 -294 368 -306 q 235 -258 279 -282 l 296 -124 q 329 -144 311 -137 q 363 -150 347 -150 q 404 -136 388 -150 q 421 -96 421 -122 q 406 -48 421 -72 q 363 0 390 -24 l 446 50 q 537 -36 499 11 q 575 -149 575 -83 q 534 -258 575 -210 q 407 -306 493 -306 m 511 772 l 344 817 l 414 1014 l 649 1014 l 511 772 z "},"ĉ":{"ha":801,"x_min":26,"x_max":785,"o":"m 428 -14 q 256 17 331 -14 q 131 101 182 47 q 53 222 79 154 q 26 365 26 290 q 73 552 26 465 q 209 692 119 639 q 428 744 299 744 q 650 689 560 744 q 785 546 740 633 l 528 468 q 484 508 510 494 q 426 522 458 522 q 361 503 390 522 q 315 450 332 485 q 297 365 297 415 q 315 281 297 317 q 361 227 332 246 q 426 208 390 208 q 467 215 449 208 q 501 233 485 221 q 528 263 517 246 l 785 185 q 705 82 756 126 q 585 12 654 38 q 428 -14 517 -14 m 176 854 l 333 1014 l 522 1014 l 679 854 l 546 796 l 428 883 l 310 796 l 176 854 z "},"ċ":{"ha":801,"x_min":26,"x_max":785,"o":"m 428 -14 q 256 17 331 -14 q 131 101 182 47 q 53 222 79 154 q 26 365 26 290 q 73 552 26 465 q 209 692 119 639 q 428 744 299 744 q 650 689 560 744 q 785 546 740 633 l 528 468 q 484 508 510 494 q 426 522 458 522 q 361 503 390 522 q 315 450 332 485 q 297 365 297 415 q 315 281 297 317 q 361 227 332 246 q 426 208 390 208 q 467 215 449 208 q 501 233 485 221 q 528 263 517 246 l 785 185 q 705 82 756 126 q 585 12 654 38 q 428 -14 517 -14 m 310 806 l 310 1014 l 546 1014 l 546 806 l 310 806 z "},"d":{"ha":924,"x_min":28,"x_max":882,"o":"m 28 367 q 69 560 28 475 q 182 695 110 646 q 347 744 254 744 q 478 712 418 744 q 568 622 538 679 l 568 1014 l 832 1014 l 832 292 q 843 240 832 254 q 882 222 854 225 l 882 0 q 771 -14 814 -14 q 665 11 704 -14 q 615 88 626 36 l 610 114 q 508 17 572 47 q 372 -14 444 -14 q 234 14 297 -14 q 124 92 171 42 q 53 213 78 143 q 28 367 28 283 m 569 283 l 569 414 q 535 470 557 446 q 488 508 514 494 q 433 522 461 522 q 380 510 404 522 q 338 475 356 497 q 310 424 319 453 q 300 361 300 394 q 310 299 300 326 q 340 251 321 271 q 386 219 360 231 q 444 208 413 208 q 481 213 464 208 q 513 227 497 218 q 542 251 528 236 q 569 283 557 265 z "},"ð":{"ha":863,"x_min":31,"x_max":831,"o":"m 831 404 q 803 229 831 307 q 724 97 776 151 q 598 15 672 43 q 431 -14 524 -14 q 224 29 314 -14 q 82 149 133 72 q 31 325 31 226 q 56 454 31 394 q 126 559 81 514 q 231 629 171 604 q 361 654 292 654 q 469 638 417 654 q 560 590 521 621 q 508 714 542 656 q 425 824 475 772 q 306 924 375 876 q 150 1014 238 971 l 469 1014 q 613 919 547 981 q 728 774 679 857 q 803 597 776 692 q 831 404 831 503 m 301 326 q 317 265 301 292 q 363 223 333 238 q 431 208 392 208 q 499 223 469 208 q 544 265 528 238 q 560 326 560 292 q 544 389 560 363 q 499 430 528 415 q 431 444 469 444 q 363 430 392 444 q 317 389 333 415 q 301 326 301 363 m 765 890 l 601 806 l 521 782 l 372 708 l 300 807 l 447 881 l 522 900 l 693 989 l 765 890 z "},"ď":{"ha":924,"x_min":28,"x_max":1163,"o":"m 28 367 q 69 560 28 475 q 182 695 110 646 q 347 744 254 744 q 478 712 418 744 q 568 622 538 679 l 568 1014 l 832 1014 l 832 292 q 843 240 832 254 q 882 222 854 225 l 882 0 q 771 -14 814 -14 q 665 11 704 -14 q 615 88 626 36 l 610 114 q 508 17 572 47 q 372 -14 444 -14 q 234 14 297 -14 q 124 92 171 42 q 53 213 78 143 q 28 367 28 283 m 569 283 l 569 414 q 535 470 557 446 q 488 508 514 494 q 433 522 461 522 q 380 510 404 522 q 338 475 356 497 q 310 424 319 453 q 300 361 300 394 q 310 299 300 326 q 340 251 321 271 q 386 219 360 231 q 444 208 413 208 q 481 213 464 208 q 513 227 497 218 q 542 251 528 236 q 569 283 557 265 m 1025 772 l 858 817 l 928 1014 l 1163 1014 l 1025 772 z "},"đ":{"ha":924,"x_min":28,"x_max":913,"o":"m 447 804 l 447 956 l 913 956 l 913 804 l 447 804 m 28 367 q 69 560 28 475 q 182 695 110 646 q 347 744 254 744 q 478 712 418 744 q 568 622 538 679 l 568 1014 l 832 1014 l 832 292 q 843 240 832 254 q 882 222 854 225 l 882 0 q 771 -14 814 -14 q 665 11 704 -14 q 615 88 626 36 l 610 114 q 508 17 572 47 q 372 -14 444 -14 q 234 14 297 -14 q 124 92 171 42 q 53 213 78 143 q 28 367 28 283 m 569 283 l 569 414 q 535 470 557 446 q 488 508 514 494 q 433 522 461 522 q 380 510 404 522 q 338 475 356 497 q 310 424 319 453 q 300 361 300 394 q 310 299 300 326 q 340 251 321 271 q 386 219 360 231 q 444 208 413 208 q 481 213 464 208 q 513 227 497 218 q 542 251 528 236 q 569 283 557 265 z "},"ḍ":{"ha":924,"x_min":28,"x_max":882,"o":"m 28 367 q 69 560 28 475 q 182 695 110 646 q 347 744 254 744 q 478 712 418 744 q 568 622 538 679 l 568 1014 l 832 1014 l 832 292 q 843 240 832 254 q 882 222 854 225 l 882 0 q 771 -14 814 -14 q 665 11 704 -14 q 615 88 626 36 l 610 114 q 508 17 572 47 q 372 -14 444 -14 q 234 14 297 -14 q 124 92 171 42 q 53 213 78 143 q 28 367 28 283 m 569 283 l 569 414 q 535 470 557 446 q 488 508 514 494 q 433 522 461 522 q 380 510 404 522 q 338 475 356 497 q 310 424 319 453 q 300 361 300 394 q 310 299 300 326 q 340 251 321 271 q 386 219 360 231 q 444 208 413 208 q 481 213 464 208 q 513 227 497 218 q 542 251 528 236 q 569 283 557 265 m 344 -297 l 344 -89 l 581 -89 l 581 -297 l 344 -297 z "},"ḏ":{"ha":924,"x_min":28,"x_max":882,"o":"m 28 367 q 69 560 28 475 q 182 695 110 646 q 347 744 254 744 q 478 712 418 744 q 568 622 538 679 l 568 1014 l 832 1014 l 832 292 q 843 240 832 254 q 882 222 854 225 l 882 0 q 771 -14 814 -14 q 665 11 704 -14 q 615 88 626 36 l 610 114 q 508 17 572 47 q 372 -14 444 -14 q 234 14 297 -14 q 124 92 171 42 q 53 213 78 143 q 28 367 28 283 m 569 283 l 569 414 q 535 470 557 446 q 488 508 514 494 q 433 522 461 522 q 380 510 404 522 q 338 475 356 497 q 310 424 319 453 q 300 361 300 394 q 310 299 300 326 q 340 251 321 271 q 386 219 360 231 q 444 208 413 208 q 481 213 464 208 q 513 227 497 218 q 542 251 528 236 q 569 283 557 265 m 247 -260 l 247 -103 l 678 -103 l 678 -260 l 247 -260 z "},"e":{"ha":846,"x_min":26,"x_max":826,"o":"m 426 -14 q 256 16 331 -14 q 130 97 181 46 q 53 215 79 149 q 26 356 26 282 q 72 549 26 461 q 207 691 118 638 q 426 744 296 744 q 646 692 557 744 q 781 553 735 639 q 826 365 826 467 q 824 323 826 344 q 819 285 822 301 l 307 285 q 328 222 310 246 q 376 186 347 197 q 435 175 404 175 q 516 194 478 175 q 567 249 554 214 l 790 185 q 709 82 761 126 q 586 12 657 38 q 426 -14 515 -14 m 301 443 l 543 443 q 523 504 539 479 q 481 543 507 529 q 422 557 456 557 q 363 543 389 557 q 322 504 338 529 q 301 443 306 479 z "},"é":{"ha":846,"x_min":26,"x_max":826,"o":"m 426 -14 q 256 16 331 -14 q 130 97 181 46 q 53 215 79 149 q 26 356 26 282 q 72 549 26 461 q 207 691 118 638 q 426 744 296 744 q 646 692 557 744 q 781 553 735 639 q 826 365 826 467 q 824 323 826 344 q 819 285 822 301 l 307 285 q 328 222 310 246 q 376 186 347 197 q 435 175 404 175 q 516 194 478 175 q 567 249 554 214 l 790 185 q 709 82 761 126 q 586 12 657 38 q 426 -14 515 -14 m 301 443 l 543 443 q 523 504 539 479 q 481 543 507 529 q 422 557 456 557 q 363 543 389 557 q 322 504 338 529 q 301 443 306 479 m 510 772 l 343 817 l 413 1014 l 647 1014 l 510 772 z "},"ĕ":{"ha":846,"x_min":26,"x_max":826,"o":"m 426 -14 q 256 16 331 -14 q 130 97 181 46 q 53 215 79 149 q 26 356 26 282 q 72 549 26 461 q 207 691 118 638 q 426 744 296 744 q 646 692 557 744 q 781 553 735 639 q 826 365 826 467 q 824 323 826 344 q 819 285 822 301 l 307 285 q 328 222 310 246 q 376 186 347 197 q 435 175 404 175 q 516 194 478 175 q 567 249 554 214 l 790 185 q 709 82 761 126 q 586 12 657 38 q 426 -14 515 -14 m 301 443 l 543 443 q 523 504 539 479 q 481 543 507 529 q 422 557 456 557 q 363 543 389 557 q 322 504 338 529 q 301 443 306 479 m 426 901 q 483 933 458 901 q 511 1014 507 965 l 647 1014 q 586 852 647 915 q 426 789 525 789 q 267 852 329 789 q 206 1014 206 915 l 342 1014 q 367 935 342 968 q 426 901 392 901 z "},"ě":{"ha":846,"x_min":26,"x_max":826,"o":"m 426 -14 q 256 16 331 -14 q 130 97 181 46 q 53 215 79 149 q 26 356 26 282 q 72 549 26 461 q 207 691 118 638 q 426 744 296 744 q 646 692 557 744 q 781 553 735 639 q 826 365 826 467 q 824 323 826 344 q 819 285 822 301 l 307 285 q 328 222 310 246 q 376 186 347 197 q 435 175 404 175 q 516 194 478 175 q 567 249 554 214 l 790 185 q 709 82 761 126 q 586 12 657 38 q 426 -14 515 -14 m 301 443 l 543 443 q 523 504 539 479 q 481 543 507 529 q 422 557 456 557 q 363 543 389 557 q 322 504 338 529 q 301 443 306 479 m 308 1014 l 426 926 l 544 1014 l 678 956 l 521 796 l 332 796 l 175 956 l 308 1014 z "},"ḝ":{"ha":846,"x_min":26,"x_max":826,"o":"m 426 -14 q 256 16 331 -14 q 130 97 181 46 q 53 215 79 149 q 26 356 26 282 q 72 549 26 461 q 207 691 118 638 q 426 744 296 744 q 646 692 557 744 q 781 553 735 639 q 826 365 826 467 q 824 323 826 344 q 819 285 822 301 l 307 285 q 328 222 310 246 q 376 186 347 197 q 435 175 404 175 q 516 194 478 175 q 567 249 554 214 l 790 185 q 709 82 761 126 q 586 12 657 38 q 426 -14 515 -14 m 301 443 l 543 443 q 523 504 539 479 q 481 543 507 529 q 422 557 456 557 q 363 543 389 557 q 322 504 338 529 q 301 443 306 479 m 406 -306 q 322 -294 367 -306 q 233 -258 278 -282 l 294 -124 q 328 -144 310 -137 q 361 -150 346 -150 q 403 -136 386 -150 q 419 -96 419 -122 q 404 -48 419 -72 q 361 0 389 -24 l 444 50 q 535 -36 497 11 q 574 -149 574 -83 q 533 -258 574 -210 q 406 -306 492 -306 m 426 901 q 483 933 458 901 q 511 1014 507 965 l 647 1014 q 586 852 647 915 q 426 789 525 789 q 267 852 329 789 q 206 1014 206 915 l 342 1014 q 367 935 342 968 q 426 901 392 901 z "},"ê":{"ha":846,"x_min":26,"x_max":826,"o":"m 426 -14 q 256 16 331 -14 q 130 97 181 46 q 53 215 79 149 q 26 356 26 282 q 72 549 26 461 q 207 691 118 638 q 426 744 296 744 q 646 692 557 744 q 781 553 735 639 q 826 365 826 467 q 824 323 826 344 q 819 285 822 301 l 307 285 q 328 222 310 246 q 376 186 347 197 q 435 175 404 175 q 516 194 478 175 q 567 249 554 214 l 790 185 q 709 82 761 126 q 586 12 657 38 q 426 -14 515 -14 m 301 443 l 543 443 q 523 504 539 479 q 481 543 507 529 q 422 557 456 557 q 363 543 389 557 q 322 504 338 529 q 301 443 306 479 m 175 854 l 332 1014 l 521 1014 l 678 854 l 544 796 l 426 883 l 308 796 l 175 854 z "},"ế":{"ha":846,"x_min":26,"x_max":883,"o":"m 426 -14 q 256 16 331 -14 q 130 97 181 46 q 53 215 79 149 q 26 356 26 282 q 72 549 26 461 q 207 691 118 638 q 426 744 296 744 q 646 692 557 744 q 781 553 735 639 q 826 365 826 467 q 824 323 826 344 q 819 285 822 301 l 307 285 q 328 222 310 246 q 376 186 347 197 q 435 175 404 175 q 516 194 478 175 q 567 249 554 214 l 790 185 q 709 82 761 126 q 586 12 657 38 q 426 -14 515 -14 m 301 443 l 543 443 q 523 504 539 479 q 481 543 507 529 q 422 557 456 557 q 363 543 389 557 q 322 504 338 529 q 301 443 306 479 z "},"ệ":{"ha":846,"x_min":26,"x_max":826,"o":"m 426 -14 q 256 16 331 -14 q 130 97 181 46 q 53 215 79 149 q 26 356 26 282 q 72 549 26 461 q 207 691 118 638 q 426 744 296 744 q 646 692 557 744 q 781 553 735 639 q 826 365 826 467 q 824 323 826 344 q 819 285 822 301 l 307 285 q 328 222 310 246 q 376 186 347 197 q 435 175 404 175 q 516 194 478 175 q 567 249 554 214 l 790 185 q 709 82 761 126 q 586 12 657 38 q 426 -14 515 -14 m 301 443 l 543 443 q 523 504 539 479 q 481 543 507 529 q 422 557 456 557 q 363 543 389 557 q 322 504 338 529 q 301 443 306 479 m 308 -297 l 308 -89 l 544 -89 l 544 -297 l 308 -297 m 175 854 l 332 1014 l 521 1014 l 678 854 l 544 796 l 426 883 l 308 796 l 175 854 z "},"ề":{"ha":846,"x_min":-53,"x_max":826,"o":"m 426 -14 q 256 16 331 -14 q 130 97 181 46 q 53 215 79 149 q 26 356 26 282 q 72 549 26 461 q 207 691 118 638 q 426 744 296 744 q 646 692 557 744 q 781 553 735 639 q 826 365 826 467 q 824 323 826 344 q 819 285 822 301 l 307 285 q 328 222 310 246 q 376 186 347 197 q 435 175 404 175 q 516 194 478 175 q 567 249 554 214 l 790 185 q 709 82 761 126 q 586 12 657 38 q 426 -14 515 -14 m 301 443 l 543 443 q 523 504 539 479 q 481 543 507 529 q 422 557 456 557 q 363 543 389 557 q 322 504 338 529 q 301 443 306 479 z "},"ể":{"ha":846,"x_min":26,"x_max":826,"o":"m 426 -14 q 256 16 331 -14 q 130 97 181 46 q 53 215 79 149 q 26 356 26 282 q 72 549 26 461 q 207 691 118 638 q 426 744 296 744 q 646 692 557 744 q 781 553 735 639 q 826 365 826 467 q 824 323 826 344 q 819 285 822 301 l 307 285 q 328 222 310 246 q 376 186 347 197 q 435 175 404 175 q 516 194 478 175 q 567 249 554 214 l 790 185 q 709 82 761 126 q 586 12 657 38 q 426 -14 515 -14 m 301 443 l 543 443 q 523 504 539 479 q 481 543 507 529 q 422 557 456 557 q 363 543 389 557 q 322 504 338 529 q 301 443 306 479 z "},"ễ":{"ha":846,"x_min":26,"x_max":826,"o":"m 426 -14 q 256 16 331 -14 q 130 97 181 46 q 53 215 79 149 q 26 356 26 282 q 72 549 26 461 q 207 691 118 638 q 426 744 296 744 q 646 692 557 744 q 781 553 735 639 q 826 365 826 467 q 824 323 826 344 q 819 285 822 301 l 307 285 q 328 222 310 246 q 376 186 347 197 q 435 175 404 175 q 516 194 478 175 q 567 249 554 214 l 790 185 q 709 82 761 126 q 586 12 657 38 q 426 -14 515 -14 m 301 443 l 543 443 q 523 504 539 479 q 481 543 507 529 q 422 557 456 557 q 363 543 389 557 q 322 504 338 529 q 301 443 306 479 z "},"ȅ":{"ha":846,"x_min":26,"x_max":826,"o":"m 426 -14 q 256 16 331 -14 q 130 97 181 46 q 53 215 79 149 q 26 356 26 282 q 72 549 26 461 q 207 691 118 638 q 426 744 296 744 q 646 692 557 744 q 781 553 735 639 q 826 365 826 467 q 824 323 826 344 q 819 285 822 301 l 307 285 q 328 222 310 246 q 376 186 347 197 q 435 175 404 175 q 516 194 478 175 q 567 249 554 214 l 790 185 q 709 82 761 126 q 586 12 657 38 q 426 -14 515 -14 m 301 443 l 543 443 q 523 504 539 479 q 481 543 507 529 q 422 557 456 557 q 363 543 389 557 q 322 504 338 529 q 301 443 306 479 m 389 1015 l 582 1015 l 638 818 l 513 774 l 389 1015 m 125 1015 l 318 1015 l 374 818 l 249 774 l 125 1015 z "},"ë":{"ha":846,"x_min":26,"x_max":826,"o":"m 426 -14 q 256 16 331 -14 q 130 97 181 46 q 53 215 79 149 q 26 356 26 282 q 72 549 26 461 q 207 691 118 638 q 426 744 296 744 q 646 692 557 744 q 781 553 735 639 q 826 365 826 467 q 824 323 826 344 q 819 285 822 301 l 307 285 q 328 222 310 246 q 376 186 347 197 q 435 175 404 175 q 516 194 478 175 q 567 249 554 214 l 790 185 q 709 82 761 126 q 586 12 657 38 q 426 -14 515 -14 m 301 443 l 543 443 q 523 504 539 479 q 481 543 507 529 q 422 557 456 557 q 363 543 389 557 q 322 504 338 529 q 301 443 306 479 m 158 807 l 158 1001 l 375 1001 l 375 807 l 158 807 m 478 807 l 478 1001 l 694 1001 l 694 807 l 478 807 z "},"ė":{"ha":846,"x_min":26,"x_max":826,"o":"m 426 -14 q 256 16 331 -14 q 130 97 181 46 q 53 215 79 149 q 26 356 26 282 q 72 549 26 461 q 207 691 118 638 q 426 744 296 744 q 646 692 557 744 q 781 553 735 639 q 826 365 826 467 q 824 323 826 344 q 819 285 822 301 l 307 285 q 328 222 310 246 q 376 186 347 197 q 435 175 404 175 q 516 194 478 175 q 567 249 554 214 l 790 185 q 709 82 761 126 q 586 12 657 38 q 426 -14 515 -14 m 301 443 l 543 443 q 523 504 539 479 q 481 543 507 529 q 422 557 456 557 q 363 543 389 557 q 322 504 338 529 q 301 443 306 479 m 308 806 l 308 1014 l 544 1014 l 544 806 l 308 806 z "},"ẹ":{"ha":846,"x_min":26,"x_max":826,"o":"m 426 -14 q 256 16 331 -14 q 130 97 181 46 q 53 215 79 149 q 26 356 26 282 q 72 549 26 461 q 207 691 118 638 q 426 744 296 744 q 646 692 557 744 q 781 553 735 639 q 826 365 826 467 q 824 323 826 344 q 819 285 822 301 l 307 285 q 328 222 310 246 q 376 186 347 197 q 435 175 404 175 q 516 194 478 175 q 567 249 554 214 l 790 185 q 709 82 761 126 q 586 12 657 38 q 426 -14 515 -14 m 301 443 l 543 443 q 523 504 539 479 q 481 543 507 529 q 422 557 456 557 q 363 543 389 557 q 322 504 338 529 q 301 443 306 479 m 308 -297 l 308 -89 l 544 -89 l 544 -297 l 308 -297 z "},"è":{"ha":846,"x_min":26,"x_max":826,"o":"m 426 -14 q 256 16 331 -14 q 130 97 181 46 q 53 215 79 149 q 26 356 26 282 q 72 549 26 461 q 207 691 118 638 q 426 744 296 744 q 646 692 557 744 q 781 553 735 639 q 826 365 826 467 q 824 323 826 344 q 819 285 822 301 l 307 285 q 328 222 310 246 q 376 186 347 197 q 435 175 404 175 q 516 194 478 175 q 567 249 554 214 l 790 185 q 709 82 761 126 q 586 12 657 38 q 426 -14 515 -14 m 301 443 l 543 443 q 523 504 539 479 q 481 543 507 529 q 422 557 456 557 q 363 543 389 557 q 322 504 338 529 q 301 443 306 479 m 218 1014 l 453 1014 l 522 817 l 356 772 l 218 1014 z "},"ẻ":{"ha":846,"x_min":26,"x_max":826,"o":"m 426 -14 q 256 16 331 -14 q 130 97 181 46 q 53 215 79 149 q 26 356 26 282 q 72 549 26 461 q 207 691 118 638 q 426 744 296 744 q 646 692 557 744 q 781 553 735 639 q 826 365 826 467 q 824 323 826 344 q 819 285 822 301 l 307 285 q 328 222 310 246 q 376 186 347 197 q 435 175 404 175 q 516 194 478 175 q 567 249 554 214 l 790 185 q 709 82 761 126 q 586 12 657 38 q 426 -14 515 -14 m 301 443 l 543 443 q 523 504 539 479 q 481 543 507 529 q 422 557 456 557 q 363 543 389 557 q 322 504 338 529 q 301 443 306 479 m 349 939 l 278 1008 q 360 1072 321 1053 q 439 1090 399 1090 q 538 1058 500 1090 q 575 974 575 1026 q 550 882 575 918 q 472 803 525 846 l 410 868 q 447 900 433 883 q 460 935 460 917 q 449 965 460 953 q 418 976 438 976 q 384 967 399 976 q 349 939 369 957 z "},"ȇ":{"ha":846,"x_min":26,"x_max":826,"o":"m 426 -14 q 256 16 331 -14 q 130 97 181 46 q 53 215 79 149 q 26 356 26 282 q 72 549 26 461 q 207 691 118 638 q 426 744 296 744 q 646 692 557 744 q 781 553 735 639 q 826 365 826 467 q 824 323 826 344 q 819 285 822 301 l 307 285 q 328 222 310 246 q 376 186 347 197 q 435 175 404 175 q 516 194 478 175 q 567 249 554 214 l 790 185 q 709 82 761 126 q 586 12 657 38 q 426 -14 515 -14 m 301 443 l 543 443 q 523 504 539 479 q 481 543 507 529 q 422 557 456 557 q 363 543 389 557 q 322 504 338 529 q 301 443 306 479 m 426 901 q 367 868 392 901 q 342 789 342 835 l 206 789 q 267 951 206 888 q 426 1014 329 1014 q 586 951 525 1014 q 647 789 647 888 l 511 789 q 483 869 507 838 q 426 901 458 901 z "},"ē":{"ha":846,"x_min":26,"x_max":826,"o":"m 426 -14 q 256 16 331 -14 q 130 97 181 46 q 53 215 79 149 q 26 356 26 282 q 72 549 26 461 q 207 691 118 638 q 426 744 296 744 q 646 692 557 744 q 781 553 735 639 q 826 365 826 467 q 824 323 826 344 q 819 285 822 301 l 307 285 q 328 222 310 246 q 376 186 347 197 q 435 175 404 175 q 516 194 478 175 q 567 249 554 214 l 790 185 q 709 82 761 126 q 586 12 657 38 q 426 -14 515 -14 m 301 443 l 543 443 q 523 504 539 479 q 481 543 507 529 q 422 557 456 557 q 363 543 389 557 q 322 504 338 529 q 301 443 306 479 m 213 843 l 213 1000 l 643 1000 l 643 843 l 213 843 z "},"ḗ":{"ha":846,"x_min":26,"x_max":826,"o":"m 426 -14 q 256 16 331 -14 q 130 97 181 46 q 53 215 79 149 q 26 356 26 282 q 72 549 26 461 q 207 691 118 638 q 426 744 296 744 q 646 692 557 744 q 781 553 735 639 q 826 365 826 467 q 824 323 826 344 q 819 285 822 301 l 307 285 q 328 222 310 246 q 376 186 347 197 q 435 175 404 175 q 516 194 478 175 q 567 249 554 214 l 790 185 q 709 82 761 126 q 586 12 657 38 q 426 -14 515 -14 m 301 443 l 543 443 q 523 504 539 479 q 481 543 507 529 q 422 557 456 557 q 363 543 389 557 q 322 504 338 529 q 301 443 306 479 m 213 843 l 213 1000 l 643 1000 l 643 843 l 213 843 m 511 1042 l 344 1086 l 414 1283 l 649 1283 l 511 1042 z "},"ḕ":{"ha":846,"x_min":26,"x_max":826,"o":"m 426 -14 q 256 16 331 -14 q 130 97 181 46 q 53 215 79 149 q 26 356 26 282 q 72 549 26 461 q 207 691 118 638 q 426 744 296 744 q 646 692 557 744 q 781 553 735 639 q 826 365 826 467 q 824 323 826 344 q 819 285 822 301 l 307 285 q 328 222 310 246 q 376 186 347 197 q 435 175 404 175 q 516 194 478 175 q 567 249 554 214 l 790 185 q 709 82 761 126 q 586 12 657 38 q 426 -14 515 -14 m 301 443 l 543 443 q 523 504 539 479 q 481 543 507 529 q 422 557 456 557 q 363 543 389 557 q 322 504 338 529 q 301 443 306 479 m 213 843 l 213 1000 l 643 1000 l 643 843 l 213 843 m 219 1283 l 454 1283 l 524 1086 l 357 1042 l 219 1283 z "},"ę":{"ha":846,"x_min":26,"x_max":826,"o":"m 426 -14 q 256 16 331 -14 q 130 97 181 46 q 53 215 79 149 q 26 356 26 282 q 72 549 26 461 q 207 691 118 638 q 426 744 296 744 q 646 692 557 744 q 781 553 735 639 q 826 365 826 467 q 824 323 826 344 q 819 285 822 301 l 307 285 q 328 222 310 246 q 376 186 347 197 q 435 175 404 175 q 516 194 478 175 q 567 249 554 214 l 790 185 q 709 82 761 126 q 586 12 657 38 q 426 -14 515 -14 m 301 443 l 543 443 q 523 504 539 479 q 481 543 507 529 q 422 557 456 557 q 363 543 389 557 q 322 504 338 529 q 301 443 306 479 m 281 -160 q 320 -58 281 -110 q 438 33 360 -6 l 525 33 l 543 0 q 469 -56 496 -28 q 443 -108 443 -85 q 467 -145 443 -131 q 540 -160 490 -160 l 492 -299 q 374 -270 421 -290 q 303 -221 326 -250 q 281 -160 281 -192 z "},"ẽ":{"ha":846,"x_min":26,"x_max":826,"o":"m 426 -14 q 256 16 331 -14 q 130 97 181 46 q 53 215 79 149 q 26 356 26 282 q 72 549 26 461 q 207 691 118 638 q 426 744 296 744 q 646 692 557 744 q 781 553 735 639 q 826 365 826 467 q 824 323 826 344 q 819 285 822 301 l 307 285 q 328 222 310 246 q 376 186 347 197 q 435 175 404 175 q 516 194 478 175 q 567 249 554 214 l 790 185 q 709 82 761 126 q 586 12 657 38 q 426 -14 515 -14 m 301 443 l 543 443 q 523 504 539 479 q 481 543 507 529 q 422 557 456 557 q 363 543 389 557 q 322 504 338 529 q 301 443 306 479 m 522 794 q 450 811 481 794 q 394 844 419 828 q 336 861 368 861 q 292 845 306 861 q 275 813 278 829 q 272 794 272 796 l 132 794 q 142 849 132 813 q 176 923 153 885 q 237 988 200 961 q 325 1014 274 1014 q 400 996 371 1014 q 455 960 429 978 q 513 943 481 943 q 558 960 543 943 q 577 994 572 976 q 582 1014 582 1013 l 721 1014 q 710 967 721 1001 q 675 892 699 932 q 614 824 651 853 q 522 794 576 794 z "},"ə":{"ha":846,"x_min":19,"x_max":819,"o":"m 419 -14 q 200 39 289 -14 q 65 178 111 92 q 19 365 19 265 q 22 408 19 386 q 26 446 24 429 l 539 446 q 517 509 536 485 q 470 544 499 533 q 411 556 442 556 q 330 536 368 556 q 279 482 292 517 l 56 546 q 138 649 86 604 q 260 719 189 694 q 419 744 331 744 q 590 715 515 744 q 716 633 665 685 q 793 515 767 582 q 819 375 819 449 q 774 181 819 269 q 639 40 728 93 q 419 -14 550 -14 m 424 174 q 483 188 457 174 q 524 227 508 201 q 544 288 540 253 l 303 288 q 323 227 307 253 q 365 188 339 201 q 424 174 390 174 z "},"f":{"ha":558,"x_min":28,"x_max":589,"o":"m 118 0 l 118 447 l 28 447 l 28 646 l 118 646 l 118 725 q 151 885 118 817 q 245 990 185 953 q 386 1028 306 1028 q 483 1017 433 1028 q 589 986 533 1007 l 544 786 q 494 800 522 794 q 446 806 467 806 q 398 788 414 806 q 382 735 382 771 l 382 646 l 542 646 l 542 447 l 382 447 l 382 0 l 118 0 z "},"g":{"ha":899,"x_min":29,"x_max":832,"o":"m 347 0 q 217 28 276 0 q 117 106 158 56 q 52 222 75 156 q 29 367 29 289 q 54 517 29 449 q 124 638 79 586 q 232 717 169 689 q 369 744 294 744 q 508 713 447 744 q 603 622 568 682 l 603 731 l 832 731 l 832 67 q 776 -132 832 -47 q 621 -263 721 -217 q 388 -310 521 -310 q 185 -274 272 -310 q 32 -169 99 -237 l 171 -25 q 267 -88 211 -62 q 388 -114 324 -114 q 477 -96 436 -114 q 543 -38 518 -78 q 568 67 568 1 l 568 114 q 477 28 538 57 q 347 0 417 0 m 442 208 q 478 213 461 208 q 511 227 496 218 q 541 251 526 236 q 568 283 556 265 l 568 414 q 533 472 556 447 q 485 509 511 496 q 431 522 458 522 q 378 510 403 522 q 336 474 354 497 q 308 422 318 451 q 299 360 299 393 q 309 299 299 326 q 339 251 319 271 q 385 219 358 231 q 442 208 411 208 z "},"ğ":{"ha":899,"x_min":29,"x_max":832,"o":"m 347 0 q 217 28 276 0 q 117 106 158 56 q 52 222 75 156 q 29 367 29 289 q 54 517 29 449 q 124 638 79 586 q 232 717 169 689 q 369 744 294 744 q 508 713 447 744 q 603 622 568 682 l 603 731 l 832 731 l 832 67 q 776 -132 832 -47 q 621 -263 721 -217 q 388 -310 521 -310 q 185 -274 272 -310 q 32 -169 99 -237 l 171 -25 q 267 -88 211 -62 q 388 -114 324 -114 q 477 -96 436 -114 q 543 -38 518 -78 q 568 67 568 1 l 568 114 q 477 28 538 57 q 347 0 417 0 m 442 208 q 478 213 461 208 q 511 227 496 218 q 541 251 526 236 q 568 283 556 265 l 568 414 q 533 472 556 447 q 485 509 511 496 q 431 522 458 522 q 378 510 403 522 q 336 474 354 497 q 308 422 318 451 q 299 360 299 393 q 309 299 299 326 q 339 251 319 271 q 385 219 358 231 q 442 208 411 208 m 453 901 q 509 933 485 901 q 538 1014 533 965 l 674 1014 q 613 852 674 915 q 453 789 551 789 q 294 852 356 789 q 232 1014 232 915 l 368 1014 q 393 935 368 968 q 453 901 418 901 z "},"ǧ":{"ha":899,"x_min":29,"x_max":832,"o":"m 347 0 q 217 28 276 0 q 117 106 158 56 q 52 222 75 156 q 29 367 29 289 q 54 517 29 449 q 124 638 79 586 q 232 717 169 689 q 369 744 294 744 q 508 713 447 744 q 603 622 568 682 l 603 731 l 832 731 l 832 67 q 776 -132 832 -47 q 621 -263 721 -217 q 388 -310 521 -310 q 185 -274 272 -310 q 32 -169 99 -237 l 171 -25 q 267 -88 211 -62 q 388 -114 324 -114 q 477 -96 436 -114 q 543 -38 518 -78 q 568 67 568 1 l 568 114 q 477 28 538 57 q 347 0 417 0 m 442 208 q 478 213 461 208 q 511 227 496 218 q 541 251 526 236 q 568 283 556 265 l 568 414 q 533 472 556 447 q 485 509 511 496 q 431 522 458 522 q 378 510 403 522 q 336 474 354 497 q 308 422 318 451 q 299 360 299 393 q 309 299 299 326 q 339 251 319 271 q 385 219 358 231 q 442 208 411 208 m 335 1014 l 453 926 l 571 1014 l 704 956 l 547 796 l 358 796 l 201 956 l 335 1014 z "},"ĝ":{"ha":899,"x_min":29,"x_max":832,"o":"m 347 0 q 217 28 276 0 q 117 106 158 56 q 52 222 75 156 q 29 367 29 289 q 54 517 29 449 q 124 638 79 586 q 232 717 169 689 q 369 744 294 744 q 508 713 447 744 q 603 622 568 682 l 603 731 l 832 731 l 832 67 q 776 -132 832 -47 q 621 -263 721 -217 q 388 -310 521 -310 q 185 -274 272 -310 q 32 -169 99 -237 l 171 -25 q 267 -88 211 -62 q 388 -114 324 -114 q 477 -96 436 -114 q 543 -38 518 -78 q 568 67 568 1 l 568 114 q 477 28 538 57 q 347 0 417 0 m 442 208 q 478 213 461 208 q 511 227 496 218 q 541 251 526 236 q 568 283 556 265 l 568 414 q 533 472 556 447 q 485 509 511 496 q 431 522 458 522 q 378 510 403 522 q 336 474 354 497 q 308 422 318 451 q 299 360 299 393 q 309 299 299 326 q 339 251 319 271 q 385 219 358 231 q 442 208 411 208 m 201 854 l 358 1014 l 547 1014 l 704 854 l 571 796 l 453 883 l 335 796 l 201 854 z "},"ģ":{"ha":899,"x_min":29,"x_max":832,"o":"m 347 0 q 217 28 276 0 q 117 106 158 56 q 52 222 75 156 q 29 367 29 289 q 54 517 29 449 q 124 638 79 586 q 232 717 169 689 q 369 744 294 744 q 508 713 447 744 q 603 622 568 682 l 603 731 l 832 731 l 832 67 q 776 -132 832 -47 q 621 -263 721 -217 q 388 -310 521 -310 q 185 -274 272 -310 q 32 -169 99 -237 l 171 -25 q 267 -88 211 -62 q 388 -114 324 -114 q 477 -96 436 -114 q 543 -38 518 -78 q 568 67 568 1 l 568 114 q 477 28 538 57 q 347 0 417 0 m 442 208 q 478 213 461 208 q 511 227 496 218 q 541 251 526 236 q 568 283 556 265 l 568 414 q 533 472 556 447 q 485 509 511 496 q 431 522 458 522 q 378 510 403 522 q 336 474 354 497 q 308 422 318 451 q 299 360 299 393 q 309 299 299 326 q 339 251 319 271 q 385 219 358 231 q 442 208 411 208 m 532 1014 l 482 932 l 561 932 l 561 799 l 343 799 l 343 932 l 418 1014 l 532 1014 z "},"ġ":{"ha":899,"x_min":29,"x_max":832,"o":"m 347 0 q 217 28 276 0 q 117 106 158 56 q 52 222 75 156 q 29 367 29 289 q 54 517 29 449 q 124 638 79 586 q 232 717 169 689 q 369 744 294 744 q 508 713 447 744 q 603 622 568 682 l 603 731 l 832 731 l 832 67 q 776 -132 832 -47 q 621 -263 721 -217 q 388 -310 521 -310 q 185 -274 272 -310 q 32 -169 99 -237 l 171 -25 q 267 -88 211 -62 q 388 -114 324 -114 q 477 -96 436 -114 q 543 -38 518 -78 q 568 67 568 1 l 568 114 q 477 28 538 57 q 347 0 417 0 m 442 208 q 478 213 461 208 q 511 227 496 218 q 541 251 526 236 q 568 283 556 265 l 568 414 q 533 472 556 447 q 485 509 511 496 q 431 522 458 522 q 378 510 403 522 q 336 474 354 497 q 308 422 318 451 q 299 360 299 393 q 309 299 299 326 q 339 251 319 271 q 385 219 358 231 q 442 208 411 208 m 335 806 l 335 1014 l 571 1014 l 571 806 l 335 806 z "},"ḡ":{"ha":899,"x_min":29,"x_max":832,"o":"m 347 0 q 217 28 276 0 q 117 106 158 56 q 52 222 75 156 q 29 367 29 289 q 54 517 29 449 q 124 638 79 586 q 232 717 169 689 q 369 744 294 744 q 508 713 447 744 q 603 622 568 682 l 603 731 l 832 731 l 832 67 q 776 -132 832 -47 q 621 -263 721 -217 q 388 -310 521 -310 q 185 -274 272 -310 q 32 -169 99 -237 l 171 -25 q 267 -88 211 -62 q 388 -114 324 -114 q 477 -96 436 -114 q 543 -38 518 -78 q 568 67 568 1 l 568 114 q 477 28 538 57 q 347 0 417 0 m 442 208 q 478 213 461 208 q 511 227 496 218 q 541 251 526 236 q 568 283 556 265 l 568 414 q 533 472 556 447 q 485 509 511 496 q 431 522 458 522 q 378 510 403 522 q 336 474 354 497 q 308 422 318 451 q 299 360 299 393 q 309 299 299 326 q 339 251 319 271 q 385 219 358 231 q 442 208 411 208 m 239 843 l 239 1000 l 669 1000 l 669 843 l 239 843 z "},"h":{"ha":863,"x_min":67,"x_max":801,"o":"m 801 0 l 538 0 l 538 411 q 513 490 538 465 q 453 514 489 514 q 412 501 436 514 q 365 465 388 489 q 331 410 343 442 l 331 0 l 67 0 l 67 1014 l 331 1014 l 331 622 q 433 713 369 682 q 572 744 496 744 q 696 719 650 744 q 764 653 742 693 q 794 567 786 613 q 801 481 801 521 l 801 0 z "},"ħ":{"ha":863,"x_min":25,"x_max":801,"o":"m 25 804 l 25 956 l 490 956 l 490 804 l 25 804 m 801 0 l 538 0 l 538 411 q 513 490 538 465 q 453 514 489 514 q 412 501 436 514 q 365 465 388 489 q 331 410 343 442 l 331 0 l 67 0 l 67 1014 l 331 1014 l 331 622 q 433 713 369 682 q 572 744 496 744 q 696 719 650 744 q 764 653 742 693 q 794 567 786 613 q 801 481 801 521 l 801 0 z "},"ḫ":{"ha":863,"x_min":67,"x_max":801,"o":"m 801 0 l 538 0 l 538 411 q 513 490 538 465 q 453 514 489 514 q 412 501 436 514 q 365 465 388 489 q 331 410 343 442 l 331 0 l 67 0 l 67 1014 l 331 1014 l 331 622 q 433 713 369 682 q 572 744 496 744 q 696 719 650 744 q 764 653 742 693 q 794 567 786 613 q 801 481 801 521 l 801 0 m 432 -183 q 488 -151 464 -183 q 517 -71 513 -119 l 653 -71 q 592 -233 653 -169 q 432 -296 531 -296 q 273 -233 335 -296 q 211 -71 211 -169 l 347 -71 q 372 -150 347 -117 q 432 -183 397 -183 z "},"ĥ":{"ha":863,"x_min":67,"x_max":801,"o":"m 801 0 l 538 0 l 538 411 q 513 490 538 465 q 453 514 489 514 q 412 501 436 514 q 365 465 388 489 q 331 410 343 442 l 331 0 l 67 0 l 67 1014 l 331 1014 l 331 622 q 433 713 369 682 q 572 744 496 744 q 696 719 650 744 q 764 653 742 693 q 794 567 786 613 q 801 481 801 521 l 801 0 m 203 1110 l 360 1269 l 549 1269 l 706 1110 l 572 1051 l 454 1139 l 336 1051 l 203 1110 z "},"ḥ":{"ha":863,"x_min":67,"x_max":801,"o":"m 801 0 l 538 0 l 538 411 q 513 490 538 465 q 453 514 489 514 q 412 501 436 514 q 365 465 388 489 q 331 410 343 442 l 331 0 l 67 0 l 67 1014 l 331 1014 l 331 622 q 433 713 369 682 q 572 744 496 744 q 696 719 650 744 q 764 653 742 693 q 794 567 786 613 q 801 481 801 521 l 801 0 m 314 -297 l 314 -89 l 550 -89 l 550 -297 l 314 -297 z "},"i":{"ha":397,"x_min":67,"x_max":331,"o":"m 67 0 l 67 731 l 331 731 l 331 0 l 67 0 m 67 792 l 67 1014 l 331 1014 l 331 792 l 67 792 z "},"ı":{"ha":397,"x_min":67,"x_max":331,"o":"m 67 0 l 67 731 l 331 731 l 331 0 l 67 0 z "},"í":{"ha":397,"x_min":67,"x_max":419,"o":"m 67 0 l 67 731 l 331 731 l 331 0 l 67 0 m 282 772 l 115 817 l 185 1014 l 419 1014 l 282 772 z "},"ĭ":{"ha":397,"x_min":-22,"x_max":419,"o":"m 67 0 l 67 731 l 331 731 l 331 0 l 67 0 m 199 901 q 255 933 231 901 q 283 1014 279 965 l 419 1014 q 358 852 419 915 q 199 789 297 789 q 40 852 101 789 q -22 1014 -22 915 l 114 1014 q 139 935 114 968 q 199 901 164 901 z "},"î":{"ha":397,"x_min":-53,"x_max":450,"o":"m 67 0 l 67 731 l 331 731 l 331 0 l 67 0 m -53 854 l 104 1014 l 293 1014 l 450 854 l 317 796 l 199 883 l 81 796 l -53 854 z "},"ȉ":{"ha":397,"x_min":-103,"x_max":410,"o":"m 67 0 l 67 731 l 331 731 l 331 0 l 67 0 m 161 1015 l 354 1015 l 410 818 l 285 774 l 161 1015 m -103 1015 l 90 1015 l 146 818 l 21 774 l -103 1015 z "},"ï":{"ha":397,"x_min":-69,"x_max":467,"o":"m 67 0 l 67 731 l 331 731 l 331 0 l 67 0 m -69 807 l -69 1001 l 147 1001 l 147 807 l -69 807 m 250 807 l 250 1001 l 467 1001 l 467 807 l 250 807 z "},"ḯ":{"ha":397,"x_min":-69,"x_max":467,"o":"m 67 0 l 67 731 l 331 731 l 331 0 l 67 0 m -69 807 l -69 1001 l 147 1001 l 147 807 l -69 807 m 250 807 l 250 1001 l 467 1001 l 467 807 l 250 807 m 282 1043 l 115 1088 l 185 1285 l 419 1285 l 282 1043 z "},"ị":{"ha":397,"x_min":67,"x_max":331,"o":"m 67 0 l 67 731 l 331 731 l 331 0 l 67 0 m 67 792 l 67 1014 l 331 1014 l 331 792 l 67 792 m 81 -297 l 81 -89 l 317 -89 l 317 -297 l 81 -297 z "},"ì":{"ha":397,"x_min":-10,"x_max":331,"o":"m 67 0 l 67 731 l 331 731 l 331 0 l 67 0 m -10 1014 l 225 1014 l 294 817 l 128 772 l -10 1014 z "},"ỉ":{"ha":397,"x_min":7,"x_max":331,"o":"m 67 0 l 67 731 l 331 731 l 331 0 l 67 0 m 78 924 l 7 993 q 89 1056 50 1038 q 168 1075 128 1075 q 267 1043 229 1075 q 304 958 304 1011 q 279 867 304 903 q 201 788 254 831 l 139 853 q 176 885 163 868 q 189 919 189 901 q 178 949 189 938 q 147 961 167 961 q 113 951 128 961 q 78 924 99 942 z "},"ȋ":{"ha":397,"x_min":-22,"x_max":419,"o":"m 67 0 l 67 731 l 331 731 l 331 0 l 67 0 m 199 901 q 139 868 164 901 q 114 789 114 835 l -22 789 q 40 951 -22 888 q 199 1014 101 1014 q 358 951 297 1014 q 419 789 419 888 l 283 789 q 255 869 279 838 q 199 901 231 901 z "},"ī":{"ha":397,"x_min":-15,"x_max":415,"o":"m 67 0 l 67 731 l 331 731 l 331 0 l 67 0 m -15 843 l -15 1000 l 415 1000 l 415 843 l -15 843 z "},"į":{"ha":397,"x_min":67,"x_max":331,"o":"m 67 0 l 67 731 l 331 731 l 331 0 l 67 0 m 67 792 l 67 1014 l 331 1014 l 331 792 l 67 792 m 68 -160 q 108 -58 68 -110 q 225 33 147 -6 l 313 33 l 331 0 q 257 -56 283 -28 q 231 -108 231 -85 q 254 -145 231 -131 q 328 -160 278 -160 l 279 -299 q 161 -270 208 -290 q 91 -221 114 -250 q 68 -160 68 -192 z "},"ĩ":{"ha":397,"x_min":-96,"x_max":493,"o":"m 67 0 l 67 731 l 331 731 l 331 0 l 67 0 m 294 794 q 222 811 253 794 q 166 844 192 828 q 108 861 140 861 q 64 845 78 861 q 47 813 50 829 q 44 794 44 796 l -96 794 q -85 849 -96 813 q -51 923 -75 885 q 9 988 -28 961 q 97 1014 46 1014 q 172 996 143 1014 q 227 960 201 978 q 285 943 253 943 q 330 960 315 943 q 349 994 344 976 q 354 1014 354 1013 l 493 1014 q 482 967 493 1001 q 447 892 471 932 q 386 824 424 853 q 294 794 349 794 z "},"j":{"ha":403,"x_min":-157,"x_max":336,"o":"m 50 -290 q -60 -271 -7 -290 q -157 -215 -114 -251 l -49 -36 q -19 -56 -37 -49 q 17 -64 -1 -64 q 47 -57 35 -64 q 65 -36 58 -50 q 72 -4 72 -22 l 72 731 l 336 731 l 336 17 q 299 -143 336 -74 q 199 -251 263 -212 q 50 -290 135 -290 m 72 792 l 72 1014 l 336 1014 l 336 792 l 72 792 z "},"ȷ":{"ha":397,"x_min":-162,"x_max":331,"o":"m 44 -290 q -66 -271 -12 -290 q -162 -215 -119 -251 l -54 -36 q -25 -56 -43 -49 q 11 -64 -7 -64 q 41 -57 29 -64 q 60 -36 53 -50 q 67 -4 67 -22 l 67 731 l 331 731 l 331 17 q 294 -143 331 -74 q 193 -251 257 -212 q 44 -290 129 -290 z "},"ĵ":{"ha":397,"x_min":-162,"x_max":450,"o":"m 44 -290 q -66 -271 -12 -290 q -162 -215 -119 -251 l -54 -36 q -25 -56 -43 -49 q 11 -64 -7 -64 q 41 -57 29 -64 q 60 -36 53 -50 q 67 -4 67 -22 l 67 731 l 331 731 l 331 17 q 294 -143 331 -74 q 193 -251 257 -212 q 44 -290 129 -290 m -53 854 l 104 1014 l 293 1014 l 450 854 l 317 796 l 199 883 l 81 796 l -53 854 z "},"k":{"ha":808,"x_min":67,"x_max":828,"o":"m 549 0 l 383 267 l 331 208 l 331 0 l 67 0 l 67 1014 l 331 1014 l 331 460 l 525 731 l 803 731 l 551 411 l 828 0 l 549 0 z "},"ķ":{"ha":808,"x_min":67,"x_max":828,"o":"m 549 0 l 383 267 l 331 208 l 331 0 l 67 0 l 67 1014 l 331 1014 l 331 460 l 525 731 l 803 731 l 551 411 l 828 0 l 549 0 m 332 -296 l 382 -211 l 303 -211 l 303 -64 l 521 -64 l 521 -211 l 446 -296 l 332 -296 z "},"ĸ":{"ha":808,"x_min":67,"x_max":828,"o":"m 549 0 l 383 267 l 331 208 l 331 0 l 67 0 l 67 731 l 331 731 l 331 460 l 525 731 l 803 731 l 551 411 l 828 0 l 549 0 z "},"l":{"ha":493,"x_min":61,"x_max":499,"o":"m 61 1014 l 325 1014 l 325 290 q 342 228 325 250 q 393 207 360 207 q 429 213 410 207 q 465 228 449 218 l 499 33 q 392 -1 451 11 q 281 -14 333 -14 q 118 41 175 -14 q 61 197 61 96 l 61 1014 z "},"ĺ":{"ha":493,"x_min":61,"x_max":499,"o":"m 61 1014 l 325 1014 l 325 290 q 342 228 325 250 q 393 207 360 207 q 429 213 410 207 q 465 228 449 218 l 499 33 q 392 -1 451 11 q 281 -14 333 -14 q 118 41 175 -14 q 61 197 61 96 l 61 1014 m 276 1028 l 110 1072 l 179 1269 l 414 1269 l 276 1028 z "},"ľ":{"ha":493,"x_min":61,"x_max":678,"o":"m 61 1014 l 325 1014 l 325 290 q 342 228 325 250 q 393 207 360 207 q 429 213 410 207 q 465 228 449 218 l 499 33 q 392 -1 451 11 q 281 -14 333 -14 q 118 41 175 -14 q 61 197 61 96 l 61 1014 m 540 772 l 374 817 l 443 1014 l 678 1014 l 540 772 z "},"ļ":{"ha":493,"x_min":61,"x_max":499,"o":"m 61 1014 l 325 1014 l 325 290 q 342 228 325 250 q 393 207 360 207 q 429 213 410 207 q 465 228 449 218 l 499 33 q 392 -1 451 11 q 281 -14 333 -14 q 118 41 175 -14 q 61 197 61 96 l 61 1014 m 196 -296 l 246 -211 l 167 -211 l 167 -64 l 385 -64 l 385 -211 l 310 -296 l 196 -296 z "},"ŀ":{"ha":649,"x_min":61,"x_max":624,"o":"m 61 1014 l 325 1014 l 325 290 q 342 228 325 250 q 393 207 360 207 q 429 213 410 207 q 465 228 449 218 l 499 33 q 392 -1 451 11 q 281 -14 333 -14 q 118 41 175 -14 q 61 197 61 96 l 61 1014 m 410 332 l 410 588 l 624 588 l 624 332 l 410 332 z "},"ḷ":{"ha":493,"x_min":61,"x_max":499,"o":"m 61 1014 l 325 1014 l 325 290 q 342 228 325 250 q 393 207 360 207 q 429 213 410 207 q 465 228 449 218 l 499 33 q 392 -1 451 11 q 281 -14 333 -14 q 118 41 175 -14 q 61 197 61 96 l 61 1014 m 163 -297 l 163 -89 l 399 -89 l 399 -297 l 163 -297 z "},"ḻ":{"ha":493,"x_min":61,"x_max":499,"o":"m 61 1014 l 325 1014 l 325 290 q 342 228 325 250 q 393 207 360 207 q 429 213 410 207 q 465 228 449 218 l 499 33 q 392 -1 451 11 q 281 -14 333 -14 q 118 41 175 -14 q 61 197 61 96 l 61 1014 m 65 -260 l 65 -103 l 496 -103 l 496 -260 l 65 -260 z "},"ł":{"ha":538,"x_min":-15,"x_max":539,"o":"m 44 350 l -15 490 l 479 732 l 539 592 l 44 350 m 100 1014 l 364 1014 l 364 290 q 381 228 364 250 q 432 207 399 207 q 468 213 449 207 q 504 228 488 218 l 538 33 q 431 -1 490 11 q 319 -14 372 -14 q 157 41 214 -14 q 100 197 100 96 l 100 1014 z "},"m":{"ha":1306,"x_min":67,"x_max":1244,"o":"m 1244 0 l 981 0 l 981 411 q 959 490 981 465 q 907 514 938 514 q 840 485 876 514 q 788 410 804 456 l 788 0 l 524 0 l 524 411 q 502 490 524 465 q 450 514 481 514 q 383 485 419 514 q 331 410 347 456 l 331 0 l 67 0 l 67 731 l 304 731 l 304 622 q 411 713 343 682 q 572 744 479 744 q 708 706 663 744 q 769 618 754 667 q 876 711 808 678 q 1029 744 944 744 q 1144 718 1101 744 q 1209 650 1188 692 q 1238 563 1231 608 q 1244 481 1244 518 l 1244 0 z "},"ṃ":{"ha":1306,"x_min":67,"x_max":1244,"o":"m 1244 0 l 981 0 l 981 411 q 959 490 981 465 q 907 514 938 514 q 840 485 876 514 q 788 410 804 456 l 788 0 l 524 0 l 524 411 q 502 490 524 465 q 450 514 481 514 q 383 485 419 514 q 331 410 347 456 l 331 0 l 67 0 l 67 731 l 304 731 l 304 622 q 411 713 343 682 q 572 744 479 744 q 708 706 663 744 q 769 618 754 667 q 876 711 808 678 q 1029 744 944 744 q 1144 718 1101 744 q 1209 650 1188 692 q 1238 563 1231 608 q 1244 481 1244 518 l 1244 0 m 535 -297 l 535 -89 l 771 -89 l 771 -297 l 535 -297 z "},"n":{"ha":863,"x_min":67,"x_max":801,"o":"m 801 0 l 538 0 l 538 411 q 513 490 538 465 q 457 514 489 514 q 410 501 435 514 q 364 464 385 488 q 331 410 343 440 l 331 0 l 67 0 l 67 731 l 304 731 l 304 622 q 371 690 331 663 q 464 731 411 717 q 579 744 517 744 q 699 718 654 744 q 765 650 743 692 q 794 563 788 608 q 801 481 801 518 l 801 0 z "},"ń":{"ha":863,"x_min":67,"x_max":801,"o":"m 801 0 l 538 0 l 538 411 q 513 490 538 465 q 457 514 489 514 q 410 501 435 514 q 364 464 385 488 q 331 410 343 440 l 331 0 l 67 0 l 67 731 l 304 731 l 304 622 q 371 690 331 663 q 464 731 411 717 q 579 744 517 744 q 699 718 654 744 q 765 650 743 692 q 794 563 788 608 q 801 481 801 518 l 801 0 m 546 772 l 379 817 l 449 1014 l 683 1014 l 546 772 z "},"ň":{"ha":863,"x_min":67,"x_max":801,"o":"m 801 0 l 538 0 l 538 411 q 513 490 538 465 q 457 514 489 514 q 410 501 435 514 q 364 464 385 488 q 331 410 343 440 l 331 0 l 67 0 l 67 731 l 304 731 l 304 622 q 371 690 331 663 q 464 731 411 717 q 579 744 517 744 q 699 718 654 744 q 765 650 743 692 q 794 563 788 608 q 801 481 801 518 l 801 0 m 344 1014 l 463 926 l 581 1014 l 714 956 l 557 796 l 368 796 l 211 956 l 344 1014 z "},"ņ":{"ha":863,"x_min":67,"x_max":801,"o":"m 801 0 l 538 0 l 538 411 q 513 490 538 465 q 457 514 489 514 q 410 501 435 514 q 364 464 385 488 q 331 410 343 440 l 331 0 l 67 0 l 67 731 l 304 731 l 304 622 q 371 690 331 663 q 464 731 411 717 q 579 744 517 744 q 699 718 654 744 q 765 650 743 692 q 794 563 788 608 q 801 481 801 518 l 801 0 m 347 -296 l 397 -211 l 318 -211 l 318 -64 l 536 -64 l 536 -211 l 461 -296 l 347 -296 z "},"ṅ":{"ha":863,"x_min":67,"x_max":801,"o":"m 801 0 l 538 0 l 538 411 q 513 490 538 465 q 457 514 489 514 q 410 501 435 514 q 364 464 385 488 q 331 410 343 440 l 331 0 l 67 0 l 67 731 l 304 731 l 304 622 q 371 690 331 663 q 464 731 411 717 q 579 744 517 744 q 699 718 654 744 q 765 650 743 692 q 794 563 788 608 q 801 481 801 518 l 801 0 m 344 806 l 344 1014 l 581 1014 l 581 806 l 344 806 z "},"ṇ":{"ha":863,"x_min":67,"x_max":801,"o":"m 801 0 l 538 0 l 538 411 q 513 490 538 465 q 457 514 489 514 q 410 501 435 514 q 364 464 385 488 q 331 410 343 440 l 331 0 l 67 0 l 67 731 l 304 731 l 304 622 q 371 690 331 663 q 464 731 411 717 q 579 744 517 744 q 699 718 654 744 q 765 650 743 692 q 794 563 788 608 q 801 481 801 518 l 801 0 m 314 -297 l 314 -89 l 550 -89 l 550 -297 l 314 -297 z "},"ŋ":{"ha":861,"x_min":67,"x_max":800,"o":"m 514 -290 q 403 -271 457 -290 q 307 -215 350 -251 l 415 -36 q 444 -56 426 -49 q 481 -64 463 -64 q 511 -57 499 -64 q 531 -36 524 -50 q 538 -4 538 -22 l 538 411 q 513 490 538 465 q 457 514 489 514 q 410 501 435 514 q 364 464 385 488 q 331 410 343 440 l 331 0 l 67 0 l 67 731 l 304 731 l 304 622 q 371 690 331 663 q 464 731 411 717 q 579 744 517 744 q 699 718 654 744 q 765 650 743 692 q 793 563 786 608 q 800 481 800 518 l 800 17 q 763 -143 800 -74 q 662 -251 726 -212 q 514 -290 597 -290 z "},"ṉ":{"ha":863,"x_min":67,"x_max":801,"o":"m 801 0 l 538 0 l 538 411 q 513 490 538 465 q 457 514 489 514 q 410 501 435 514 q 364 464 385 488 q 331 410 343 440 l 331 0 l 67 0 l 67 731 l 304 731 l 304 622 q 371 690 331 663 q 464 731 411 717 q 579 744 517 744 q 699 718 654 744 q 765 650 743 692 q 794 563 788 608 q 801 481 801 518 l 801 0 m 217 -260 l 217 -103 l 647 -103 l 647 -260 l 217 -260 z "},"ñ":{"ha":863,"x_min":67,"x_max":801,"o":"m 801 0 l 538 0 l 538 411 q 513 490 538 465 q 457 514 489 514 q 410 501 435 514 q 364 464 385 488 q 331 410 343 440 l 331 0 l 67 0 l 67 731 l 304 731 l 304 622 q 371 690 331 663 q 464 731 411 717 q 579 744 517 744 q 699 718 654 744 q 765 650 743 692 q 794 563 788 608 q 801 481 801 518 l 801 0 m 558 794 q 486 811 517 794 q 430 844 456 828 q 372 861 404 861 q 328 845 342 861 q 311 813 314 829 q 308 794 308 796 l 168 794 q 178 849 168 813 q 213 923 189 885 q 273 988 236 961 q 361 1014 310 1014 q 436 996 407 1014 q 491 960 465 978 q 549 943 517 943 q 594 960 579 943 q 613 994 608 976 q 618 1014 618 1013 l 757 1014 q 746 967 757 1001 q 711 892 735 932 q 650 824 688 853 q 558 794 613 794 z "},"o":{"ha":853,"x_min":26,"x_max":826,"o":"m 426 -14 q 254 17 329 -14 q 128 101 179 47 q 52 222 78 154 q 26 365 26 290 q 52 509 26 440 q 128 631 78 578 q 254 714 179 683 q 426 744 329 744 q 599 714 525 744 q 724 631 674 683 q 801 509 775 578 q 826 365 826 440 q 801 222 826 290 q 724 101 775 154 q 599 17 674 47 q 426 -14 525 -14 m 297 365 q 314 281 297 317 q 360 227 331 246 q 426 208 389 208 q 493 227 464 208 q 539 281 522 246 q 556 365 556 317 q 539 449 556 414 q 493 503 522 485 q 426 522 464 522 q 360 503 389 522 q 314 449 331 485 q 297 365 297 414 z "},"ó":{"ha":853,"x_min":26,"x_max":826,"o":"m 426 -14 q 254 17 329 -14 q 128 101 179 47 q 52 222 78 154 q 26 365 26 290 q 52 509 26 440 q 128 631 78 578 q 254 714 179 683 q 426 744 329 744 q 599 714 525 744 q 724 631 674 683 q 801 509 775 578 q 826 365 826 440 q 801 222 826 290 q 724 101 775 154 q 599 17 674 47 q 426 -14 525 -14 m 297 365 q 314 281 297 317 q 360 227 331 246 q 426 208 389 208 q 493 227 464 208 q 539 281 522 246 q 556 365 556 317 q 539 449 556 414 q 493 503 522 485 q 426 522 464 522 q 360 503 389 522 q 314 449 331 485 q 297 365 297 414 m 510 772 l 343 817 l 413 1014 l 647 1014 l 510 772 z "},"ŏ":{"ha":853,"x_min":26,"x_max":826,"o":"m 426 -14 q 254 17 329 -14 q 128 101 179 47 q 52 222 78 154 q 26 365 26 290 q 52 509 26 440 q 128 631 78 578 q 254 714 179 683 q 426 744 329 744 q 599 714 525 744 q 724 631 674 683 q 801 509 775 578 q 826 365 826 440 q 801 222 826 290 q 724 101 775 154 q 599 17 674 47 q 426 -14 525 -14 m 297 365 q 314 281 297 317 q 360 227 331 246 q 426 208 389 208 q 493 227 464 208 q 539 281 522 246 q 556 365 556 317 q 539 449 556 414 q 493 503 522 485 q 426 522 464 522 q 360 503 389 522 q 314 449 331 485 q 297 365 297 414 m 426 901 q 483 933 458 901 q 511 1014 507 965 l 647 1014 q 586 852 647 915 q 426 789 525 789 q 267 852 329 789 q 206 1014 206 915 l 342 1014 q 367 935 342 968 q 426 901 392 901 z "},"ô":{"ha":853,"x_min":26,"x_max":826,"o":"m 426 -14 q 254 17 329 -14 q 128 101 179 47 q 52 222 78 154 q 26 365 26 290 q 52 509 26 440 q 128 631 78 578 q 254 714 179 683 q 426 744 329 744 q 599 714 525 744 q 724 631 674 683 q 801 509 775 578 q 826 365 826 440 q 801 222 826 290 q 724 101 775 154 q 599 17 674 47 q 426 -14 525 -14 m 297 365 q 314 281 297 317 q 360 227 331 246 q 426 208 389 208 q 493 227 464 208 q 539 281 522 246 q 556 365 556 317 q 539 449 556 414 q 493 503 522 485 q 426 522 464 522 q 360 503 389 522 q 314 449 331 485 q 297 365 297 414 m 175 854 l 332 1014 l 521 1014 l 678 854 l 544 796 l 426 883 l 308 796 l 175 854 z "},"ố":{"ha":853,"x_min":26,"x_max":883,"o":"m 426 -14 q 254 17 329 -14 q 128 101 179 47 q 52 222 78 154 q 26 365 26 290 q 52 509 26 440 q 128 631 78 578 q 254 714 179 683 q 426 744 329 744 q 599 714 525 744 q 724 631 674 683 q 801 509 775 578 q 826 365 826 440 q 801 222 826 290 q 724 101 775 154 q 599 17 674 47 q 426 -14 525 -14 m 297 365 q 314 281 297 317 q 360 227 331 246 q 426 208 389 208 q 493 227 464 208 q 539 281 522 246 q 556 365 556 317 q 539 449 556 414 q 493 503 522 485 q 426 522 464 522 q 360 503 389 522 q 314 449 331 485 q 297 365 297 414 z "},"ộ":{"ha":853,"x_min":26,"x_max":826,"o":"m 426 -14 q 254 17 329 -14 q 128 101 179 47 q 52 222 78 154 q 26 365 26 290 q 52 509 26 440 q 128 631 78 578 q 254 714 179 683 q 426 744 329 744 q 599 714 525 744 q 724 631 674 683 q 801 509 775 578 q 826 365 826 440 q 801 222 826 290 q 724 101 775 154 q 599 17 674 47 q 426 -14 525 -14 m 297 365 q 314 281 297 317 q 360 227 331 246 q 426 208 389 208 q 493 227 464 208 q 539 281 522 246 q 556 365 556 317 q 539 449 556 414 q 493 503 522 485 q 426 522 464 522 q 360 503 389 522 q 314 449 331 485 q 297 365 297 414 m 308 -297 l 308 -89 l 544 -89 l 544 -297 l 308 -297 m 175 854 l 332 1014 l 521 1014 l 678 854 l 544 796 l 426 883 l 308 796 l 175 854 z "},"ồ":{"ha":853,"x_min":-53,"x_max":826,"o":"m 426 -14 q 254 17 329 -14 q 128 101 179 47 q 52 222 78 154 q 26 365 26 290 q 52 509 26 440 q 128 631 78 578 q 254 714 179 683 q 426 744 329 744 q 599 714 525 744 q 724 631 674 683 q 801 509 775 578 q 826 365 826 440 q 801 222 826 290 q 724 101 775 154 q 599 17 674 47 q 426 -14 525 -14 m 297 365 q 314 281 297 317 q 360 227 331 246 q 426 208 389 208 q 493 227 464 208 q 539 281 522 246 q 556 365 556 317 q 539 449 556 414 q 493 503 522 485 q 426 522 464 522 q 360 503 389 522 q 314 449 331 485 q 297 365 297 414 z "},"ổ":{"ha":853,"x_min":26,"x_max":826,"o":"m 426 -14 q 254 17 329 -14 q 128 101 179 47 q 52 222 78 154 q 26 365 26 290 q 52 509 26 440 q 128 631 78 578 q 254 714 179 683 q 426 744 329 744 q 599 714 525 744 q 724 631 674 683 q 801 509 775 578 q 826 365 826 440 q 801 222 826 290 q 724 101 775 154 q 599 17 674 47 q 426 -14 525 -14 m 297 365 q 314 281 297 317 q 360 227 331 246 q 426 208 389 208 q 493 227 464 208 q 539 281 522 246 q 556 365 556 317 q 539 449 556 414 q 493 503 522 485 q 426 522 464 522 q 360 503 389 522 q 314 449 331 485 q 297 365 297 414 z "},"ỗ":{"ha":853,"x_min":26,"x_max":826,"o":"m 426 -14 q 254 17 329 -14 q 128 101 179 47 q 52 222 78 154 q 26 365 26 290 q 52 509 26 440 q 128 631 78 578 q 254 714 179 683 q 426 744 329 744 q 599 714 525 744 q 724 631 674 683 q 801 509 775 578 q 826 365 826 440 q 801 222 826 290 q 724 101 775 154 q 599 17 674 47 q 426 -14 525 -14 m 297 365 q 314 281 297 317 q 360 227 331 246 q 426 208 389 208 q 493 227 464 208 q 539 281 522 246 q 556 365 556 317 q 539 449 556 414 q 493 503 522 485 q 426 522 464 522 q 360 503 389 522 q 314 449 331 485 q 297 365 297 414 z "},"ȍ":{"ha":853,"x_min":26,"x_max":826,"o":"m 426 -14 q 254 17 329 -14 q 128 101 179 47 q 52 222 78 154 q 26 365 26 290 q 52 509 26 440 q 128 631 78 578 q 254 714 179 683 q 426 744 329 744 q 599 714 525 744 q 724 631 674 683 q 801 509 775 578 q 826 365 826 440 q 801 222 826 290 q 724 101 775 154 q 599 17 674 47 q 426 -14 525 -14 m 297 365 q 314 281 297 317 q 360 227 331 246 q 426 208 389 208 q 493 227 464 208 q 539 281 522 246 q 556 365 556 317 q 539 449 556 414 q 493 503 522 485 q 426 522 464 522 q 360 503 389 522 q 314 449 331 485 q 297 365 297 414 m 389 1015 l 582 1015 l 638 818 l 513 774 l 389 1015 m 125 1015 l 318 1015 l 374 818 l 249 774 l 125 1015 z "},"ö":{"ha":853,"x_min":26,"x_max":826,"o":"m 426 -14 q 254 17 329 -14 q 128 101 179 47 q 52 222 78 154 q 26 365 26 290 q 52 509 26 440 q 128 631 78 578 q 254 714 179 683 q 426 744 329 744 q 599 714 525 744 q 724 631 674 683 q 801 509 775 578 q 826 365 826 440 q 801 222 826 290 q 724 101 775 154 q 599 17 674 47 q 426 -14 525 -14 m 297 365 q 314 281 297 317 q 360 227 331 246 q 426 208 389 208 q 493 227 464 208 q 539 281 522 246 q 556 365 556 317 q 539 449 556 414 q 493 503 522 485 q 426 522 464 522 q 360 503 389 522 q 314 449 331 485 q 297 365 297 414 m 158 807 l 158 1001 l 375 1001 l 375 807 l 158 807 m 478 807 l 478 1001 l 694 1001 l 694 807 l 478 807 z "},"ȫ":{"ha":853,"x_min":26,"x_max":826,"o":"m 426 -14 q 254 17 329 -14 q 128 101 179 47 q 52 222 78 154 q 26 365 26 290 q 52 509 26 440 q 128 631 78 578 q 254 714 179 683 q 426 744 329 744 q 599 714 525 744 q 724 631 674 683 q 801 509 775 578 q 826 365 826 440 q 801 222 826 290 q 724 101 775 154 q 599 17 674 47 q 426 -14 525 -14 m 297 365 q 314 281 297 317 q 360 227 331 246 q 426 208 389 208 q 493 227 464 208 q 539 281 522 246 q 556 365 556 317 q 539 449 556 414 q 493 503 522 485 q 426 522 464 522 q 360 503 389 522 q 314 449 331 485 q 297 365 297 414 m 158 807 l 158 1001 l 375 1001 l 375 807 l 158 807 m 478 807 l 478 1001 l 694 1001 l 694 807 l 478 807 m 213 1114 l 213 1271 l 643 1271 l 643 1114 l 213 1114 z "},"ȱ":{"ha":853,"x_min":26,"x_max":826,"o":"m 426 -14 q 254 17 329 -14 q 128 101 179 47 q 52 222 78 154 q 26 365 26 290 q 52 509 26 440 q 128 631 78 578 q 254 714 179 683 q 426 744 329 744 q 599 714 525 744 q 724 631 674 683 q 801 509 775 578 q 826 365 826 440 q 801 222 826 290 q 724 101 775 154 q 599 17 674 47 q 426 -14 525 -14 m 297 365 q 314 281 297 317 q 360 227 331 246 q 426 208 389 208 q 493 227 464 208 q 539 281 522 246 q 556 365 556 317 q 539 449 556 414 q 493 503 522 485 q 426 522 464 522 q 360 503 389 522 q 314 449 331 485 q 297 365 297 414 m 308 806 l 308 1014 l 544 1014 l 544 806 l 308 806 m 213 1126 l 213 1283 l 643 1283 l 643 1126 l 213 1126 z "},"ọ":{"ha":853,"x_min":26,"x_max":826,"o":"m 426 -14 q 254 17 329 -14 q 128 101 179 47 q 52 222 78 154 q 26 365 26 290 q 52 509 26 440 q 128 631 78 578 q 254 714 179 683 q 426 744 329 744 q 599 714 525 744 q 724 631 674 683 q 801 509 775 578 q 826 365 826 440 q 801 222 826 290 q 724 101 775 154 q 599 17 674 47 q 426 -14 525 -14 m 297 365 q 314 281 297 317 q 360 227 331 246 q 426 208 389 208 q 493 227 464 208 q 539 281 522 246 q 556 365 556 317 q 539 449 556 414 q 493 503 522 485 q 426 522 464 522 q 360 503 389 522 q 314 449 331 485 q 297 365 297 414 m 308 -297 l 308 -89 l 544 -89 l 544 -297 l 308 -297 z "},"ò":{"ha":853,"x_min":26,"x_max":826,"o":"m 426 -14 q 254 17 329 -14 q 128 101 179 47 q 52 222 78 154 q 26 365 26 290 q 52 509 26 440 q 128 631 78 578 q 254 714 179 683 q 426 744 329 744 q 599 714 525 744 q 724 631 674 683 q 801 509 775 578 q 826 365 826 440 q 801 222 826 290 q 724 101 775 154 q 599 17 674 47 q 426 -14 525 -14 m 297 365 q 314 281 297 317 q 360 227 331 246 q 426 208 389 208 q 493 227 464 208 q 539 281 522 246 q 556 365 556 317 q 539 449 556 414 q 493 503 522 485 q 426 522 464 522 q 360 503 389 522 q 314 449 331 485 q 297 365 297 414 m 218 1014 l 453 1014 l 522 817 l 356 772 l 218 1014 z "},"ỏ":{"ha":853,"x_min":26,"x_max":826,"o":"m 426 -14 q 254 17 329 -14 q 128 101 179 47 q 52 222 78 154 q 26 365 26 290 q 52 509 26 440 q 128 631 78 578 q 254 714 179 683 q 426 744 329 744 q 599 714 525 744 q 724 631 674 683 q 801 509 775 578 q 826 365 826 440 q 801 222 826 290 q 724 101 775 154 q 599 17 674 47 q 426 -14 525 -14 m 297 365 q 314 281 297 317 q 360 227 331 246 q 426 208 389 208 q 493 227 464 208 q 539 281 522 246 q 556 365 556 317 q 539 449 556 414 q 493 503 522 485 q 426 522 464 522 q 360 503 389 522 q 314 449 331 485 q 297 365 297 414 m 349 939 l 278 1008 q 360 1072 321 1053 q 439 1090 399 1090 q 538 1058 500 1090 q 575 974 575 1026 q 550 882 575 918 q 472 803 525 846 l 410 868 q 447 900 433 883 q 460 935 460 917 q 449 965 460 953 q 418 976 438 976 q 384 967 399 976 q 349 939 369 957 z "},"ơ":{"ha":853,"x_min":26,"x_max":836,"o":"m 426 -14 q 254 17 329 -14 q 128 101 179 47 q 52 222 78 154 q 26 365 26 290 q 52 509 26 440 q 128 631 78 578 q 254 714 179 683 q 426 744 329 744 q 599 714 525 744 q 724 631 674 683 q 801 509 775 578 q 826 365 826 440 q 801 222 826 290 q 724 101 775 154 q 599 17 674 47 q 426 -14 525 -14 m 297 365 q 314 281 297 317 q 360 227 331 246 q 426 208 389 208 q 493 227 464 208 q 539 281 522 246 q 556 365 556 317 q 539 449 556 414 q 493 503 522 485 q 426 522 464 522 q 360 503 389 522 q 314 449 331 485 q 297 365 297 414 m 493 551 l 496 729 q 579 735 544 729 q 633 761 614 742 q 654 807 653 781 q 657 860 656 833 l 836 860 q 833 783 836 824 q 815 703 831 743 q 764 629 800 664 q 697 590 740 607 q 600 562 653 572 q 493 551 547 551 z "},"ớ":{"ha":853,"x_min":26,"x_max":836,"o":"m 426 -14 q 254 17 329 -14 q 128 101 179 47 q 52 222 78 154 q 26 365 26 290 q 52 509 26 440 q 128 631 78 578 q 254 714 179 683 q 426 744 329 744 q 599 714 525 744 q 724 631 674 683 q 801 509 775 578 q 826 365 826 440 q 801 222 826 290 q 724 101 775 154 q 599 17 674 47 q 426 -14 525 -14 m 297 365 q 314 281 297 317 q 360 227 331 246 q 426 208 389 208 q 493 227 464 208 q 539 281 522 246 q 556 365 556 317 q 539 449 556 414 q 493 503 522 485 q 426 522 464 522 q 360 503 389 522 q 314 449 331 485 q 297 365 297 414 m 493 551 l 496 729 q 579 735 544 729 q 633 761 614 742 q 654 807 653 781 q 657 860 656 833 l 836 860 q 833 783 836 824 q 815 703 831 743 q 764 629 800 664 q 697 590 740 607 q 600 562 653 572 q 493 551 547 551 m 510 772 l 343 817 l 413 1014 l 647 1014 l 510 772 z "},"ợ":{"ha":853,"x_min":26,"x_max":836,"o":"m 426 -14 q 254 17 329 -14 q 128 101 179 47 q 52 222 78 154 q 26 365 26 290 q 52 509 26 440 q 128 631 78 578 q 254 714 179 683 q 426 744 329 744 q 599 714 525 744 q 724 631 674 683 q 801 509 775 578 q 826 365 826 440 q 801 222 826 290 q 724 101 775 154 q 599 17 674 47 q 426 -14 525 -14 m 297 365 q 314 281 297 317 q 360 227 331 246 q 426 208 389 208 q 493 227 464 208 q 539 281 522 246 q 556 365 556 317 q 539 449 556 414 q 493 503 522 485 q 426 522 464 522 q 360 503 389 522 q 314 449 331 485 q 297 365 297 414 m 493 551 l 496 729 q 579 735 544 729 q 633 761 614 742 q 654 807 653 781 q 657 860 656 833 l 836 860 q 833 783 836 824 q 815 703 831 743 q 764 629 800 664 q 697 590 740 607 q 600 562 653 572 q 493 551 547 551 m 308 -297 l 308 -89 l 544 -89 l 544 -297 l 308 -297 z "},"ờ":{"ha":853,"x_min":26,"x_max":836,"o":"m 426 -14 q 254 17 329 -14 q 128 101 179 47 q 52 222 78 154 q 26 365 26 290 q 52 509 26 440 q 128 631 78 578 q 254 714 179 683 q 426 744 329 744 q 599 714 525 744 q 724 631 674 683 q 801 509 775 578 q 826 365 826 440 q 801 222 826 290 q 724 101 775 154 q 599 17 674 47 q 426 -14 525 -14 m 297 365 q 314 281 297 317 q 360 227 331 246 q 426 208 389 208 q 493 227 464 208 q 539 281 522 246 q 556 365 556 317 q 539 449 556 414 q 493 503 522 485 q 426 522 464 522 q 360 503 389 522 q 314 449 331 485 q 297 365 297 414 m 493 551 l 496 729 q 579 735 544 729 q 633 761 614 742 q 654 807 653 781 q 657 860 656 833 l 836 860 q 833 783 836 824 q 815 703 831 743 q 764 629 800 664 q 697 590 740 607 q 600 562 653 572 q 493 551 547 551 m 218 1014 l 453 1014 l 522 817 l 356 772 l 218 1014 z "},"ở":{"ha":853,"x_min":26,"x_max":836,"o":"m 426 -14 q 254 17 329 -14 q 128 101 179 47 q 52 222 78 154 q 26 365 26 290 q 52 509 26 440 q 128 631 78 578 q 254 714 179 683 q 426 744 329 744 q 599 714 525 744 q 724 631 674 683 q 801 509 775 578 q 826 365 826 440 q 801 222 826 290 q 724 101 775 154 q 599 17 674 47 q 426 -14 525 -14 m 297 365 q 314 281 297 317 q 360 227 331 246 q 426 208 389 208 q 493 227 464 208 q 539 281 522 246 q 556 365 556 317 q 539 449 556 414 q 493 503 522 485 q 426 522 464 522 q 360 503 389 522 q 314 449 331 485 q 297 365 297 414 m 493 551 l 496 729 q 579 735 544 729 q 633 761 614 742 q 654 807 653 781 q 657 860 656 833 l 836 860 q 833 783 836 824 q 815 703 831 743 q 764 629 800 664 q 697 590 740 607 q 600 562 653 572 q 493 551 547 551 m 349 939 l 278 1008 q 360 1072 321 1053 q 439 1090 399 1090 q 538 1058 500 1090 q 575 974 575 1026 q 550 882 575 918 q 472 803 525 846 l 410 868 q 447 900 433 883 q 460 935 460 917 q 449 965 460 953 q 418 976 438 976 q 384 967 399 976 q 349 939 369 957 z "},"ỡ":{"ha":853,"x_min":26,"x_max":836,"o":"m 426 -14 q 254 17 329 -14 q 128 101 179 47 q 52 222 78 154 q 26 365 26 290 q 52 509 26 440 q 128 631 78 578 q 254 714 179 683 q 426 744 329 744 q 599 714 525 744 q 724 631 674 683 q 801 509 775 578 q 826 365 826 440 q 801 222 826 290 q 724 101 775 154 q 599 17 674 47 q 426 -14 525 -14 m 297 365 q 314 281 297 317 q 360 227 331 246 q 426 208 389 208 q 493 227 464 208 q 539 281 522 246 q 556 365 556 317 q 539 449 556 414 q 493 503 522 485 q 426 522 464 522 q 360 503 389 522 q 314 449 331 485 q 297 365 297 414 m 493 551 l 496 729 q 579 735 544 729 q 633 761 614 742 q 654 807 653 781 q 657 860 656 833 l 836 860 q 833 783 836 824 q 815 703 831 743 q 764 629 800 664 q 697 590 740 607 q 600 562 653 572 q 493 551 547 551 m 522 794 q 450 811 481 794 q 394 844 419 828 q 336 861 368 861 q 292 845 306 861 q 275 813 278 829 q 272 794 272 796 l 132 794 q 142 849 132 813 q 176 923 153 885 q 237 988 200 961 q 325 1014 274 1014 q 400 996 371 1014 q 455 960 429 978 q 513 943 481 943 q 558 960 543 943 q 577 994 572 976 q 582 1014 582 1013 l 721 1014 q 710 967 721 1001 q 675 892 699 932 q 614 824 651 853 q 522 794 576 794 z "},"ő":{"ha":853,"x_min":26,"x_max":826,"o":"m 426 -14 q 254 17 329 -14 q 128 101 179 47 q 52 222 78 154 q 26 365 26 290 q 52 509 26 440 q 128 631 78 578 q 254 714 179 683 q 426 744 329 744 q 599 714 525 744 q 724 631 674 683 q 801 509 775 578 q 826 365 826 440 q 801 222 826 290 q 724 101 775 154 q 599 17 674 47 q 426 -14 525 -14 m 297 365 q 314 281 297 317 q 360 227 331 246 q 426 208 389 208 q 493 227 464 208 q 539 281 522 246 q 556 365 556 317 q 539 449 556 414 q 493 503 522 485 q 426 522 464 522 q 360 503 389 522 q 314 449 331 485 q 297 365 297 414 m 339 774 l 214 818 l 269 1015 l 463 1015 l 339 774 m 603 774 l 478 818 l 533 1015 l 726 1015 l 603 774 z "},"ȏ":{"ha":853,"x_min":26,"x_max":826,"o":"m 426 -14 q 254 17 329 -14 q 128 101 179 47 q 52 222 78 154 q 26 365 26 290 q 52 509 26 440 q 128 631 78 578 q 254 714 179 683 q 426 744 329 744 q 599 714 525 744 q 724 631 674 683 q 801 509 775 578 q 826 365 826 440 q 801 222 826 290 q 724 101 775 154 q 599 17 674 47 q 426 -14 525 -14 m 297 365 q 314 281 297 317 q 360 227 331 246 q 426 208 389 208 q 493 227 464 208 q 539 281 522 246 q 556 365 556 317 q 539 449 556 414 q 493 503 522 485 q 426 522 464 522 q 360 503 389 522 q 314 449 331 485 q 297 365 297 414 m 426 901 q 367 868 392 901 q 342 789 342 835 l 206 789 q 267 951 206 888 q 426 1014 329 1014 q 586 951 525 1014 q 647 789 647 888 l 511 789 q 483 869 507 838 q 426 901 458 901 z "},"ō":{"ha":853,"x_min":26,"x_max":826,"o":"m 426 -14 q 254 17 329 -14 q 128 101 179 47 q 52 222 78 154 q 26 365 26 290 q 52 509 26 440 q 128 631 78 578 q 254 714 179 683 q 426 744 329 744 q 599 714 525 744 q 724 631 674 683 q 801 509 775 578 q 826 365 826 440 q 801 222 826 290 q 724 101 775 154 q 599 17 674 47 q 426 -14 525 -14 m 297 365 q 314 281 297 317 q 360 227 331 246 q 426 208 389 208 q 493 227 464 208 q 539 281 522 246 q 556 365 556 317 q 539 449 556 414 q 493 503 522 485 q 426 522 464 522 q 360 503 389 522 q 314 449 331 485 q 297 365 297 414 m 213 843 l 213 1000 l 643 1000 l 643 843 l 213 843 z "},"ṓ":{"ha":853,"x_min":26,"x_max":826,"o":"m 426 -14 q 254 17 329 -14 q 128 101 179 47 q 52 222 78 154 q 26 365 26 290 q 52 509 26 440 q 128 631 78 578 q 254 714 179 683 q 426 744 329 744 q 599 714 525 744 q 724 631 674 683 q 801 509 775 578 q 826 365 826 440 q 801 222 826 290 q 724 101 775 154 q 599 17 674 47 q 426 -14 525 -14 m 297 365 q 314 281 297 317 q 360 227 331 246 q 426 208 389 208 q 493 227 464 208 q 539 281 522 246 q 556 365 556 317 q 539 449 556 414 q 493 503 522 485 q 426 522 464 522 q 360 503 389 522 q 314 449 331 485 q 297 365 297 414 m 213 843 l 213 1000 l 643 1000 l 643 843 l 213 843 m 511 1042 l 344 1086 l 414 1283 l 649 1283 l 511 1042 z "},"ṑ":{"ha":853,"x_min":26,"x_max":826,"o":"m 426 -14 q 254 17 329 -14 q 128 101 179 47 q 52 222 78 154 q 26 365 26 290 q 52 509 26 440 q 128 631 78 578 q 254 714 179 683 q 426 744 329 744 q 599 714 525 744 q 724 631 674 683 q 801 509 775 578 q 826 365 826 440 q 801 222 826 290 q 724 101 775 154 q 599 17 674 47 q 426 -14 525 -14 m 297 365 q 314 281 297 317 q 360 227 331 246 q 426 208 389 208 q 493 227 464 208 q 539 281 522 246 q 556 365 556 317 q 539 449 556 414 q 493 503 522 485 q 426 522 464 522 q 360 503 389 522 q 314 449 331 485 q 297 365 297 414 m 213 843 l 213 1000 l 643 1000 l 643 843 l 213 843 m 219 1283 l 454 1283 l 524 1086 l 357 1042 l 219 1283 z "},"ǫ":{"ha":853,"x_min":26,"x_max":826,"o":"m 426 -14 q 254 17 329 -14 q 128 101 179 47 q 52 222 78 154 q 26 365 26 290 q 52 509 26 440 q 128 631 78 578 q 254 714 179 683 q 426 744 329 744 q 599 714 525 744 q 724 631 674 683 q 801 509 775 578 q 826 365 826 440 q 801 222 826 290 q 724 101 775 154 q 599 17 674 47 q 426 -14 525 -14 m 297 365 q 314 281 297 317 q 360 227 331 246 q 426 208 389 208 q 493 227 464 208 q 539 281 522 246 q 556 365 556 317 q 539 449 556 414 q 493 503 522 485 q 426 522 464 522 q 360 503 389 522 q 314 449 331 485 q 297 365 297 414 m 281 -160 q 320 -58 281 -110 q 438 33 360 -6 l 525 33 l 543 0 q 469 -56 496 -28 q 443 -108 443 -85 q 467 -145 443 -131 q 540 -160 490 -160 l 492 -299 q 374 -270 421 -290 q 303 -221 326 -250 q 281 -160 281 -192 z "},"ø":{"ha":853,"x_min":19,"x_max":826,"o":"m 426 -14 q 254 17 329 -14 q 128 101 179 47 q 52 222 78 154 q 26 365 26 290 q 52 509 26 440 q 128 631 78 578 q 254 714 179 683 q 426 744 329 744 q 599 714 525 744 q 724 631 674 683 q 801 509 775 578 q 826 365 826 440 q 801 222 826 290 q 724 101 775 154 q 599 17 674 47 q 426 -14 525 -14 m 426 208 q 493 227 464 208 q 539 281 522 246 q 556 365 556 317 q 539 449 556 414 q 493 503 522 485 q 426 522 464 522 q 360 503 389 522 q 314 449 331 485 q 297 365 297 414 q 314 281 297 317 q 360 227 331 246 q 426 208 389 208 m 19 -8 l 207 219 l 293 144 l 158 -8 l 19 -8 m 307 168 l 242 235 l 549 581 l 628 529 l 307 168 m 663 546 l 561 604 l 681 739 l 821 739 l 663 546 z "},"ǿ":{"ha":853,"x_min":19,"x_max":826,"o":"m 426 -14 q 254 17 329 -14 q 128 101 179 47 q 52 222 78 154 q 26 365 26 290 q 52 509 26 440 q 128 631 78 578 q 254 714 179 683 q 426 744 329 744 q 599 714 525 744 q 724 631 674 683 q 801 509 775 578 q 826 365 826 440 q 801 222 826 290 q 724 101 775 154 q 599 17 674 47 q 426 -14 525 -14 m 426 208 q 493 227 464 208 q 539 281 522 246 q 556 365 556 317 q 539 449 556 414 q 493 503 522 485 q 426 522 464 522 q 360 503 389 522 q 314 449 331 485 q 297 365 297 414 q 314 281 297 317 q 360 227 331 246 q 426 208 389 208 m 19 -8 l 207 219 l 293 144 l 158 -8 l 19 -8 m 307 168 l 242 235 l 549 581 l 628 529 l 307 168 m 663 546 l 561 604 l 681 739 l 821 739 l 663 546 m 472 772 l 306 817 l 375 1014 l 610 1014 l 472 772 z "},"õ":{"ha":853,"x_min":26,"x_max":826,"o":"m 426 -14 q 254 17 329 -14 q 128 101 179 47 q 52 222 78 154 q 26 365 26 290 q 52 509 26 440 q 128 631 78 578 q 254 714 179 683 q 426 744 329 744 q 599 714 525 744 q 724 631 674 683 q 801 509 775 578 q 826 365 826 440 q 801 222 826 290 q 724 101 775 154 q 599 17 674 47 q 426 -14 525 -14 m 297 365 q 314 281 297 317 q 360 227 331 246 q 426 208 389 208 q 493 227 464 208 q 539 281 522 246 q 556 365 556 317 q 539 449 556 414 q 493 503 522 485 q 426 522 464 522 q 360 503 389 522 q 314 449 331 485 q 297 365 297 414 m 522 794 q 450 811 481 794 q 394 844 419 828 q 336 861 368 861 q 292 845 306 861 q 275 813 278 829 q 272 794 272 796 l 132 794 q 142 849 132 813 q 176 923 153 885 q 237 988 200 961 q 325 1014 274 1014 q 400 996 371 1014 q 455 960 429 978 q 513 943 481 943 q 558 960 543 943 q 577 994 572 976 q 582 1014 582 1013 l 721 1014 q 710 967 721 1001 q 675 892 699 932 q 614 824 651 853 q 522 794 576 794 z "},"ṍ":{"ha":853,"x_min":26,"x_max":826,"o":"m 426 -14 q 254 17 329 -14 q 128 101 179 47 q 52 222 78 154 q 26 365 26 290 q 52 509 26 440 q 128 631 78 578 q 254 714 179 683 q 426 744 329 744 q 599 714 525 744 q 724 631 674 683 q 801 509 775 578 q 826 365 826 440 q 801 222 826 290 q 724 101 775 154 q 599 17 674 47 q 426 -14 525 -14 m 297 365 q 314 281 297 317 q 360 227 331 246 q 426 208 389 208 q 493 227 464 208 q 539 281 522 246 q 556 365 556 317 q 539 449 556 414 q 493 503 522 485 q 426 522 464 522 q 360 503 389 522 q 314 449 331 485 q 297 365 297 414 m 522 794 q 450 811 481 794 q 394 844 419 828 q 336 861 368 861 q 292 845 306 861 q 275 813 278 829 q 272 794 272 796 l 132 794 q 142 849 132 813 q 176 923 153 885 q 237 988 200 961 q 325 1014 274 1014 q 400 996 371 1014 q 455 960 429 978 q 513 943 481 943 q 558 960 543 943 q 577 994 572 976 q 582 1014 582 1013 l 721 1014 q 710 967 721 1001 q 675 892 699 932 q 614 824 651 853 q 522 794 576 794 m 510 1056 l 343 1100 l 413 1297 l 647 1297 l 510 1056 z "}}}
